<?xml version="1.0" encoding="UTF-8"?>
<svg id="Lager_2" data-name="Lager 2" xmlns="http://www.w3.org/2000/svg" viewBox="0 0 123.0847 207.9204">
  <defs>
    <style>
      .cls-1 {
        fill: #b4bf9b;
      }

      .cls-1, .cls-2, .cls-3 {
        stroke-width: 0px;
      }

      .cls-2 {
        fill: #9caf79;
      }

      .cls-3 {
        fill: #8f9e6d;
      }
    </style>
  </defs>
  <g id="OBJECTS">
    <g>
      <path class="cls-2" d="m41.4846,17.7703s21.4231-20.4813,42.7282,0C84.2127,17.7703,75.9886,0,62.8597,0s-21.3751,17.7703-21.3751,17.7703Z"/>
      <path class="cls-1" d="m84.374,96.2935S85.8333,5.7089,62.8597,0c-22.9736,5.7089-21.522,96.2935-21.522,96.2935h-11.0399C30.2978,4.3468,54.8634-.003,62.8597,0c7.9328-.003,32.5618,4.3468,32.5618,96.2935h-11.0475Z"/>
      <path class="cls-2" d="m123.0225,102.7891c-.0333.7897-.0832,1.6293-.1414,2.5437-.9227,13.4001.2327,71.8637-12.4774,86.4193-12.386,14.1899-21.8043,16.0768-47.8066,16.1683h-.8478c-26.9666-.0333-36.4931-1.754-49.0701-16.1683C-.0311,177.1964,1.1243,118.7329.2017,105.3328c-.0666-.9061-.1082-1.754-.1414-2.5437h122.9621Z"/>
      <path class="cls-3" d="m123.0225,102.7891H.0603c-.4488-10.8149,1.754-10.474,1.754-10.474h119.4541s2.2112-.3409,1.7541,10.474Z"/>
      <path class="cls-3" d="m14.3736,174.116s10.8611,24.5345,33.4307,26.4981c0,0-15.4444,2.7345-27.0373-7.0097s-6.3934-19.4884-6.3934-19.4884Z"/>
      <path class="cls-3" d="m108.7106,174.116s-8.7575,24.2264-31.327,26.19c0,0,13.3407,3.0427,24.9336-6.7015s6.3934-19.4884,6.3934-19.4884Z"/>
    </g>
  </g>
</svg>