<?xml version="1.0" encoding="UTF-8"?>
<svg id="Lager_2" data-name="Lager 2" xmlns="http://www.w3.org/2000/svg" viewBox="0 0 639.933 414.4723">
  <defs>
    <style>
      .cls-1 {
        fill: #78ccc5;
      }

      .cls-1, .cls-2, .cls-3, .cls-4 {
        stroke-width: 0px;
      }

      .cls-2 {
        fill: #37394e;
      }

      .cls-3 {
        fill: #d6663e;
      }

      .cls-4 {
        fill: #b6b6b6;
      }
    </style>
  </defs>
  <g id="Layer_1" data-name="Layer 1">
    <path class="cls-4" d="m200.3994,407.4073c0,3.9009-29.6206,7.065-66.1575,7.065s-66.1575-3.1641-66.1575-7.065,29.6192-7.0641,66.1575-7.0641,66.1575,3.164,66.1575,7.0641Z"/>
    <path class="cls-4" d="m582.4584,407.4073c0,3.9009-29.6205,7.065-66.1567,7.065s-66.1581-3.1641-66.1581-7.065,29.6191-7.0641,66.1581-7.0641,66.1567,3.164,66.1567,7.0641Z"/>
    <path class="cls-2" d="m134.2419,407.9245c-68.1715,0-123.6321-55.4613-123.6321-123.6321s55.4606-123.6313,123.6321-123.6313,123.6314,55.4604,123.6314,123.6313-55.4597,123.6321-123.6314,123.6321h0Zm0-237.3399c-62.6997,0-113.7085,51.0096-113.7085,113.7078s51.0088,113.7084,113.7085,113.7084,113.7078-51.0094,113.7078-113.7084-51.0088-113.7078-113.7078-113.7078h0Z"/>
    <path class="cls-3" d="m134.2419,395.4169c-61.2729,0-111.1237-49.8501-111.1237-111.1245s49.8508-111.1237,111.1237-111.1237,111.1238,49.8501,111.1238,111.1237-49.8509,111.1245-111.1238,111.1245h0Zm0-217.2861c-58.5388,0-106.1623,47.6243-106.1623,106.1616s47.6235,106.1624,106.1623,106.1624,106.1624-47.6243,106.1624-106.1624-47.6235-106.1616-106.1624-106.1616h0Z"/>
    <path class="cls-2" d="m516.3017,407.9245c-68.1723,0-123.6327-55.4613-123.6327-123.6321s55.4604-123.6313,123.6327-123.6313,123.6313,55.4604,123.6313,123.6313-55.4604,123.6321-123.6313,123.6321h0Zm0-237.3399c-62.6997,0-113.7084,51.0096-113.7084,113.7078s51.0087,113.7084,113.7084,113.7084,113.707-51.0094,113.707-113.7084-51.0087-113.7078-113.707-113.7078h0Z"/>
    <path class="cls-3" d="m516.3017,395.4169c-61.2744,0-111.1245-49.8501-111.1245-111.1245s49.8501-111.1237,111.1245-111.1237,111.1231,49.8501,111.1231,111.1237-49.8501,111.1245-111.1231,111.1245h0Zm0-217.2861c-58.5395,0-106.163,47.6243-106.163,106.1616s47.6235,106.1624,106.163,106.1624,106.1617-47.6243,106.1617-106.1624-47.6236-106.1616-106.1617-106.1616h0Z"/>
    <path class="cls-1" d="m520.919,279.5566c-30.7383-29.9715-45.4659-79.7065-46.188-82.1983l-16.418-67.0122c-.0601-.4109-.1582-.813-.2959-1.2078l-18.5714-75.8057,21.9815-15.5991c1.3551-.966,13.1308-9.7404,9.7413-20.3349-3.4863-10.8889-20.4258-15.7449-54.9302-15.7449-3.6534,0-6.6168,2.9619-6.6168,6.6159s2.9634,6.6153,6.6168,6.6153c35.8784,0,41.6499,5.7027,42.2826,6.5084-.2079,1.1271-2.3613,3.8151-4.7635,5.5582l-25.6364,18.1934c-2.2132,1.5703-3.2416,4.333-2.5956,6.969l10.1703,41.5129c-5.3671,9.1664-64.8075,106.982-155.857,110.0076l-35.2157-156.9967c-.8013-3.5648-4.3455-5.8104-7.9035-5.0069-3.5662.7998-5.8081,4.3374-5.0083,7.9028l14.1064,62.8953-117.0058,168.0841c-.0711.1019-.1113.2132-.1766.3165-.1171.189-.2256.3816-.3244.5823-.0981.2043-.1839.4094-.26.6189-.0696.1896-.1303.3801-.1824.5771-.0645.241-.1099.4798-.1473.7237-.0145.1083-.0511.2066-.063.3164-.0079.0841.0066.1648,0,.249-.0124.2431-.0094.4834.0038.7243.0094.203.0205.4029.0483.6021.0307.2147.079.4241.1311.6342.0513.2081.1011.4131.1707.6123.0709.2022.1603.3941.249.5882.0886.1905.1758.3795.2812.5604.1077.186.2337.3603.3596.5361.126.1728.252.3435.3927.5038.1362.1517.2826.293.4327.4344.1745.1634.3509.3201.5429.4637.0681.0519.1215.1164.1926.1654.126.0872.2577.1502.3874.2279.1194.0717.2358.1479.3618.2124.3458.1794.701.3346,1.0628.4474.0028.0015.0066.0036.0094.0036.3926.1217.7919.1935,1.1939.2396.0403.0051.0777.0198.1194.0241l160.4319,15.7127c.1999.0198.3991.0279.5962.03.0146,0,.027.003.0417.003.003,0,.0066-.0008.0095-.0008h.0052c.4373,0,.8657-.0475,1.2824-.1303.0337-.0074.066-.0176.0982-.0249.0198-.0036.0389-.0023.0585-.0066.1115-.0249.2096-.0755.3194-.1055.249-.0696.4995-.1354.7368-.2337.0513-.0219.1033-.0409.1554-.0637.1354-.06.2563-.1398.3874-.2079.2-.1047.3969-.2073.5844-.3311.06-.0388.123-.0675.1809-.1084.11-.0777.2007-.1728.3054-.2564.173-.1384.3407-.2812.4988-.4365.0696-.0666.1473-.123.2139-.1926.003-.0037.0081-.0066.0109-.0103l148.7264-159.6848,13.6714,55.8018c.0176.0725.0351.1436.0557.2153.627,2.2332,15.7573,55.0737,49.7152,88.1829,1.2863,1.2553,2.9532,1.8793,4.6187,1.8793,1.7197,0,3.4395-.6679,4.7374-1.9972,2.5502-2.6163,2.496-6.8043-.1201-9.3545Zm-234.7025,12.9726l-140.0968-13.7197,103.6281-148.8641,36.4687,162.5838Zm12.167-6.2139l-15.6057-69.5712c41.3247-2.1255,82.3462-22.3404,119.0845-58.8076,17.814-17.6837,30.7251-35.2119,38.2163-46.4253l4.396,17.9487-146.0911,156.8554Z"/>
    <path class="cls-3" d="m281.4419,53.5656h-55.6845c-21.7706,0-35.1542-19.3403-35.7144-20.1636-2.565-3.7785-1.5828-8.9208,2.1964-11.4866,3.767-2.559,8.8932-1.5871,11.4662,2.1651.1794.2556,9.1948,12.9455,22.0518,12.9455h55.6845c4.5681,0,8.2698,3.7024,8.2698,8.2698s-3.7017,8.2698-8.2698,8.2698h0Z"/>
    <path class="cls-2" d="m304.5651,284.6718l13.1105-42.7536-9.4878-2.9093-13.1118,42.7566c-.1356-.0022-.2667-.0198-.4022-.0198-10.0854,0-18.2614,8.1761-18.2614,18.2594,0,6.435,3.3369,12.0805,8.3686,15.3331l-13.1125,42.7545,9.4878,2.9084,13.1118-42.7572c.1377.0028.268.0204.4057.0204,10.0833,0,18.2579-8.1761,18.2579-18.2592,0-6.4352-3.3369-12.0813-8.3666-15.3333Z"/>
    <path class="cls-3" d="m329.4068,246.2518h-32.9481c-3.197,0-5.789-2.5912-5.789-5.7883s2.592-5.789,5.789-5.789h32.9481c3.1962,0,5.7889,2.592,5.7889,5.789s-2.5927,5.7883-5.7889,5.7883h0Z"/>
    <path class="cls-3" d="m292.8875,365.3356h-32.9466c-3.1962,0-5.7884-2.5912-5.7884-5.7891s2.5922-5.7883,5.7884-5.7883h32.9466c3.1962,0,5.7883,2.5914,5.7883,5.7883s-2.5921,5.7891-5.7883,5.7891h0Z"/>
    <path class="cls-1" d="m267.7632,270.7264c-7.1178-68.5348-64.5198-120.2167-133.5183-120.2167C60.2219,150.5097,0,210.7302,0,284.7531c0,1.8399,1.4927,3.331,3.3326,3.331s3.3303-1.4911,3.3303-3.331c0-36.846,15.72-70.0745,40.7812-93.3852l85.5798,91.954c.0161.0162.0374.0227.0521.0374.1164.1128.2505.1977.3925.2746.0498.0272.093.0696.1451.0909.1954.0798.4071.1281.6298.1281h.0015c.0491,0,.0974-.0015.1443-.0058.0687-.0059.1223-.0425.1868-.0557.1215-.0249.2409-.052.3559-.1047.093-.0432.1743-.1018.2577-.1611.0617-.0439.1326-.0667.189-.1188.0279-.0241.0374-.0577.0615-.0841.0777-.0813.1341-.1743.1941-.2703.0564-.0915.1143-.1772.1517-.2747.0358-.0922.0483-.1882.0681-.2856.0205-.1194.0417-.2322.0388-.3516,0-.0351.014-.0637.011-.0981l-10.8588-124.5022c3.0417-.2175,6.1024-.3684,9.1999-.3684,65.5745,0,120.1253,49.1148,126.8913,114.2431.189,1.8296,1.8011,3.1619,3.6585,2.97,1.8303-.1905,3.1574-1.828,2.9685-3.6585Zm-135.5985,6.7808l-82.248-88.3748c19.5587-17.2683,44.4177-28.6573,71.8059-31.3381l10.4421,119.7129Z"/>
    <path class="cls-3" d="m294.6738,262.7914h-.0132s-158.2089.6944-158.6455.6944c-10.0847,0-18.2607,8.1745-18.2607,18.2599,0,8.4522,5.7495,15.5421,13.5475,17.6229.2462.1706,152.6148,36.2636,152.6148,36.2636.0096.003.0191.0015.0293.0037,3.3978,1.0254,6.9984,1.5828,10.7278,1.5828,20.5188,0,37.2129-16.6933,37.2129-37.2136s-16.6941-37.2137-37.2129-37.2137Zm0,69.4652c-17.7846,0-32.2522-14.4677-32.2522-32.2515s14.4661-32.2508,32.2486-32.2515h.0036c17.7833.0007,32.2515,14.4675,32.2515,32.2515s-14.4682,32.2515-32.2515,32.2515Z"/>
    <path class="cls-2" d="m154.2729,281.7457c0,10.0848-8.1738,18.2594-18.2578,18.2594s-18.2607-8.1746-18.2607-18.2594,8.176-18.2599,18.2607-18.2599,18.2578,8.1745,18.2578,18.2599Z"/>
    <path class="cls-3" d="m417.8921,16.5394h-45.0762c-4.5674,0-8.2704-3.703-8.2704-8.2698s3.703-8.2696,8.2704-8.2696h45.0762c4.5673,0,8.269,3.7023,8.269,8.2696s-3.7017,8.2698-8.269,8.2698h0Z"/>
    <path class="cls-1" d="m516.3017,156.9558c1.8267,0,3.3076-1.481,3.3076-3.3077s-1.4809-3.3084-3.3076-3.3084c-73.8618,0-133.9526,60.0909-133.9526,133.9527,0,1.8267,1.481,3.3083,3.3077,3.3083s3.3075-1.4816,3.3075-3.3083c0-3.1047.1524-6.1743.3721-9.2241l126.8247,10.8728c.0455.0036.0923.0051.1362.0051h.0059c.2373,0,.46-.0608.6666-.153.06-.0264.1083-.0696.1654-.1034.1479-.0879.2769-.1918.3926-.3214.0264-.0308.066-.0419.0894-.0741.0292-.0387.0366-.0857.0615-.1259.063-.099.1113-.2029.1524-.3165.0351-.0951.0643-.186.0805-.2848.0074-.047.0338-.0857.0366-.1334.0059-.06-.019-.1143-.019-.1735-.0029-.1143-.0132-.2226-.0381-.3341-.0234-.1039-.0572-.1992-.1011-.295-.041-.096-.0879-.1832-.1494-.2703-.0644-.0945-.1391-.1743-.2211-.2535-.044-.0402-.0689-.0938-.1173-.1311l-101.2851-77.0127c23.3277-29.8001,59.5942-49.0077,100.2846-49.0077Zm-5.5415,125.2015l-121.1748-10.3885c2.3072-23.5152,11.0361-45.17,24.4058-63.1905l96.769,73.579Z"/>
  </g>
</svg>