<?xml version="1.0" encoding="UTF-8"?>
<svg xmlns="http://www.w3.org/2000/svg" viewBox="0 0 1664.1694 966.4405">
  <defs>
    <style>
      .cls-1 {
        opacity: .5;
      }

      .cls-1, .cls-2, .cls-3, .cls-4, .cls-5, .cls-6, .cls-7, .cls-8, .cls-9, .cls-10, .cls-11, .cls-12, .cls-13, .cls-14, .cls-15, .cls-16, .cls-17, .cls-18, .cls-19, .cls-20, .cls-21, .cls-22 {
        stroke-width: 0px;
      }

      .cls-1, .cls-2, .cls-23, .cls-7, .cls-8 {
        mix-blend-mode: screen;
      }

      .cls-1, .cls-18 {
        fill: #aeab95;
      }

      .cls-2 {
        fill: #99a5ad;
        opacity: .2;
      }

      .cls-3 {
        fill: #f0eee9;
      }

      .cls-3, .cls-4, .cls-5, .cls-6 {
        mix-blend-mode: multiply;
      }

      .cls-4 {
        fill: #eaeae9;
      }

      .cls-5 {
        fill: #eeeded;
      }

      .cls-6 {
        fill: #e1e0dc;
      }

      .cls-23, .cls-7, .cls-8 {
        opacity: .3;
      }

      .cls-7 {
        fill: #aeaa8c;
      }

      .cls-8 {
        fill: #767f74;
      }

      .cls-24 {
        fill: none;
        stroke: #ededed;
        stroke-miterlimit: 10;
        stroke-width: 24.9451px;
      }

      .cls-25 {
        isolation: isolate;
      }

      .cls-9 {
        fill: #f4b050;
      }

      .cls-10 {
        fill: #f7bf57;
      }

      .cls-11 {
        fill: #fad267;
      }

      .cls-12 {
        fill: #797977;
      }

      .cls-13 {
        fill: #524743;
      }

      .cls-14 {
        fill: #c3bdba;
      }

      .cls-15 {
        fill: #e25c56;
      }

      .cls-16 {
        fill: #dadada;
      }

      .cls-17 {
        fill: #afaba8;
      }

      .cls-19 {
        fill: #9ea59d;
      }

      .cls-20 {
        fill: #9d7336;
      }

      .cls-21 {
        fill: #98d2ce;
      }

      .cls-22 {
        fill: #fff;
      }
    </style>
  </defs>
  <g class="cls-25">
    <g id="Lager_2" data-name="Lager 2">
      <g id="Capa_1" data-name="Capa 1">
        <path class="cls-24" d="m226.0284,955.3918s141.3566-74.0411,282.7107-95.6636"/>
        <path class="cls-24" d="m1171.7023,855.3948s158.6526,28.4674,288.1383,89.1494"/>
        <path class="cls-24" d="m686.2272,836.5956c111.8779-16.575,211.6584-16.7771,298.4525,0"/>
        <g>
          <path class="cls-6" d="m134.4219,869.2825c-42.8598,44.0292-37.5978,85.0764,27.9899,89.0202,106.5626,6.4119,222.09-37.5808,324.9348-59.5904,162.4846-34.777,327.5635-55.9754,493.8308-41.359,143.5248,12.6182,280.6232,67.7779,423.3413,78.4744,64.4847,4.8333,140.6696-26.0243,85.3932-97.99-52.7744-68.7084-158.8446-79.6024-238.1796-86.3556-83.42-7.1009-163.7752-19.1688-246.2139-33.388-209.0153-36.0562-406.5129,21.6683-612.8755,45.9898-85.4615,10.0734-196.5502,41.849-258.221,105.1986Z"/>
          <g>
            <path class="cls-11" d="m1380.5505,374.1411c-.2849,3.1206-.6137,6.2872-.9449,9.4517-.2899,2.6701-.5339,5.3812-.8238,8.0952-2.955,28.7622-7.3543,57.2346-9.9002,85.9998-6.0412,69.1155-12.6966,138.1896-18.6989,207.3001-2.5873,29.5859-26.7062,51.2787-53.8271,48.6919-246.7447-23.5028-490.6148-32.4212-735.1819-26.7502-90.0265,2.0949-180.0994,6.2044-270.499,12.2436-59.5785,3.9877-119.3251,8.7942-179.1909,14.5066-27.1203,2.5868-51.2373-19.106-53.8291-48.6919-9.4517-108.889-28.5971-217.7775-38.0074-326.6665-4.2751-49.1035-29.9975-209.9293-14.9985-250.2381C35.2186,25.9859,162.763,22.0006,222.4263,17.3159c106.833-8.3436,218.1067-13.3132,331.3906-15.7808,171.2663-3.6589,342.6104-.7378,513.7086,8.3412,60.4046,3.2059,121.0108,3.7807,181.2907,10.234,43.7198,4.6817,104.4094,7.6003,131.5272,52.058,3.1231,5.1377,5.4665,10.5628,7.1912,16.151.9868,3.162,1.7661,6.368,2.3847,9.6567,3.7787,19.106,2.1783,39.773,2.4656,59.1275,1.1106,72.8941-4.6019,144.7187-11.8344,217.0376Z"/>
            <path class="cls-1" d="m65.5523,584.0186c-13.3276-72.3235-26.9207-143.5219-34.3095-216.8301-4.1703-41.374-7.6317-82.8134-11.3785-124.2263-3.3301-36.811-9.5664-74.2921-5.3861-111.2373,4.0511-35.7803,20.1167-59.9826,42.933-80.5014-23.7881,12.8282-43.1131,30.9449-52.7624,56.8599-14.999,40.3088,10.7234,201.1346,14.9985,250.2381,9.4103,108.889,28.5557,217.7775,38.0074,326.6665,2.2336,25.5273,20.5064,45.1377,42.8937,48.3896-22.7769-45.6881-25.8731-99.8414-34.9961-149.359Z"/>
            <path class="cls-1" d="m1135.8177,27.6302c-45.4859-3.6175-62.716-5.5298-108.2284-7.9465-153.2324-8.1291-306.6864-10.7428-460.0675-7.4715-101.4564,2.2096-201.1102,6.6628-296.7883,14.1344-18.0852,1.4198-69.7151,10.0144-86.3046,27.8293,14.8578-3.1985,29.8443-5.5029,44.558-7.1109,84.3579-9.2132,179.0955-9.5565,263.658-14.2437,110.6576-6.1315,202.4477-6.1315,306.9229-2.4506,45.9999,1.62,238.499,2.5409,287.0392,3.6784,18.3362.4286,60.7554,3.4445,102.8039,7.7245-7.6297-5.8636-34.1754-9.9536-53.5932-14.1434Z"/>
            <g>
              <path class="cls-13" d="m404.4749,376.2285c18.4823-29.9826,10.6016-176.0408.7089-228.4161-6.7357-35.6366-27.0061-52.5744-63.9244-51.8659-39.4542.7653-78.7747,4.6922-117.8243,9.9002-34.1245,4.548-70.694,7.6178-102.3798,21.3106-31.5272,13.6201-36.9089,37.732-34.5505,68.2534,4.6652,60.492,15.1227,120.1577,21.1764,180.4621,3.2399,32.2266,21.0282,41.3401,53.403,40.5727,44.1998-1.0526,111.3371-.7892,155.1128-6.9991,40.3632-5.7174,69.0157-1.9606,88.2779-33.2179Z"/>
              <path class="cls-21" d="m394.421,368.3942c17.2695-28.0288,9.9077-164.5475.6555-213.5049-6.2896-33.3082-25.2399-49.1349-59.7416-48.4723-36.8843.7089-73.6345,4.3823-110.1337,9.2496-31.8954,4.2532-66.0802,7.1228-95.6955,19.9147-29.4637,12.738-34.4967,35.2739-32.2945,63.8002,4.3579,56.5431,14.1389,112.3114,19.8,168.6765,3.0233,30.1192,19.6492,38.643,49.9097,37.9271,41.3131-.9844,104.0706-.7359,144.9841-6.5432,38.2094-5.4205,64.5041-1.8319,82.516-31.0477Z"/>
            </g>
            <g>
              <path class="cls-13" d="m845.7917,374.5038c26.4114-30.677,30.7942-178.4769,22.8527-236.9638-5.4056-39.793-29.8054-60.6361-77.072-64.0342-50.5209-3.6275-101.152-3.7757-151.5486-2.4825-44.0442,1.116-91.0817.3437-132.8259,11.7566-41.5346,11.3546-50.5867,37.1568-50.3138,70.8477.5233,66.7841,8.5262,125.1009,10.8451,191.8311,1.2398,35.664,23.1691,47.6616,64.6334,50.48,56.6109,3.844,141.2149,4.3045,197.5609,4.96,57.8268.6721,92.5599.6746,115.8682-26.3949Z"/>
              <path class="cls-21" d="m833.6334,364.7817c24.6089-28.7453,28.877-165.963,21.4518-220.6327-5.0498-37.1912-27.8562-56.6749-72.029-59.8489-47.2277-3.3935-94.5505-3.5277-141.6565-2.3244-41.1639,1.0502-85.1372.3243-124.1554,10.9918-38.8161,10.6112-47.2815,34.7257-47.028,66.2189.4899,62.4192,7.9759,116.3945,10.1461,178.7693,1.1575,33.3327,21.6544,44.5505,60.4117,47.1842,52.9086,3.5931,131.8924,4.2482,184.56,4.3065,57.4592.0659,82.6477,5.2964,108.2993-24.6647Z"/>
            </g>
            <g>
              <path class="cls-13" d="m1393.7928,156.9817c-.3068-19.3544,1.4129-40.0214-2.6501-59.1299-.6631-3.2863-1.5032-6.4947-2.5629-9.6543-36.5895-1.81-74.6842-3.9463-109.5954,2.5459-39.0207,7.274-49.1864,29.091-51.3057,58.3896-4.2876,57.978-1.5905,116.2408-4.1997,174.3455-1.413,31.0208,17.944,42.8134,55.9025,47.8682,28.4165,3.7393,64.9621,8.0977,100.6696,12.1244.3532-3.1671.7089-6.3316,1.0157-9.4542,7.7785-72.3165,13.9199-144.141,12.726-217.0352Z"/>
              <path class="cls-21" d="m1381.0668,374.0169c-33.1007-3.8201-66.8594-8.0513-93.1566-11.5446-35.4859-4.6847-53.5617-15.698-52.2775-44.7062,2.4332-54.3215-.0439-108.7648,3.8855-163.0035,2.0365-27.3663,11.5391-47.749,47.9949-54.5675,33.0134-6.124,69.0716-4.0266,103.6296-2.3433,4.063,19.1085,2.3433,39.7755,2.6501,59.1299,1.1939,72.8942-4.9475,144.7187-12.726,217.0352Z"/>
              <path class="cls-2" d="m1393.3398,213.0818c.5678-18.6479.7599-37.3398.453-56.1001-.3068-19.3544,1.4129-40.0214-2.6501-59.1299-34.558-1.6833-70.6162-3.7807-103.6296,2.3433-29.9391,5.6032-41.6858,20.3608-46.0607,40.6112,53.3127,20.2659,105.5394,41.8465,151.8874,72.2755Z"/>
              <path class="cls-2" d="m1391.2888,255.727c.4625-7.8342.9549-15.666,1.3007-23.5127-46.3286-32.0461-99.5052-54.0072-153.247-74.4578-.3582,5.2595-.6186,10.5214-.8695,15.7833,52.9815,23.2788,105.5368,48.889,152.8158,82.1872Z"/>
            </g>
            <g>
              <path class="cls-12" d="m1227.4597,32.3144c11.0522,0,20.007,6.4045,20.007,14.3071,0,7.8951-8.9548,14.3045-20.007,14.3045s-20.0075-6.4094-20.0075-14.3045c0-7.9026,8.9573-14.3071,20.0075-14.3071Z"/>
              <path class="cls-15" d="m1227.4597,36.3855c8.4165,0,15.235,4.5819,15.235,10.236,0,5.649-6.8185,10.2315-15.235,10.2315-8.4095,0-15.233-4.5825-15.233-10.2315,0-5.6541,6.8235-10.236,15.233-10.236Z"/>
              <path class="cls-1" d="m1220.3753,40.3193c3.384,0,6.1295,1.8445,6.1295,4.1195s-2.7455,4.1144-6.1295,4.1144-6.1291-1.8389-6.1291-4.1144,2.7455-4.1195,6.1291-4.1195Z"/>
            </g>
            <g>
              <path class="cls-12" d="m131.613,67.0964c10.9624-1.4054,20.6601,3.8052,21.6664,11.6419,1.0083,7.8318-7.0625,15.3278-18.0219,16.7382-10.9599,1.4054-20.66-3.8101-21.6663-11.6419-1.0038-7.8367,7.0619-15.3278,18.0218-16.7382Z"/>
              <path class="cls-15" d="m132.1319,71.1331c8.3481-1.0717,15.6955,2.6067,16.4164,8.2119.7189,5.6052-5.4615,11.0183-13.8096,12.0899-8.3412,1.0721-15.693-2.6038-16.4119-8.2069-.7185-5.6102,5.4639-11.0228,13.8051-12.0949Z"/>
              <path class="cls-1" d="m125.6058,75.9395c3.3571-.4311,6.3166,1.0472,6.6039,3.3032.2924,2.2556-2.1971,4.4338-5.5563,4.8648-3.3546.4311-6.3121-1.0477-6.5994-3.3032-.2899-2.256,2.1946-4.4338,5.5518-4.8648Z"/>
            </g>
            <g>
              <g class="cls-23">
                <path class="cls-18" d="m1092.4247,685.3512h-.0025c-39.323,0-86.7627-3.0503-107.0181-4.3509l-.4241-.0245c-19.0157-1.2178-45.5707-4.3898-56.5526-17.8123-7.932-9.7027-7.8248-24.0022-7.737-35.4954.012-1.5372.027-3.0209.0145-4.4288l-3.5003-493.736c-.2634-35.464-.4705-63.4714,42.7574-71.4908,11.1864-2.0729,23.2933-3.0378,38.1072-3.0378,8.9184,0,17.9655.3462,26.7138.6775l4.531.1706c27.7949,1.0278,68.2045,1.3566,89.8195,1.4638l1.2861.0025c2.5943,0,5.3228-.0389,8.1461-.0728,3.0598-.0414,6.2263-.0828,9.4542-.0828,23.4424,0,46.9697,2.3089,60.263,19.084l.5897.7648c13.9977,18.4529,10.7698,43.0763,7.9195,64.801-.6575,5.0159-1.2791,9.754-1.6688,14.2486-6.1046,70.3847-11.0716,133.924-16.3311,201.1955-1.7811,22.7624-3.5906,45.905-5.4814,69.8174-1.9926,25.1228-3.6051,47.1982-5.1497,68.3188-3.0423,41.6005-5.912,80.894-10.9205,132.4457-.1681,1.7222-.3168,3.7223-.4824,5.9119-1.1475,15.2305-2.8797,38.2439-15.0015,45.2525-4.7281,2.738-16.0293,6.3775-59.332,6.3775ZM998.0692,63.4569c-14.2801,0-25.9.921-36.5625,2.8992-36.2388,6.7187-36.0807,27.934-35.8198,63.0812l3.5003,493.7435c.01,1.4493-.0025,2.972-.0144,4.5525-.0754,10.1292-.1682,22.731,5.8197,30.0589,9.9172,12.1169,40.4844,14.073,50.5308,14.7161l.4241.029c20.1751,1.2961,67.4222,4.3314,106.4748,4.3314,40.0584,0,51.7073-3.2812,55.0889-5.2399,8.2433-4.7675,9.8977-26.7407,10.7892-38.5433.1681-2.258.3238-4.3239.4969-6.095,4.9985-51.4494,7.8682-90.6966,10.9035-132.2482,1.5446-21.1325,3.1596-43.2229,5.1522-68.3701,1.8928-23.9074,3.7004-47.045,5.4814-69.8074,5.262-67.2885,10.229-130.8448,16.3386-201.2689.4066-4.6747,1.0402-9.505,1.7097-14.6163,2.6362-20.1043,5.6252-42.8937-6.2677-58.5697l-.4969-.6431c-11.0377-13.9318-32.2825-15.8511-53.5981-15.8511-3.1885,0-6.3191.0414-9.3444.0828-2.8602.0339-5.6277.0729-8.2559.0729l-1.3301-.0025c-21.6638-.1073-62.1752-.4386-90.0873-1.4688l-4.5435-.1731c-8.6674-.3288-17.6322-.6701-26.3895-.6701Z"/>
              </g>
              <g>
                <path class="cls-13" d="m945.9499,214.0826c.0728,11.4593.1511,22.9211.224,34.3779,0,35.3593.4655,70.723.6969,106.0802.034,4.8962-1.362,21.0692.9595,25.028,3.7297,6.3555,25.9808,6.2188,31.7247,6.7376,11.4617,1.0402,22.9405,1.8834,34.4287,2.5315,23.0184,1.3006,46.0802,1.822,69.135,1.5221,12.9794-.1676,25.9564-.5892,38.9184-1.2812,7.5543-.4041,15.1232-.6939,22.6651-1.1864,4.331-.2798,8.5238-.2289,12.6891-2.7818,4.4457-2.7235,5.1377-6.6454,5.7224-11.3226,1.9782-15.8661,1.6005-32.1244,3.0453-48.0758,2.8548-31.5102,4.7426-63.1566,6.9861-94.7206,1.3132-18.4799,2.8747-36.9478,4.351-55.4177,1.7197-21.5346,8.8111-49.5859-4.4847-68.6285-.1461-.2095-.2948-.4191-.4435-.6236-13.62-18.665-43.2518-15.5104-62.957-15.6197-20.6651-.1122-52.6991-.4385-74.6623-1.3181-19.0012-.7673-37.9999-1.8734-56.7966,1.9098-33.3546,6.7212-32.8162,29.8124-32.6017,61.7342.1317,20.3533.2679,40.704.3996,61.0547Z"/>
                <path class="cls-21" d="m956.6683,215.8637c.0683,10.6501.1392,21.3082.2045,31.9607,0,32.7186.4216,65.4471.6287,98.1656.0319,4.6942.0633,9.3839.0928,14.0756.0219,3.8365-1.2403,10.2729,3.0792,12.4625,4.102,2.0855,10.0289,1.7542,14.6403,2.2316,6.5286.6701,13.0647,1.2667,19.6103,1.7906,13.213,1.0572,26.4529,1.81,39.6977,2.3139,25.939.9794,51.9198.9529,77.8513-.1312,8.1146-.3388,16.2777-.6361,24.3704-1.3231,4.0561-.3432,8.1486-.4994,12.1922-.8766,4.4337-.4141,4.5724-5.3791,4.7211-8.8186.2949-6.8649.2754-13.6514.9893-20.4944,1.3935-13.3007,1.9343-26.6943,2.9889-40.027,2.1219-26.7501,3.861-53.5537,5.7225-80.3213,1.0836-15.6102,2.3747-31.2128,3.5931-46.811,1.5635-20.0245,8.0049-46.1021-4.0731-63.8072-.1342-.1951-.2704-.3901-.4071-.5802-12.3748-17.3518-39.2936-14.4188-57.1982-14.5236-18.7797-.0997-47.8831-.4066-67.8392-1.2253-17.2616-.7089-34.5286-1.7391-51.6026,1.7781-30.3068,6.2463-29.8174,27.7126-29.6248,57.3983.1217,18.9159.2435,37.8392.3627,56.7626Z"/>
                <path class="cls-2" d="m1081.8495,126.8725c26.6773-4.548,53.4419-8.424,80.2799-11.7347-12.5574-16.7207-39.0521-13.8855-56.7572-13.9878-18.7797-.0997-47.8831-.4066-67.8392-1.2253-17.2616-.7089-34.5286-1.7391-51.6026,1.7781-29.3424,6.0492-29.8149,26.39-29.6418,54.6189,41.861-9.5151,83.0519-22.1997,125.5609-29.4492Z"/>
                <path class="cls-2" d="m1070.6486,160.6337c33.0498-6.4847,66.3311-11.6688,99.5051-17.4571-.0633-4.1998-.4165-8.3262-1.2228-12.2825-32.7939,3.8979-65.471,8.7528-97.9485,14.7745-38.682,7.1742-76.3212,18.9503-114.587,27.6103.0439,6.5725.0828,13.1426.1267,19.7126,37.8562-11.4812,74.9696-24.6697,114.1265-32.3578Z"/>
              </g>
              <path class="cls-9" d="m960.6735,431.0833c0,3.5448-2.8772,6.4194-6.4219,6.4194h0c-3.5467,0-6.4213-2.8746-6.4213-6.4194v-28.2508c0-3.5442,2.8746-6.4214,6.4213-6.4214h0c3.5447,0,6.4219,2.8772,6.4219,6.4214v28.2508Z"/>
              <path class="cls-9" d="m1091.5791,677.2999c-.0045,0-.0025,0-.0025,0-38.202,0-84.2702-2.9814-103.9434-4.2556-18.86-1.2204-44.6553-4.3265-55.3203-17.4591-7.6956-9.4787-7.5908-23.4619-7.508-34.6992.012-1.5032.0219-2.9575.0144-4.336l-3.4005-483.0321c-.2534-34.6797-.4555-62.0729,41.5247-69.9147,10.8651-2.0315,22.6262-2.9764,37.0086-2.9764,8.6674,0,17.4641.3382,25.9659.665l4.3823.1656c26.7747.9988,66.1341,1.3251,87.2132,1.4299l1.2103.005c2.529,0,5.1842-.0344,7.9321-.0734,2.9864-.0389,6.0731-.0828,9.2202-.0828,22.76,0,45.6007,2.2655,58.5138,18.6794l.5653.7264c13.5956,18.0653,10.458,42.1458,7.6955,63.3906-.6405,4.9062-1.2422,9.542-1.6223,13.9369-5.9315,68.8889-10.7574,131.0762-15.8682,196.9153-1.7227,22.2436-3.4788,44.8574-5.3158,68.219-1.9342,24.5994-3.5028,46.2094-5.001,66.8819-2.9525,40.687-5.7419,79.1205-10.6017,129.5321-.1606,1.6808-.3093,3.6395-.4679,5.7828-1.1131,14.8917-2.7939,37.3982-14.5575,44.2556-4.5969,2.6801-15.5788,6.2438-57.6372,6.2438Zm-91.627-608.4028c-13.861,0-25.1377.8985-35.4909,2.8327-35.1787,6.5726-35.028,27.3329-34.7771,61.7273l3.4036,483.0365c.0094,1.4154,0,2.9086-.0125,4.4557-.0753,9.9122-.1681,22.2506,5.6541,29.4273,9.6223,11.842,39.2985,13.7612,49.0501,14.3924,19.9825,1.2936,65.8606,4.2631,103.7952,4.2631,38.889,0,50.1946-3.2085,53.4758-5.1183,8.0074-4.6697,9.6149-26.1729,10.4775-37.727.1656-2.2096.3168-4.2292.4849-5.9634,4.8474-50.3168,7.6342-88.6989,10.5842-129.3345,1.5007-20.6895,3.0698-42.3144,5.0065-66.9333,1.834-23.3566,3.5881-45.9704,5.3153-68.2089,5.1108-65.8587,9.9367-128.0634,15.8706-196.9863.3952-4.5749,1.0088-9.296,1.6594-14.297,2.5624-19.6763,5.4665-41.9782-6.0901-57.3304l-.458-.5917c-10.7409-13.6565-31.3495-15.5349-52.0246-15.5349-3.1106,0-6.1629.039-9.1059.0804-2.7869.0369-5.4835.0758-8.0439.0758l-1.2517-.005c-21.1305-.1073-60.5922-.4385-87.4836-1.4373l-4.3923-.1682c-8.426-.3213-17.1348-.655-25.6466-.655Z"/>
            </g>
            <path class="cls-7" d="m575.9238,694.3354c0,3.8146-.1362,7.5833-.4555,11.3057-99.4907,2.3189-199.0278,6.8599-298.93,13.5322-1.4054-8.0807-2.1338-16.39-2.1338-24.8379,0-81.6933,64.0341-151.0278,147.3149-151.0278s154.2044,69.3345,154.2044,151.0278Z"/>
            <path class="cls-20" d="m561.5828,696.6982c0,3.4519-.1217,6.8624-.4091,10.2315-90.0265,2.0949-180.0994,6.2044-270.499,12.2436-1.2717-7.3109-1.9293-14.8309-1.9293-22.4751,0-73.9219,61.0597-133.873,136.419-133.873s136.4184,59.9511,136.4184,133.873Z"/>
            <path class="cls-13" d="m263.3717,715.0414c.7598,9.5081-5.9659,17.8103-15.0259,18.5362l-190.747,15.3203c-9.0625.7234-17.0255-6.3969-17.7908-15.905l-4.9571-61.6903c-.7629-9.5106,5.9634-17.8078,15.0279-18.5337l190.7474-15.3204c9.0596-.7259,17.0281,6.3875,17.7904,15.9001l4.9551,61.6928Z"/>
            <path class="cls-7" d="m126.0273,654.1089c17.9635-1.3545,35.9584-1.8614,53.9314-2.9894,17.0719-1.0692,34.4338-4.3505,51.5471-3.861,11.4763.3287,20.1093,2.2191,26.9767,6.9063l-.0659-.8162c-.7623-9.5126-8.7308-16.626-17.7904-15.9001l-190.7474,15.3204c-9.0645.7259-15.7908,9.0231-15.0279,18.5337l.1656,2.0485c14.8743-22.5335,69.113-17.5908,91.0108-19.2422Z"/>
            <path class="cls-4" d="m260.2147,675.6969c-14.4897,31.2667-61.7053,38.9379-91.876,42.4262-39.8732,4.6094-92.489,9.8688-130.4161-8.5941l1.8854,23.4639c.7653,9.5081,8.7283,16.6284,17.7908,15.905l190.747-15.3203c9.06-.7259,15.7857-9.0281,15.0259-18.5362l-3.157-39.3445Z"/>
            <path class="cls-11" d="m1377.783,400.7451c32.312,0,78-3.0014,111.9074-5.23,72.9939-4.7945,146.0947-15.3378,153.7024,59.8289,9.3544,92.4192,13.2424,204.0462-27.8487,265.6806-26.4603,39.6927-130.0609,23.3202-199.62,19.9267-53.7388-2.6187-111.6364-7.1962-159.3804-11.0647l121.2393-329.1415Z"/>
            <path class="cls-3" d="m1575.802,542.3382c-1.6464,2.75-4.7087,4.3869-8.6988,2.8453-18.4485-7.1278-37.1813-13.5422-55.7051-20.4555-.5262.1092-1.0721.1921-1.6613.207-24.117.6162-45.1816-8.9333-67.7245-16.0856-27.0406-8.5821-57.0136-17.8582-85.5638-18.1945-43.5273-.5143-93.213,3.5612-131.4275,26.4578-31.9148,19.118-51.5007,48.3871-64.9132,82.3968-16.3949,41.5666-24.7066,78.1581-74.5211,87.1009-62.0465,11.1355-124.2656,2.8822-186.7427,2.2291-47.5564-.4994-97.2766-.2484-144.8205-1.3715-98.1511-2.3214-190.2944.5433-288.3552,7.7759-72.0975,5.3178-152.8523,19.313-215.7171-24.972,3.3596,9.7834,2.8528,21.82,2.3923,31.0646-.3408,6.8086-.8182,13.7368-1.5661,20.6456,13.3053-.9723,26.609-1.9198,39.8973-2.8088,90.3996-6.0392,180.4725-10.1487,270.499-12.2436,244.5671-5.671,488.4372,3.2474,735.1819,26.7502,2.7116.2579,5.3817.2095,8.0174,0,36.0727,2.7744,74.7865,5.4809,111.5511,7.2715,69.5591,3.3935,173.1597,19.766,199.62-19.9267,22.706-34.0586,31.598-83.3861,33.4734-136.2947-16.2777-21.2423-45.7439-32.7819-73.2155-42.3918Z"/>
            <path class="cls-1" d="m1499.415,401.924c30.6311-.4311,67.6976-5.9245,97.1154,4.9406,20.8382,7.6951,34.9087,25.2959,46.2364,43.7707-10.1827-69.9486-81.6615-59.8124-153.0764-55.1202-32.2336,2.1168-75.0913,4.9301-107.0061,5.203,37.0989,7.9196,79.3764,1.7322,116.7307,1.2059Z"/>
            <path class="cls-20" d="m1426.9718,552.1262c-54.553-33.1037-132.1164-18.4973-177.6537,25.1472-19.9317,19.101-32.051,42.3923-46.5845,65.4101-8.3093,13.1621-17.2471,25.7564-30.0854,33.9514-.3018,16.789.697,32.7724,2.2222,46.3605,54.9057,3.7907,66.1021,5.3033,121.2543,10.5503,2.4042.2315,4.772.2045,7.1153.0633,36.3605,2.7969,75.4396,5.5349,112.538,7.3424,25.5203,1.2448,56.3485,4.1314,86.4773,5.3497,2.8602-74.6258-10.492-154.8549-75.2835-194.1749Z"/>
            <path class="cls-10" d="m1637.6949,528.2991c-14.8209-13.3616-36.0852-21.4373-55.3862-25.3228-29.3494-5.91-59.4831-7.486-89.2567-10.1412-67.2521-5.9953-140.6087-8.0218-207.1883,4.9915-60.3263,11.7856-80.2385,46.173-101.7636,107.1179-13.5053,38.229-16.9522,87.8294-9.2297,118.0509.0972-.0339,21.5565-4.7092,32.8572-56.4164,3.8171-17.4716,12.4845-34.8793,23.6245-49.0721,26.2488-33.432,75.4301-52.2261,118.7234-47.8632,40.4824,4.083,79.571,20.3093,99.7366,58.6769,18.5727,35.3278,22.945,78.1851,14.8015,115.8293,63.637,4.3703,135.5713,7.4032,156.392-23.8122,16.3799-24.553,24.3848-53.5661,28.5088-82.519,4.5485-31.9412,15.9419-84.4966-11.8195-109.5196Z"/>
            <path class="cls-1" d="m1190.0076,601.3075c11.2403-20.1097,21.8733-42.0001,37.7489-58.5118,25.681-26.7087,60.8552-35.7583,100.2775-39.7879,48.877-4.9936,209.4393-14.8474,293.9848,14.1997-53.5881-32.4526-271.9433-34.5066-336.1551-19.3809-60.3263,11.7856-80.2385,46.173-101.7636,107.1179-3.644,10.3144-6.2363,21.2059-8.0459,32.2556,4.587-14.5919,7.6712-24.6623,13.9534-35.8926Z"/>
            <g>
              <path class="cls-12" d="m1458.2945,706.5057c0,68.4699-55.503,123.9728-123.9704,123.9728s-123.9728-55.5029-123.9728-123.9728,55.5029-123.9704,123.9728-123.9704,123.9704,55.503,123.9704,123.9704Z"/>
              <path class="cls-5" d="m1330.8842,617.5069c33.3277-6.9572,74.0267-2.1827,101.9343,13.7443-22.6507-29.6054-58.3312-48.7159-98.4944-48.7159-68.4699,0-123.9728,55.503-123.9728,123.9704,0,11.347,1.5541,22.3288,4.4093,32.7699,21.0328-53.3961,57.6003-109.5421,116.1236-121.7687Z"/>
              <path class="cls-5" d="m1365.8977,814.6417c-27.0231,4.5655-59.7905,5.4276-85.2031-6.5601-21.827-10.2998-41.1231-24.3973-55.8442-43.391,20.8432,39.1349,62.0366,65.7878,109.4737,65.7878,62.548,0,114.2507-46.3311,122.7306-106.5402-14.5216,43.0668-49.2592,83.6246-91.157,90.7035Z"/>
              <path class="cls-5" d="m1405.7296,710.9733c0,38.3996-30.2585,68.8626-69.0621,68.8626s-70.2725-29.793-70.2725-68.195,31.4613-69.5271,70.2725-69.5271,69.0621,30.46,69.0621,68.8595Z"/>
              <path class="cls-17" d="m1402.826,706.5057c0,37.8317-30.6676,68.5018-68.5019,68.5018s-68.4993-30.6701-68.4993-68.5018,30.6675-68.5019,68.4993-68.5019,68.5019,30.6726,68.5019,68.5019Z"/>
              <path class="cls-14" d="m1369.2693,677.1856c0,10.5992-8.5921,19.1908-19.1938,19.1908s-19.1913-8.5916-19.1913-19.1908,8.5921-19.1937,19.1913-19.1937,19.1938,8.5941,19.1938,19.1937Z"/>
            </g>
            <g>
              <path class="cls-12" d="m549.1322,706.5057c0,68.4699-55.5029,123.9728-123.9703,123.9728s-123.9754-55.5029-123.9754-123.9728,55.505-123.9704,123.9754-123.9704,123.9703,55.503,123.9703,123.9704Z"/>
              <path class="cls-5" d="m412.6768,617.7773c40.5483-10.889,80.5628-3.4519,114.0267,17.6472-22.4212-31.9707-59.5271-52.8892-101.5416-52.8892-68.4704,0-123.9754,55.503-123.9754,123.9704,0,12.731,1.9268,25.0109,5.4885,36.57,14.3724-56.7551,45.1008-108.9449,106.0018-125.2984Z"/>
              <path class="cls-5" d="m456.7354,814.6417c-27.0255,4.5655-59.793,5.4276-85.2056-6.5601-21.827-10.2998-41.123-24.3973-55.8441-43.391,20.8426,39.1349,62.039,65.7878,109.4762,65.7878,62.5454,0,114.2507-46.3311,122.728-106.5402-14.5215,43.0668-49.2596,83.6246-91.1545,90.7035Z"/>
              <path class="cls-5" d="m496.5648,710.9733c0,38.3996-30.2584,68.8626-69.0621,68.8626s-70.2724-29.793-70.2724-68.195,31.4613-69.5271,70.2724-69.5271,69.0621,30.46,69.0621,68.8595Z"/>
              <path class="cls-17" d="m493.6607,706.5057c0,37.8317-30.6695,68.5018-68.4988,68.5018s-68.5019-30.6701-68.5019-68.5018,30.6676-68.5019,68.5019-68.5019,68.4988,30.6726,68.4988,68.5019Z"/>
              <path class="cls-14" d="m460.1045,677.1856c0,10.5992-8.5946,19.1908-19.1913,19.1908s-19.1938-8.5916-19.1938-19.1908,8.5921-19.1937,19.1938-19.1937,19.1913,8.5941,19.1913,19.1937Z"/>
            </g>
            <g>
              <path class="cls-13" d="m1656.272,673.1515c-1.0667.9839-2.6721,1.7003-5.011,2.039-7.5613,1.0597-52.3917.6845-56.9936.1532-8.1341-.8696-5.5054-10.7284-4.7256-15.9025.453-3.1376.8646-6.2338,1.2323-9.3714.4924-3.8146.904-7.6297,1.2352-11.4443.9011-8.6874,1.6006-17.4157,2.3409-26.1026.3288-3.7757.658-7.5933,1.0258-11.3665v-.1537c.9059-8.7283,1.6443-17.4152,2.4675-26.1385.1656-1.815.3677-3.625.5333-5.44.2076-2.1533.3707-4.1948.4925-6.0802.8231-11.4468,1.4398-18.3217,17.6686-20.1337,7.3982-.8331,14.7525-2.1562,22.1069-3.4763,15.5737-2.8722,15.8586.5258,16.1489,13.7876.0415,1.5107.0829,3.0184.1243,4.5705.1218,3.7757.2873,7.5539.5333,11.3321.246,5.5912.6137,11.1819.9035,16.7357.1637,3.1331.2899,6.2657.4121,9.4033.1242,3.7757.246,7.5544.2874,11.3301.2459,8.5771.4091,17.1886.7379,25.7638v.4166c.1242,2.4162.4096,6.572.6166,11.332.5358,11.2937.7818,25.9879-2.1368,28.7458Z"/>
              <path class="cls-17" d="m1655.4513,569.4242l-57.6078,5.44c.1656-1.815.3677-3.625.5333-5.44.2076-2.1533.3707-4.1948.4925-6.0802l56.0487-5.2519c.1218,3.7757.2873,7.5539.5333,11.3321Z"/>
              <path class="cls-17" d="m1657.0543,606.8933l-62.7041,5.6296c.3288-3.7757.658-7.5933,1.0258-11.3665v-.1537l61.3909-5.4395c.1242,3.7757.246,7.5544.2874,11.3301Z"/>
              <path class="cls-17" d="m1658.4088,644.4057l-67.6347,5.6641c.4924-3.8146.904-7.6297,1.2352-11.4443l65.7829-5.5518c.1242,2.4162.4096,6.572.6166,11.332Z"/>
            </g>
            <g>
              <path class="cls-13" d="m1478.2436,737.6432c.6306,9.4761,7.1912,17.1572,14.6572,17.1428,45.1522-.0809,90.4142.5503,135.5275.0239,12.5528-.1507,31.4587,3.3182,33.9947-17.493,2.4291-19.8878,3.2598-45.8222-3.8316-64.56-4.7625-12.5948-15.3717-13.8855-26.4289-14.4607-20.2534-1.0547-40.6456.9429-60.8621,1.2108-24.2507.3238-48.5772-1.8539-72.8134-.3846-29.8393,1.8075-22.0634,51.0886-20.2434,78.5208Z"/>
              <path class="cls-8" d="m1514.1945,662.8177c24.7356-.67,49.4008.709,74.129.8622,24.2631.1461,51.7905-4.3874,69.9461,8.3266-4.9012-11.8684-15.2814-13.1475-26.1071-13.7103-20.2534-1.0547-40.6456.9429-60.8621,1.2108-24.2507.3238-48.5772-1.8539-72.8134-.3846-11.0746.6695-16.9621,7.8876-19.9002,18.0922,8.8431-11.6394,21.2767-14.0072,35.6077-14.3969Z"/>
              <path class="cls-4" d="m1589.6221,738.6664c-41.0063,2.0365-95.2081,5.5443-113.6201-35.9998.1587,12.3314,1.586,25.0763,2.2416,34.9766.6306,9.4761,7.1912,17.1572,14.6572,17.1428,45.1522-.0809,90.4142.5503,135.5275.0239,12.5528-.1507,31.4587,3.3182,33.9947-17.493.8601-7.0256,1.4937-14.8209,1.6738-22.7769-19.2083,17.1448-43.9558,22.6113-74.4747,24.1264Z"/>
            </g>
            <g>
              <path class="cls-12" d="m1637.9703,472.4285c0,15.1302-8.2389,27.3958-18.4021,27.3958s-18.4045-12.2656-18.4045-27.3958,8.2389-27.3937,18.4045-27.3937,18.4021,12.2655,18.4021,27.3937Z"/>
              <path class="cls-16" d="m1631.0714,472.4285c0,9.4567-5.1521,17.1228-11.5032,17.1228s-11.5051-7.6661-11.5051-17.1228,5.1521-17.1208,11.5051-17.1208,11.5032,7.6686,11.5032,17.1208Z"/>
              <path class="cls-22" d="m1626.6477,464.4649c0,3.8072-2.0735,6.8939-4.6289,6.8939s-4.6283-3.0867-4.6283-6.8939c0-3.8026,2.073-6.8893,4.6283-6.8893s4.6289,3.0867,4.6289,6.8893Z"/>
            </g>
            <g>
              <path class="cls-12" d="m1396.9888,453.6582c0,11.0502-6.4044,20.0075-14.3045,20.0075s-14.304-8.9573-14.304-20.0075,6.4063-20.007,14.304-20.007,14.3045,8.9548,14.3045,20.007Z"/>
              <path class="cls-15" d="m1392.9182,453.6582c0,8.412-4.5818,15.2355-10.2339,15.2355s-10.2335-6.8235-10.2335-15.2355,4.5819-15.235,10.2335-15.235,10.2339,6.821,10.2339,15.235Z"/>
              <path class="cls-1" d="m1388.9839,446.5718c0,3.386-1.8414,6.1295-4.1169,6.1295-2.2725,0-4.1165-2.7435-4.1165-6.1295s1.844-6.1315,4.1165-6.1315c2.2755,0,4.1169,2.7454,4.1169,6.1315Z"/>
            </g>
            <g>
              <path class="cls-13" d="m1154.6219,468.9716c-.229.2994-.7459.2924-1.6224.1946-1.6858-.1826-3.44-.1507-5.1352-.241-4.1439-.217-8.2923-.3801-12.4387-.5553-1.2178-.0513-2.4386-.1022-3.6589-.1606-7.52-.3632-15.0425-.7239-22.5649-1.0771-7.1987-.3408-14.3973-.6746-21.596-1.0013-6.8549-.3119-13.7049-.6162-20.5603-.9155-6.565-.2829-13.1301-.5628-19.6977-.8382-6.363-.2654-12.7284-.5238-19.089-.7773-6.2263-.2459-12.4481-.4844-18.6744-.7209-6.1145-.2265-12.2316-.4505-18.3486-.6625-6.0268-.2121-12.056-.4166-18.0828-.6167-5.9683-.197-11.5201-.0873-17.488-.2799-.9968-.0294-3.8734.234-4.541-.6969-.463-.6406-.2145-2.2995-.234-3.0254-.0878-3.2109.0734-7.9684.005-9.1813-.0414-.7214.1142-3.396.9304-3.8126.9185-.47,6.0637.1656,7.1693.1512.441-.005.8845-.022,1.3231-.0075,2.957.0928,5.9145.1851,8.872.2849,5.9803.1901,11.9631.3876,17.9465.5897,6.1021.212,12.2041.4285,18.3092.6555,6.2313.229,12.4626.4675,18.6919.711,6.363.2509,12.7235.5118,19.086.7698,6.5287.2679,13.0598.5433,19.5909.8262,6.7796.2923,13.5617.5892,20.3433.894,7.1183.3188,14.2412.6431,21.3595.9768,7.4736.3508,14.9476.704,22.4212,1.0642,7.7295.3727,14.5046.244,22.2341.6211,1.4762.0734,4.0705.2365,5.5129.6436,1.9876.5578,1.0935,14.6792-.0634,16.1874Z"/>
              <path class="cls-13" d="m77.0431,486.5524c-1.2837-.6405-2.7285-8.6529-3.3132-11.8195-.1871-1.0257-.8327-2.4092-.5818-3.4494.3872-1.6005,5.0669-1.4787,6.3531-1.6568,2.4166-.3263,4.8303-.6431,7.2495-.9474,3.1306-.3947,6.2607-.7748,9.3934-1.14,4.1294-.485,8.2583-.9504,12.3897-1.4059,5.3423-.5892,10.687-1.1595,16.0317-1.7173,6.6943-.6989,13.3911-1.3814,20.0829-2.0485,8.1146-.8042,16.2313-1.591,24.3509-2.3558,9.554-.9015,19.108-1.7711,28.6694-2.6162,10.9894-.9674,21.9782-1.8978,32.9745-2.7869,12.4017-1.0038,24.8134-1.9512,37.2276-2.8452,13.8196-.9943,27.6422-1.9198,41.4713-2.7699,15.25-.938,30.5044-1.7881,45.7638-2.5504,16.7063-.8357,33.4175-1.5691,50.1363-2.2022,18.19-.692,36.3894-1.2672,54.5869-1.7372,19.6882-.5089,39.3739-.899,59.0671-1.1839,21.14-.3093,42.2825-.5019,63.4245-.5991,22.49-.1023,44.9796-.0998,67.4691-.0195,23.6564.0878,47.3129.2629,70.9669.4994,24.558.246,49.113.5578,73.671.906,25.1252.3582,50.2529.7578,75.3762,1.1669,6.6334.1073,13.376-.1387,20.0025.2096,4.0436.2095,7.8218.1536,11.8853.1995,4.0217.0489,4.772.7723,4.8868,4.6703.0558,1.9781.0997,3.9972-.0295,5.9703-.1292,1.9323.3702,5.7349-2.5868,5.452-3.0936-.2923-6.2437-.1945-9.3594-.3018-1.0327-.0344-2.0754-.0364-3.1086-.0489-4.9646-.0708-9.9342-.1387-14.8988-.207-9.9222-.1362-19.8463-.2729-29.771-.4066-5.5613-.0734-11.118-.1462-16.6768-.2196-24.8184-.3212-49.6393-.6186-74.4582-.8646-24.0631-.2414-48.1262-.4335-72.1923-.5577-23.0059-.1123-46.0142-.1637-69.0201-.1223-21.7273.0415-43.4545.1637-65.1817.3927-20.3118.214-40.6211.5188-60.928.9424-18.8305.3877-37.6541.8721-56.4747,1.4763-17.3399.5507-34.6773,1.2008-52.0047,1.9611-15.8735.692-31.7396,1.4763-47.6028,2.3534-14.4412.7987-28.8744,1.6758-43.3057,2.6307-13.0328.8626-26.0562,1.7856-39.079,2.7774-11.6275.879-23.2524,1.8095-34.8723,2.7888-10.2116.8577-20.4236,1.7517-30.6282,2.6796-8.7847.7968-17.5638,1.6225-26.341,2.4751-7.3544.7114-14.7067,1.4373-22.0535,2.1902-5.9659.6091-11.9293,1.2328-17.8907,1.8734-4.6772.5044-9.3544,1.0157-14.0291,1.5516-3.5637.4046-7.1278.8211-10.6915,1.2597-3.0722.3777-5.9734.9838-9.0331,1.4468-2.3384.3582-6.0951,1.3206-7.3179.7064Z"/>
              <path class="cls-13" d="m1150.4391,539.4829c-.1048.0998-.2195.1826-.3582.251-.8721.443-2.2216.0998-3.1376.005-1.4079-.1417-2.8138-.1537-4.2242-.2535-4.1853-.2873-8.3896-.3996-12.5798-.5992-6.8719-.3317-13.7463-.6555-20.6212-.9748-6.8574-.3213-13.7198-.6331-20.5797-.9355-6.8405-.3043-13.6784-.6061-20.5189-.896-6.816-.2899-13.632-.5752-20.4455-.8526-6.7891-.2779-13.5762-.5508-20.3652-.8137-6.7577-.261-13.5178-.5189-20.2754-.7698-6.7282-.2485-13.4569-.4875-20.1851-.7259-6.6893-.2365-13.3811-.4605-20.0754-.687-5.4031-.1781-10.4994.0119-15.9025-.1562-1.4349-.0484-7.0719-.0703-7.971-.5258-.7673-.3877-.5917-2.8383-.5627-3.5203.0538-1.369-.0315-5.7493.0344-7.4471.0314-.8382-.2974-4.4313.5942-5.2011,1.1744-1.0107,7.4715-.0314,9.6248.027,2.2535.0584,4.5041.1706,6.7601.219.9794.0244,1.9607.0589,2.9401.0928,6.6898.2145,13.3815.4435,20.0708.6725,6.7332.2335,13.4639.475,20.1946.7209,6.7726.246,13.5422.4994,20.3118.7599,6.8041.2609,13.6031.5288,20.4072.8042,6.8254.2774,13.6539.5603,20.4794.8451,6.8555.2924,13.7054.5847,20.5603.8866,6.8724.3048,13.7417.6116,20.6141.9284,6.8819.3143,13.7658.6381,20.6526.9644,6.8943.3313,13.1401.2071,20.0389.5508,1.1839.0584,3.0523.241,4.2342.4555,1.7147.3143,2.1433,1.598,2.0994,3.6515-.0509,2.4286-.4819,4.5091-.5967,6.9357-.0703,1.4982-.0269,4.4313-1.2178,5.5882Z"/>
              <path class="cls-13" d="m83.6959,555.8874c-.2509-.1486-.453-.414-.5822-.8576-.3093-1.0916-.5942-2.3019-.7987-3.4224-.3488-1.9198-.9355-3.4909-1.2937-5.4081-.2679-1.4299-1.133-4.0661-.5238-5.4276.5872-1.3131,4.6453-1.5202,5.6296-1.6883,1.0766-.1851,2.1557-.3677,3.2354-.5433,1.2128-.1971,2.4286-.3946,3.6489-.5847,1.3935-.2215,2.7894-.4311,4.1853-.6406,1.61-.241,3.2205-.4775,4.8329-.7089,1.8614-.2655,3.7223-.5259,5.5837-.7843,2.1388-.2949,4.2776-.5822,6.4189-.8671,2.4406-.3243,4.8793-.6431,7.3224-.9574,2.7604-.3582,5.5179-.704,8.2803-1.0502,3.0937-.3847,6.1879-.7673,9.2816-1.1425,3.4344-.4166,6.8719-.8282,10.3093-1.2323,3.7807-.446,7.5639-.887,11.352-1.3206,4.1314-.4724,8.2628-.9354,12.3992-1.3959,4.4847-.4994,8.9673-.9863,13.4545-1.4688,4.8353-.5138,9.6662-1.0232,14.5016-1.5201,5.1791-.5334,10.3607-1.0522,15.5398-1.5616,5.5248-.5433,11.0497-1.0741,16.5745-1.5885,5.8661-.5453,11.7347-1.0766,17.6008-1.593,6.2093-.5433,12.4212-1.0716,18.633-1.5785,6.5506-.5358,13.1062-1.0497,19.6593-1.5421,6.8963-.5214,13.7976-1.0158,20.7014-1.4883,7.2471-.4969,14.4967-.9673,21.7492-1.4104,7.6028-.4679,15.2106-.9065,22.8183-1.3156,7.966-.4285,15.9315-.8256,23.9024-1.1958,8.3362-.3877,16.6724-.7409,25.0085-1.0597,8.7114-.3388,17.4227-.6411,26.1366-.9115,9.0885-.2849,18.1775-.5333,27.2715-.7503,9.4686-.2241,18.9403-.4116,28.414-.5698,9.8513-.1631,19.7051-.2923,29.559-.3921,10.2314-.0998,20.458-.1682,30.687-.2046,10.5966-.0394,21.1909-.0439,31.788-.0219,10.95.0239,21.8974.0778,32.8498.1581,11.2817.0853,22.5629.1976,33.844.3313,11.5886.1412,23.1766.3043,34.7651.4919,11.8634.1901,23.7293.4046,35.5932.6361,12.1019.236,24.2067.4894,36.3091.7623,12.302.2754,24.6014.5628,36.8989.8651,12.4531.3044,24.9037.6212,37.3568.945,12.5529.3287,25.1058.6625,37.6612,1.0013,6.0462.1631,12.0899.3262,18.1386.4894,3.0258.0828,6.0536.1631,9.0795.2459,2.2091.0614,4.4238.1756,6.6359.1926,1.1644.01,2.7475.1681,2.7355,2.1563-.0075,1.2687-.2974,2.9644-.3677,4.2386-.1656,2.9865-.244,4.9063-.5144,7.8827-.0998,1.0941-.3163,1.9223-1.4982,2.0001-3.3616.222-6.6309-.3652-9.973-.3727-1.0038,0-1.9977.017-2.9939-.0095-6.0243-.1561-12.0435-.2898-18.0658-.4315-1.7367-.0414-3.4714-.0753-5.2056-.1217-12.497-.3338-24.994-.6651-37.4935-.9914-12.3942-.3217-24.7915-.6336-37.1837-.9354-12.2436-.2973-24.4847-.5872-36.7257-.8551-12.0441-.2679-24.0876-.5189-36.1341-.7529-11.8025-.229-23.6075-.441-35.4126-.6261-11.5301-.1851-23.0597-.3482-34.5874-.4844-11.2203-.1317-22.4431-.2415-33.6659-.3243-10.8891-.0778-21.7781-.1312-32.6677-.1507-10.5383-.0219-21.0741-.0149-31.6125.024-10.1726.0389-20.3407.1072-30.5138.2095-9.7955.0998-19.591.2265-29.3834.3902-9.4178.1606-18.8331.3482-28.2489.5722-9.0376.2145-18.0702.4605-27.1058.7429-8.66.2704-17.3155.5727-25.9729.9065-8.2828.3188-16.5651.6695-24.8479,1.0571-7.9196.3627-15.8317.7599-23.7443,1.1864-7.5588.4041-15.1132.8402-22.6646,1.3032-7.2037.4385-14.4018.906-21.6005,1.4009-6.8504.4675-13.7029.9594-20.5483,1.4762-6.5092.487-13.0134.9963-19.5176,1.5297-6.1629.5019-12.3239,1.0232-18.4848,1.564-5.8217.5089-11.6419,1.0378-17.4616,1.5811-5.4809.5088-10.9594,1.0327-16.4383,1.571-5.1352.5044-10.268,1.0208-15.4032,1.5496-4.7914.4894-9.5809.9913-14.3724,1.5027-4.4437.4774-8.8869.9624-13.3276,1.4543-4.095.4535-8.1875.916-12.2825,1.3839-3.7468.4286-7.491.8621-11.2403,1.3057-3.398.3996-6.799.8062-10.1971,1.2203-3.0597.3702-6.1195.7453-9.1813,1.1305-2.731.3408-5.4619.687-8.188,1.0352-2.4136.3118-4.8253.6286-7.2395.9499-2.1149.2779-4.2292.5678-6.3436.8577-1.8419.2534-3.6784.5118-5.5203.7747-1.5905.229-3.1885.4605-4.7795.7015-1.381.207-2.7624.4141-4.1389.6336-3.2569.5114-6.5087,1.0572-9.7561,1.6244-.8212.1417-1.8589.6287-2.5434.2245Z"/>
            </g>
            <g class="cls-23">
              <path class="cls-19" d="m1017.8886,449.5487c19.6129.3118,39.1399.9574,58.7164,2.3509,28.7378,2.039,52.7305,1.7371,79.2397,6.139-.0564-2.7724-.3896-5.0355-1.1594-5.2545-1.4424-.4071-4.0367-.5702-5.5129-.6436-7.7295-.3771-14.5046-.2484-22.2341-.6211-7.4736-.3602-14.9476-.7134-22.4212-1.0642-7.1183-.3337-14.2412-.658-21.3595-.9768-6.7816-.3048-13.5637-.6017-20.3433-.894-6.5311-.2829-13.0622-.5583-19.5909-.8262-6.3625-.258-12.723-.5189-19.086-.7698-6.2293-.2435-12.4606-.482-18.6919-.711-6.1051-.227-12.2071-.4435-18.3092-.6555-5.9834-.2021-11.9662-.3996-17.9465-.5897-2.9575-.0998-5.915-.1921-8.872-.2849-.4386-.0145-.8821.0025-1.3231.0075-1.1056.0144-6.2508-.6212-7.1693-.1512-.8162.4166-.9718,3.0912-.9304,3.8126.0219.3702,44.6672.7768,66.9936,1.1325Z"/>
              <path class="cls-19" d="m906.5051,448.5988c-.2409-7.3279-4.1972-4.7845-19.1229-5.1596-12.2969-.3118-24.4772-.7234-36.7572-.6725-24.753.1122-49.5934-.2046-74.3409-.9085-49.0766-1.3835-98.2849-1.1425-147.3809-1.2593-36.6698-.0903-73.3422.1851-110.007.7209-19.6932.2849-39.3789.675-59.0671,1.1839-18.1975.47-36.3969,1.0452-54.5869,1.7372-16.7188.6331-33.43,1.3665-50.1363,2.2022-15.2594.7623-30.5138,1.6124-45.7638,2.5504-13.8291.8501-27.6517,1.7756-41.4713,2.7699-12.4142.894-24.8259,1.8414-37.2276,2.8452-10.9963.8891-21.9851,1.8195-32.9745,2.7869-9.5614.8451-19.1154,1.7147-28.6694,2.6162-8.1196.7648-16.2363,1.5516-24.3509,2.3558-6.6918.6671-13.3886,1.3496-20.0829,2.0485-5.3447.5578-10.6894,1.1281-16.0317,1.7173-4.1314.4555-8.2603.9209-12.3897,1.4059-3.1327.3652-6.2628.7453-9.3934,1.14-2.4192.3043-4.8329.6211-7.2495.9474-1.2862.1781-5.9659.0563-6.3531,1.6568-.2509,1.0402.3947,2.4237.5818,3.4494.0808.4361.1806.9769.2903,1.5661,35.2395-4.0192,76.2967-10.443,114.6743-13.4978,42.1877-3.3596,84.3215-7.4666,126.5501-10.239,41.8979-2.7455,83.9194-4.6428,125.8587-6.6943,20.224-.9888,40.4725-.7548,60.6865-1.9148,16.8185-.9643,33.6251.5384,50.4361.9115,40.9329.9036,82.0216-1.5765,122.9865-1.4009,23.5906.1023,47.1667.8062,70.7379,1.7028,27.715,1.0522,141.0937-.6042,160.5548,3.4324Z"/>
              <path class="cls-19" d="m942.6561,521.1563c.1831.0345,35.0794.3388,51.0842,1.2717,20.2484,1.1839,40.5308,1.2134,60.7768,2.4506,32.6332,2.0001,64.9526,3.8077,97.5734,4.1414.0608-.677.1461-1.3395.1631-2.0609.0439-2.0535-.3847-3.3372-2.0994-3.6515-1.1819-.2145-3.0503-.3971-4.2342-.4555-6.8988-.3437-13.1446-.2195-20.0389-.5508-6.8868-.3263-13.7707-.6501-20.6526-.9644-6.8724-.3168-13.7417-.6236-20.6141-.9284-6.8549-.3019-13.7048-.5942-20.5603-.8866-6.8255-.2848-13.654-.5677-20.4794-.8451-6.8041-.2754-13.6031-.5433-20.4072-.8042-6.7696-.2605-13.5392-.5139-20.3118-.7599-6.7307-.2459-13.4614-.4874-20.1946-.7209-6.6893-.229-13.381-.458-20.0708-.6725-.9794-.0339-1.9607-.0684-2.9401-.0928-2.256-.0484-4.5066-.1606-6.7601-.219-2.1533-.0584-8.4504-1.0377-9.6248-.027-.8916.7698-.5628,4.3629-.5942,5.2011-.0075.1606-.0125.3677-.015.5747Z"/>
              <path class="cls-19" d="m898.6878,518.0043c.0808-.716.1512-1.4324.1562-2.046.012-1.9882-1.5711-2.1463-2.7355-2.1563-2.2121-.017-4.4268-.1312-6.6359-.1926-3.0259-.0828-6.0537-.1631-9.0795-.2459-6.0487-.1632-12.0924-.3263-18.1386-.4894-12.5554-.3388-25.1083-.6726-37.6612-1.0013-12.4531-.3238-24.9037-.6406-37.3568-.945-12.2975-.3023-24.5969-.5897-36.8989-.8651-12.1024-.2729-24.2072-.5263-36.3091-.7623-11.8639-.2315-23.7298-.446-35.5932-.6361-11.5885-.1876-23.1765-.3507-34.7651-.4919-11.2811-.1337-22.5623-.246-33.844-.3313-10.9524-.0803-21.8998-.1342-32.8498-.1581-10.5971-.022-21.1914-.0175-31.788.0219-10.229.0364-20.4556.1048-30.687.2046-9.8539.0998-19.7077.229-29.559.3921-9.4737.1582-18.9454.3457-28.414.5698-9.094.217-18.183.4654-27.2715.7503-8.7139.2704-17.4252.5727-26.1366.9115-8.3361.3188-16.6723.672-25.0085,1.0597-7.9709.3702-15.9364.7673-23.9024,1.1958-7.6077.4091-15.2155.8477-22.8183,1.3156-7.2525.4431-14.5021.9135-21.7492,1.4104-6.9038.4725-13.8051.9669-20.7014,1.4883-6.5531.4924-13.1087,1.0063-19.6593,1.5421-6.2118.5069-12.4237,1.0352-18.633,1.5785-5.8661.5164-11.7347,1.0477-17.6008,1.593-5.5248.5144-11.0497,1.0452-16.5745,1.5885-5.1791.5094-10.3607,1.0282-15.5398,1.5616-4.8354.4969-9.6663,1.0063-14.5016,1.5201-4.4872.4825-8.9698.9694-13.4545,1.4688-4.1364.4605-8.2678.9235-12.3992,1.3959-3.7881.4336-7.5713.8746-11.352,1.3206-3.4374.4041-6.8749.8157-10.3093,1.2323-3.0937.3752-6.1879.7578-9.2816,1.1425-2.7624.3462-5.5199.692-8.2803,1.0502-2.4431.3143-4.8818.6331-7.3224.9574-2.1413.2849-4.2801.5722-6.4189.8671-1.8614.2584-3.7223.5188-5.5837.7843-1.6124.2314-3.2229.4679-4.8329.7089-1.3959.2095-2.7918.4191-4.1853.6406-1.2203.1901-2.4361.3876-3.6489.5847-1.0797.1756-2.1588.3582-3.2354.5433-.9843.1681-5.0424.3752-5.6296,1.6883-.5289,1.1889.0439,3.3007.3826,4.782,19.6683-4.2996,40.3822-7.4177,60.8013-10.1487,22.7864-3.0428,162.5549-15.23,207.7755-17.264,76.2358-3.428,148.7523-4.0536,225.0614-5.5982,15.693-.3168,31.4274-.4555,47.1863-.4555,49.3544,0,98.9134,1.3445,148.0778,2.7235,14.2336.3996,111.0372,1.5835,128.9054,3.1935Z"/>
            </g>
            <g>
              <path class="cls-2" d="m102.8533,254.1146c25.7878-6.4264,51.1764-15.9564,76.8255-22.2805,33.5223-8.2653,67.2521-15.693,101.179-22.1069,39.5195-7.474,79.2127-14.1509,118.9423-20.5772-1.4203-13.5253-3.0378-25.3543-4.7236-34.2607-6.2896-33.3082-25.2399-49.1349-59.7416-48.4723-36.8843.7089-73.6345,4.3823-110.1337,9.2496-31.8954,4.2532-66.0802,7.1228-95.6955,19.9147-29.4637,12.738-34.4967,35.2739-32.2945,63.8002,1.4104,18.3092,3.418,36.5381,5.6421,54.7331Z"/>
              <path class="cls-2" d="m402.7891,224.7721c-.4266-6.5261-.9015-12.923-1.4229-19.0935-41.4249,6.6334-82.8134,13.5417-123.9364,21.6369-33.8391,6.6624-67.5759,13.9344-100.9864,22.5235-23.8315,6.1245-47.4735,14.9671-71.5122,20.8671.8985,6.9697,1.8195,13.9319,2.7405,20.894,97.4172-26.5895,195.8921-48.7427,295.1174-66.828Z"/>
            </g>
            <g>
              <path class="cls-2" d="m494.7742,174.0342c118.6256-18.838,237.7436-35.5298,357.6534-42.704-8.2878-28.877-30.5897-44.2432-69.3714-47.0301-47.2277-3.3935-94.5505-3.5277-141.6565-2.3244-41.1639,1.0502-85.1372.3243-124.1554,10.9918-38.8161,10.6112-47.2815,34.7257-47.028,66.2189.0489,6.3216.2145,12.502.3946,18.6674,8.0563-1.2717,16.1145-2.5429,24.1633-3.8196Z"/>
              <path class="cls-2" d="m857.3507,169.2862c-.4579-7.9121-1.0621-15.1811-1.815-21.4883-124.8349,7.2935-248.8007,24.9791-372.2352,44.8524-4.0147.6456-8.0319,1.2817-12.0465,1.9223.2804,6.102.6091,12.1487.9674,18.1605,127.527-20.7673,256.1331-34.9716,385.1293-43.4469Z"/>
            </g>
          </g>
        </g>
      </g>
    </g>
  </g>
</svg>