<?xml version="1.0" encoding="utf-8"?>
<!-- Generator: Adobe Illustrator 28.0.0, SVG Export Plug-In . SVG Version: 6.00 Build 0)  -->
<svg version="1.1" id="Layer_1" xmlns="http://www.w3.org/2000/svg" xmlns:xlink="http://www.w3.org/1999/xlink" x="0px" y="0px"
	 viewBox="0 0 415.9 165.1" style="enable-background:new 0 0 415.9 165.1;" xml:space="preserve">
<style type="text/css">
	.st0{fill:#285DAB;}
	.st1{opacity:0.4;fill:url(#SVGID_1_);enable-background:new    ;}
	.st2{fill:#231F20;}
	.st3{fill:#262628;}
	.st4{opacity:0.4;fill:#2F3740;enable-background:new    ;}
	.st5{fill:#414142;}
	.st6{fill:#111112;}
	.st7{fill:#353536;}
	.st8{fill:#373736;}
	.st9{fill:#006EB7;}
	.st10{opacity:0.4;fill:url(#SVGID_00000118382378895362352490000008346402387673309087_);enable-background:new    ;}
	.st11{opacity:0.4;fill:url(#SVGID_00000092439688502952750180000000979208721785131958_);enable-background:new    ;}
	.st12{fill:#4A4B4C;}
	.st13{opacity:0.2;fill:#F6F6F6;enable-background:new    ;}
	.st14{opacity:0.8;fill:#F6F6F6;enable-background:new    ;}
	.st15{fill:#B51B1C;}
	.st16{fill:#880C09;}
	.st17{opacity:0.4;fill:#B75526;enable-background:new    ;}
	.st18{fill:#B6B7B9;}
	.st19{opacity:0.5;fill:#B6B7B9;enable-background:new    ;}
	.st20{fill:#313132;}
	.st21{opacity:0.4;fill:url(#SVGID_00000150079595330785374080000003364473229746620336_);enable-background:new    ;}
	.st22{opacity:0.4;fill:#FFFFFF;enable-background:new    ;}
	.st23{opacity:0.4;fill:url(#SVGID_00000087382055179116884290000015816031051067098499_);enable-background:new    ;}
	.st24{fill:#363635;}
	.st25{fill:#4F4E4D;}
	.st26{fill:#2D2D2C;}
	.st27{fill:#909295;}
	.st28{fill:url(#SVGID_00000071531190603619993500000001745391050646895012_);}
	.st29{fill:#151513;}
	.st30{fill:#969792;}
	.st31{fill:#C2C4C6;}
	.st32{fill:url(#SVGID_00000121977823480623608530000013418647540053616532_);}
	.st33{fill:#3B3C3C;}
	.st34{opacity:0.3;fill:url(#SVGID_00000174567521704120203980000009480769718220722568_);enable-background:new    ;}
	.st35{fill:#272728;}
	.st36{opacity:0.5;fill:#373736;enable-background:new    ;}
	.st37{fill:#363436;}
	.st38{opacity:0.5;fill:#6E6C6D;enable-background:new    ;}
	.st39{opacity:0.4;fill:url(#SVGID_00000155107567074101453790000002169831324855056291_);enable-background:new    ;}
	.st40{fill:#87898C;}
</style>
<g>
	<g>
		<path class="st0" d="M6.2,95.4c0,0,1.5,13.9,2.5,16.8c1,2.9,2.7,4.2,2.7,4.2l42.9,17.3c0,0,0,0,0.1,0c0.5-6.1,1.6-16.5,4.1-21.7
			c3.5-7.7,6.6-15.1,29.1-15.7c8-0.2,23.7,0.3,29.8,11.6c4.9,9.1,6.3,21.4,6.7,25.9c50.8,0,120.3,0,177.2,0
			c0.5-6.1,1.6-16.5,4.1-21.7c3.5-7.7,6.6-15.1,29.1-15.7c8-0.2,23.7,0.3,29.8,11.6c4.9,9.1,6.3,21.4,6.7,25.9c19.1,0,31,0,31.3,0
			c2.1,0,2.9-3.2,2.9-3.2s5.4-21.2,4.7-23.1c-0.8-1.9-4.7-4.7-4.7-4.7s-1.3-11-3.2-16.8c-1.9-5.8-9.5-9.2-9.5-9.2
			c-9.7-6.4-77.4-20.9-88.9-24.8c-11.5-3.8-41.8-36.4-58.8-43c-17-6.6-65.9-6.5-65.9-6.5c-8.1-0.4-35,0.3-49.8,4.2
			c-14.8,3.8-58.4,36.5-58.4,36.5S27.4,54,19.1,55.7c-8.3,1.7-8.5,6.2-8.5,6.2v22.3L6.2,95.4z"/>
		<g>
			
				<linearGradient id="SVGID_1_" gradientUnits="userSpaceOnUse" x1="363.438" y1="72.277" x2="409.68" y2="72.277" gradientTransform="matrix(-1 0 0 -1 415.9196 168)">
				<stop  offset="0" style="stop-color:#FFFFFF"/>
				<stop  offset="7.950000e-02" style="stop-color:#DCDBDC"/>
				<stop  offset="0.2044" style="stop-color:#ABAAAA"/>
				<stop  offset="0.3325" style="stop-color:#827F80"/>
				<stop  offset="0.4614" style="stop-color:#5F5C5D"/>
				<stop  offset="0.5916" style="stop-color:#454142"/>
				<stop  offset="0.7234" style="stop-color:#322E2F"/>
				<stop  offset="0.8579" style="stop-color:#272324"/>
				<stop  offset="0.9993" style="stop-color:#231F20"/>
			</linearGradient>
			<polygon class="st1" points="10.6,84.2 6.2,95.4 52.5,107.3 			"/>
			<g>
				<path class="st2" d="M305.2,112c-2.4,5.3-3.6,15.7-4.1,21.7c27.3,0,51.6,0,69.5,0c-0.4-4.5-1.8-16.8-6.7-25.9
					c-6.1-11.3-21.8-11.8-29.8-11.6C311.8,96.9,308.7,104.3,305.2,112z"/>
				<path class="st2" d="M58.5,112c-2.4,5.3-3.6,15.7-4.1,21.7c1.8,0,30,0,69.6,0c-0.4-4.5-1.8-16.8-6.7-25.9
					C111.2,96.5,95.5,96,87.5,96.3C65,96.9,62,104.3,58.5,112z"/>
			</g>
			<g>
				<path class="st0" d="M6.2,95.4c0,0,1.5,13.9,2.5,16.8c1,2.9,2.7,4.2,2.7,4.2l42.9,17.3c0,0,0,0,0.1,0c0.5-6.1,1.6-16.5,4.1-21.7
					c3.5-7.7,6.6-15.1,29.1-15.7c8-0.2,23.7,0.3,29.8,11.6c4.9,9.1,6.3,21.4,6.7,25.9c50.8,0,120.3,0,177.2,0
					c0.5-6.1,1.6-16.5,4.1-21.7c3.5-7.7,6.6-15.1,29.1-15.7c8-0.2,23.7,0.3,29.8,11.6c4.9,9.1,6.3,21.4,6.7,25.9c19.1,0,31,0,31.3,0
					c2.1,0,2.9-3.2,2.9-3.2s5.4-21.2,4.7-23.1c-0.8-1.9-4.7-4.7-4.7-4.7s-1.3-11-3.2-16.8c-1.9-5.8-9.5-9.2-9.5-9.2
					c-0.2-0.1-0.4-0.3-0.7-0.4c2,1.4,5.8,4.3,6.2,5.1l-17-2.9c0,0-4.5-0.6-4.6,2.9c0,0,0.9,2.4,2.9,4.7c2,2.2,8.7,8.4,11.4,8.9
					c2.6,0.5,13.1,2.7,13.1,2.7v4.2l-15-0.5l15.8,1.8c0,0,4.8,3.1,4.5,4.6c-0.3,1.4,0.3,0.4,0,0.9c-0.3,0.5-5.9-1.5-5.9-1.5
					s-3.3-1.1-4.7,0.5c-1.3,1.6-11.1,11.4-11.1,11.4s-1.4,0.5-0.4,3.6c1,3.1,3,7.2,3,7.2s1.3,1.2-0.6,1.4c-1.9,0.2-16.9,0-16.9,0
					s-2.1-21.1-10.3-28.7c-8.3-7.6-18.9-8-22.9-8c-4,0-26.5-0.2-33,12.1c-6.5,12.3-6.2,25.6-6.2,25.6s-2.8-1.4-6.5-1.6H130
					c0,0-2.8-24.1-12.9-31.4c0,0,8.3,12,8.9,26c0,0-0.2,1.8-1.5,2.4c0,0-2.4-22.3-13-28c-10.6-5.6-24-5-32-4
					c-8,1-18.8,3.6-22.4,14.3c-3.6,10.7-4.2,21.1-4.2,21.1L15,115.4c0,0-4.1-2-4.4-5.2c-0.3-3.2-1-12.1-1-12.1l42.4,9L10.6,96.2
					l4.1-9.8l0.1-6.3L31,75.9c0,0,3-0.3,4.8-2.6s6-8.5,6-8.5s1.3-1.6-1.8-3C36.8,60.3,14.8,60,14.8,60s1-2.7,4.4-3
					c3.5-0.4,51.2-13.7,51.2-13.7S27.4,54,19.1,55.7c-8.3,1.7-8.5,6.2-8.5,6.2v22.3L6.2,95.4z"/>
			</g>
			<g>
				<path class="st3" d="M305.2,112c-2.4,5.3-3.6,15.7-4.1,21.7c27.3,0,51.6,0,69.5,0c-0.4-4.5-1.8-16.8-6.7-25.9
					c-6.1-11.3-21.8-11.8-29.8-11.6C311.8,96.9,308.7,104.3,305.2,112z"/>
				<path class="st3" d="M58.5,112c-2.4,5.3-3.6,15.7-4.1,21.7c1.8,0,30,0,69.6,0c-0.4-4.5-1.8-16.8-6.7-25.9
					C111.2,96.5,95.5,96,87.5,96.3C65,96.9,62,104.3,58.5,112z"/>
			</g>
			<path class="st4" d="M301.3,53.4l0.1,0.1c0,0.1,3.5,5.6,10.5,8.1c2.8,1,14.6,2.9,28.3,5c17.7,2.8,39.1,6.1,49.2,8.9
				c-0.3-0.2-0.6-0.4-0.9-0.6c-10.5-2.8-31.1-6-48.2-8.7c-13.7-2.1-25.5-4-28.3-5c-6.3-2.3-9.7-7-10.3-7.9c0.6-0.4,1-0.9,1.3-1.4
				c-0.1,0-0.2-0.1-0.4-0.1c-0.3,0.5-0.8,1-1.3,1.3L301.3,53.4z"/>
			<path class="st5" d="M402.8,108c-2.7-0.7-3.4,0.4-3.4,0.4s-6.7,6.6-9.5,9.6c-2.8,3-1.7,4.6-1.7,4.6s1,4,2.3,6.3
				c1.2,2.3,4.3,2.5,4.3,2.5h6.4c2.4-0.1,3.1-2.3,3.1-2.3s4.1-15.9,4.3-17.3c0.3-1.4-0.2-1.9-0.2-1.9S405.5,108.7,402.8,108z"/>
			<path class="st6" d="M401.6,109.7c-2.4-0.6-3,0.3-3,0.3s-5.9,5.9-8.4,8.5c-2.5,2.6-1.5,4.1-1.5,4.1s0.9,3.5,2,5.6
				s3.9,2.2,3.9,2.2h5.7c2.2-0.1,2.8-2.1,2.8-2.1s3.6-14.1,3.8-15.3c0.2-1.2-0.2-1.7-0.2-1.7S404,110.3,401.6,109.7z"/>
			<path class="st7" d="M400.3,111.2c-2-0.5-2.6,0.3-2.6,0.3s-5.1,5-7.2,7.3c-2.1,2.3-1.3,3.5-1.3,3.5s0.8,3,1.7,4.8
				c0.9,1.8,3.3,1.9,3.3,1.9h4.9c1.9,0,2.4-1.8,2.4-1.8s3.1-12,3.3-13.1c0.2-1-0.1-1.4-0.1-1.4S402.4,111.7,400.3,111.2z"/>
			<g>
				<path class="st8" d="M125.5,7.9c-17.1,7-55.1,35.4-55.1,35.4c3,2.1,7.1-0.4,7.1-0.4s30.8-22.9,38-27.5
					C122.6,11,125.4,8,125.5,7.9z"/>
			</g>
			<path class="st9" d="M366.6,99.7l42.2,7.5c-1.1-1.9-4.4-4.2-4.4-4.2L366.6,99.7z"/>
			<path class="st8" d="M302.2,51.6L302.2,51.6C291.7,47,269,23.8,252.4,13.2c5,6.8,34.9,33,40.4,36.6
				C298.7,53.7,302.2,51.6,302.2,51.6z"/>
			<path class="st0" d="M301.8,109.1c-2.8,6-4,18-4.5,24.6c1.3,0,2.6,0,3.9,0c0.5-6.1,1.6-16.5,4.1-21.7c3.5-7.7,6.6-15.1,29.1-15.7
				c8-0.2,23.7,0.3,29.8,11.6c4.9,9.1,6.3,21.4,6.7,25.9c1.3,0,2.6,0,3.9,0c-0.3-4.5-1.8-18.8-7.4-29.3
				c-6.8-12.5-24.2-13.1-33.1-12.8C309.1,92.3,305.7,100.5,301.8,109.1z"/>
			
				<linearGradient id="SVGID_00000073708377154114234340000016997028759836569228_" gradientUnits="userSpaceOnUse" x1="41.333" y1="55.3692" x2="118.654" y2="55.3692" gradientTransform="matrix(-1 0 0 -1 415.9196 168)">
				<stop  offset="0" style="stop-color:#FFFFFF"/>
				<stop  offset="7.950000e-02" style="stop-color:#DCDBDC"/>
				<stop  offset="0.2044" style="stop-color:#ABAAAA"/>
				<stop  offset="0.3325" style="stop-color:#827F80"/>
				<stop  offset="0.4614" style="stop-color:#5F5C5D"/>
				<stop  offset="0.5916" style="stop-color:#454142"/>
				<stop  offset="0.7234" style="stop-color:#322E2F"/>
				<stop  offset="0.8579" style="stop-color:#272324"/>
				<stop  offset="0.9993" style="stop-color:#231F20"/>
			</linearGradient>
			<path style="opacity:0.4;fill:url(#SVGID_00000073708377154114234340000016997028759836569228_);enable-background:new    ;" d="
				M301.8,109.1c-2.8,6-4,18-4.5,24.6c1.3,0,2.6,0,3.9,0c0.5-6.1,1.6-16.5,4.1-21.7c3.5-7.7,6.6-15.1,29.1-15.7
				c8-0.2,23.7,0.3,29.8,11.6c4.9,9.1,6.3,21.4,6.7,25.9c1.3,0,2.6,0,3.9,0c-0.3-4.5-1.8-18.8-7.4-29.3
				c-6.8-12.5-24.2-13.1-33.1-12.8C309.1,92.3,305.7,100.5,301.8,109.1z"/>
			<path class="st0" d="M54.9,108.8c-2.6,5.6-3.9,16.5-4.5,23.3l3.9,1.6c0,0,0,0,0.1,0c0.5-6.1,1.6-16.5,4.1-21.7
				c3.5-7.7,6.6-15.1,29.1-15.7c8-0.2,23.7,0.3,29.8,11.6c4.9,9.1,6.3,21.4,6.7,25.9c1.4,0,2.9,0,4.3,0c-0.3-4.5-1.8-19-7.5-29.6
				C114,91.5,96.4,90.9,87.5,91.2C62.2,91.9,58.8,100.2,54.9,108.8z"/>
			
				<linearGradient id="SVGID_00000059286294616379943120000008922228608733943696_" gradientUnits="userSpaceOnUse" x1="287.627" y1="55.5747" x2="365.508" y2="55.5747" gradientTransform="matrix(-1 0 0 -1 415.9196 168)">
				<stop  offset="0" style="stop-color:#FFFFFF"/>
				<stop  offset="7.950000e-02" style="stop-color:#DCDBDC"/>
				<stop  offset="0.2044" style="stop-color:#ABAAAA"/>
				<stop  offset="0.3325" style="stop-color:#827F80"/>
				<stop  offset="0.4614" style="stop-color:#5F5C5D"/>
				<stop  offset="0.5916" style="stop-color:#454142"/>
				<stop  offset="0.7234" style="stop-color:#322E2F"/>
				<stop  offset="0.8579" style="stop-color:#272324"/>
				<stop  offset="0.9993" style="stop-color:#231F20"/>
			</linearGradient>
			<path style="opacity:0.4;fill:url(#SVGID_00000059286294616379943120000008922228608733943696_);enable-background:new    ;" d="
				M54.9,108.8c-2.6,5.6-3.9,16.5-4.5,23.3l3.9,1.6c0,0,0,0,0.1,0c0.5-6.1,1.6-16.5,4.1-21.7c3.5-7.7,6.6-15.1,29.1-15.7
				c8-0.2,23.7,0.3,29.8,11.6c4.9,9.1,6.3,21.4,6.7,25.9c1.4,0,2.9,0,4.3,0c-0.3-4.5-1.8-19-7.5-29.6C114,91.5,96.4,90.9,87.5,91.2
				C62.2,91.9,58.8,100.2,54.9,108.8z"/>
			<g>
				<path class="st12" d="M380.2,79.4c-4.6,0.1-2.8,3.1-2.8,3.3s5.8,8,11.6,10.6c1.4,0.6,14.5,4.2,14.5,2.9c0-1.2-2.6-10.8-3.2-12.2
					c-0.6-1.3-2-1.5-2-1.5S384.8,79.3,380.2,79.4z"/>
				<path class="st6" d="M380.7,80.4c-3.5,0.1-2.2,2.4-2.2,2.5c0,0.1,4.5,6.1,8.9,8.1c1.1,0.5,11.1,3.2,11.1,2.2c0-1-2-8.3-2.5-9.3
					c-0.5-1-1.5-1.1-1.5-1.1S384.2,80.3,380.7,80.4z"/>
				<path class="st13" d="M382.9,80.4c0,0,2,2.1,6.2,5.9c4.2,3.8,13.3,8.1,13.3,8.1s-2.1-9.2-3-10.4c-0.9-1.2-16.2-3.6-16.2-3.6
					H382.9z"/>
				<path class="st14" d="M402.2,93.5c-0.6-2.4-2.1-8.5-2.8-9.5c-0.6-0.8-7.7-2.2-12.2-2.9c0.2,0.1,0.4,0.1,0.6,0.2
					c2.5,0.7,5,1.7,7.3,2.9C398.9,86.2,400.5,89.8,402.2,93.5z"/>
			</g>
			<g>
				<path class="st15" d="M10.7,61.3L10.7,61.3c-0.1,0.4-0.1,0.6-0.1,0.6V79c1.3,0.2,2.9-0.1,2.9-0.1s14.5-4.2,16.7-5.1
					c2.2-0.9,2.9-1.5,2.9-1.5s5.8-5.8,5.9-7.1c0.1-1.3-2.2-1.9-2.2-1.9C27.5,61.5,10.7,61.3,10.7,61.3z"/>
				<path class="st16" d="M10.7,61.3L10.7,61.3c-0.1,0.4-0.1,0.6-0.1,0.6V79c1.3,0.2,2.9-0.1,2.9-0.1s14.5-4.2,16.7-5.1
					c2.2-0.9,2.9-1.5,2.9-1.5s5.8-5.8,5.9-7.1c0.1-1.3-2.2-1.9-2.2-1.9C27.5,61.5,10.7,61.3,10.7,61.3z"/>
				<path class="st15" d="M11.3,62.6L11.3,62.6c-0.1,0.3-0.1,0.5-0.1,0.5v13.9c1.2,0.2,2.7-0.1,2.7-0.1s13.5-3.4,15.6-4.1
					c2.1-0.7,2.7-1.2,2.7-1.2s5.4-4.7,5.5-5.7s-2.1-1.5-2.1-1.5C27,62.8,11.3,62.6,11.3,62.6z"/>
				<path class="st15" d="M15.8,67.3c-3.5,0.7-4.1,5.6-4.1,5.6v-9.6c1.7-0.2,21,1,23.7,1.6c2.7,0.5,0,2.5,0,2.5S19.3,66.6,15.8,67.3
					z"/>
				<path class="st17" d="M11.8,76.5v-2.9c0,0,13.7-2.1,16.8-2.7c3.1-0.6,5.2-2.1,5.2-2.1s-2,2.8-4.4,3.2L11.8,76.5z"/>
			</g>
			<g>
				<path class="st18" d="M124,135.1c0-1.5,6.1-2.8,7.5-2.8h161.7c1.5,0,7.8,1.2,7.8,2.8l0,0c0,1.5-6.4,2.8-7.8,2.8H131.5
					C130,137.9,124,136.6,124,135.1L124,135.1z"/>
				<path class="st19" d="M124,135.1C124,135.1,124,135.1,124,135.1c0,1.6,6.1,2.8,7.5,2.8h161.7c1.5,0,7.8-1.2,7.8-2.8
					c0,0,0,0,0-0.1H124z"/>
			</g>
			<g>
				<path d="M398.2,111.1l-4.2,17.7c0.2,0,0.3,0,0.3,0h1.4l4.3-17.8C399.1,110.9,398.5,111,398.2,111.1z"/>
				<path d="M404.2,112.4l-3.9,16.2c1-0.5,1.3-1.5,1.3-1.5s3.1-12,3.3-13.1c0.2-1-0.1-1.4-0.1-1.4S404.5,112.5,404.2,112.4z"/>
				<path d="M394.4,114.8l-3,12.7c0.4,0.4,0.8,0.7,1.3,0.9l3.7-15.6C395.8,113.4,395.1,114.1,394.4,114.8z"/>
				<path d="M401.3,111.4l-4.2,17.5h1.7l4-16.9C402.4,111.8,401.8,111.6,401.3,111.4z"/>
				<path d="M390.4,125.6l2.1-8.9c-0.7,0.8-1.4,1.5-1.9,2c-2.1,2.3-1.3,3.5-1.3,3.5S389.8,124,390.4,125.6z"/>
				<path class="st20" d="M402.9,111.9l-4,16.9h0.4c0.4,0,0.8-0.1,1.1-0.3l3.9-16.2C403.8,112.3,403.4,112.1,402.9,111.9z"/>
				<path class="st20" d="M400,111.1l-4.3,17.8h1.4l4.2-17.5c-0.3-0.1-0.7-0.2-1-0.3C400.2,111.1,400.1,111.1,400,111.1z"/>
				<path class="st20" d="M396.4,112.8l-3.7,15.6c0.5,0.2,1,0.3,1.3,0.4l4.2-17.7c-0.3,0.1-0.5,0.3-0.5,0.3S397.2,112,396.4,112.8z"
					/>
				<path class="st20" d="M391,127c0.1,0.2,0.2,0.3,0.3,0.5l3-12.7c-0.6,0.6-1.3,1.3-1.9,1.9l-2.1,8.9
					C390.6,126.1,390.8,126.6,391,127z"/>
			</g>
			
				<linearGradient id="SVGID_00000183964661345874096870000005162576159991254151_" gradientUnits="userSpaceOnUse" x1="80.562" y1="129.9024" x2="80.562" y2="23.5619" gradientTransform="matrix(-1 0 0 -1 415.9196 168)">
				<stop  offset="0" style="stop-color:#FFFFFF"/>
				<stop  offset="7.950000e-02" style="stop-color:#DCDBDC"/>
				<stop  offset="0.2044" style="stop-color:#ABAAAA"/>
				<stop  offset="0.3325" style="stop-color:#827F80"/>
				<stop  offset="0.4614" style="stop-color:#5F5C5D"/>
				<stop  offset="0.5916" style="stop-color:#454142"/>
				<stop  offset="0.7234" style="stop-color:#322E2F"/>
				<stop  offset="0.8579" style="stop-color:#272324"/>
				<stop  offset="0.9993" style="stop-color:#231F20"/>
			</linearGradient>
			<path style="opacity:0.4;fill:url(#SVGID_00000183964661345874096870000005162576159991254151_);enable-background:new    ;" d="
				M369.3,75.6c7,3.8,8.1,8.6,8.1,8.6l-84.1-8.2l1.2-12.9C294.5,63.1,362.4,71.8,369.3,75.6z"/>
			<path class="st22" d="M319.6,58.9c6.7,1.6,51.1,11.1,51.1,11.1l-65.1-16.4C305.6,53.6,310.8,56.8,319.6,58.9z"/>
			
				<linearGradient id="SVGID_00000133504144953537361530000014636249881840892801_" gradientUnits="userSpaceOnUse" x1="357.9995" y1="129.9066" x2="357.9995" y2="23.5494" gradientTransform="matrix(-1 0 0 -1 415.9196 168)">
				<stop  offset="0" style="stop-color:#FFFFFF"/>
				<stop  offset="7.950000e-02" style="stop-color:#DCDBDC"/>
				<stop  offset="0.2044" style="stop-color:#ABAAAA"/>
				<stop  offset="0.3325" style="stop-color:#827F80"/>
				<stop  offset="0.4614" style="stop-color:#5F5C5D"/>
				<stop  offset="0.5916" style="stop-color:#454142"/>
				<stop  offset="0.7234" style="stop-color:#322E2F"/>
				<stop  offset="0.8579" style="stop-color:#272324"/>
				<stop  offset="0.9993" style="stop-color:#231F20"/>
			</linearGradient>
			
				<polygon style="opacity:0.4;fill:url(#SVGID_00000133504144953537361530000014636249881840892801_);enable-background:new    ;" points="
				18.3,58.9 97.5,64.9 92.2,58.5 			"/>
			<g>
				<path class="st24" d="M335,100.2c17.2,0,31.2,14,31.2,31.2c0,17.2-14,31.2-31.2,31.2c-17.2,0-31.2-14-31.2-31.2
					C303.8,114.2,317.8,100.2,335,100.2z"/>
				<path class="st25" d="M335,100.2c17.2,0,31.2,14,31.2,31.2c0,17.2-14,31.2-31.2,31.2c-17.2,0-31.2-14-31.2-31.2
					C303.8,114.2,317.8,100.2,335,100.2z"/>
				<path class="st26" d="M335,102c16.2,0,29.4,13.2,29.4,29.4c0,16.2-13.2,29.4-29.4,29.4s-29.4-13.2-29.4-29.4
					C305.6,115.1,318.8,102,335,102z"/>
				<g>
					<path class="st27" d="M335,106.2c13.9,0,25.2,11.3,25.2,25.2c0,13.9-11.3,25.2-25.2,25.2c-13.9,0-25.2-11.3-25.2-25.2
						C309.8,117.5,321.1,106.2,335,106.2z"/>
					
						<linearGradient id="SVGID_00000040542493206752088220000005140669093284448153_" gradientUnits="userSpaceOnUse" x1="57.902" y1="36.6025" x2="103.911" y2="36.6025" gradientTransform="matrix(-1 0 0 -1 415.9196 168)">
						<stop  offset="0" style="stop-color:#FFFFFF"/>
						<stop  offset="1" style="stop-color:#848689"/>
					</linearGradient>
					<path style="fill:url(#SVGID_00000040542493206752088220000005140669093284448153_);" d="M335,108.4c12.7,0,23,10.3,23,23
						c0,12.7-10.3,23-23,23c-12.7,0-23-10.3-23-23C312,118.7,322.3,108.4,335,108.4z"/>
					<g>
						<path class="st29" d="M323.6,118.1l9.2,9.2c0.2,0.1,0.4,0.1,0.6,0.1c0.1,0,0.1-0.1,0.2-0.1c0.1-0.2,0.2-0.3,0.3-0.5V114
							c-0.1-0.2-0.2-0.4-0.3-0.6c-0.3-0.2-0.6-0.3-0.9-0.4c-3.5,0.3-6.6,1.7-9.1,3.9c-0.1,0.3-0.1,0.5-0.1,0.8
							C323.5,117.8,323.5,117.9,323.6,118.1z"/>
						<path class="st29" d="M317.1,130.5h13c0.2-0.1,0.4-0.2,0.5-0.3c0-0.1,0.1-0.2,0.1-0.2c0-0.2-0.1-0.4-0.2-0.5l-9-9
							c-0.2-0.1-0.4-0.1-0.6-0.2c-0.3,0-0.6,0.2-0.9,0.3c-2.3,2.7-3.5,5.9-3.7,9.2c0.1,0.3,0.3,0.5,0.5,0.6
							C316.9,130.4,317,130.5,317.1,130.5z"/>
						<path class="st29" d="M321.5,143.5l9-9.3c0.1-0.2,0.1-0.4,0.1-0.6c0-0.1-0.1-0.2-0.1-0.2c-0.2-0.1-0.3-0.2-0.5-0.2l-12.8,0.2
							c-0.2,0.1-0.4,0.2-0.6,0.3c-0.2,0.3-0.3,0.6-0.4,0.9c0.3,3.5,1.8,6.6,4.1,9c0.3,0.1,0.5,0.1,0.8,0.1
							C321.3,143.6,321.4,143.5,321.5,143.5z"/>
						<path class="st29" d="M333.7,149l0.2-13c-0.1-0.2-0.2-0.4-0.3-0.5c-0.1,0-0.2-0.1-0.2-0.1c-0.2,0-0.4,0.1-0.5,0.2l-9.2,8.9
							c-0.1,0.2-0.1,0.4-0.2,0.6c0,0.3,0.1,0.6,0.3,0.9c2.6,2.3,5.8,3.6,9.1,3.8c0.3-0.1,0.5-0.3,0.6-0.5
							C333.6,149.2,333.7,149.1,333.7,149z"/>
						<path class="st29" d="M346.4,118.1l-9.2,9.2c-0.2,0.1-0.4,0.1-0.6,0.1c-0.1,0-0.2-0.1-0.2-0.1c-0.1-0.2-0.2-0.3-0.3-0.5V114
							c0.1-0.2,0.2-0.4,0.3-0.6c0.3-0.2,0.6-0.3,0.9-0.4c3.5,0.3,6.6,1.7,9.1,3.9c0.1,0.3,0.1,0.5,0.1,0.8
							C346.5,117.8,346.5,117.9,346.4,118.1z"/>
						<path class="st29" d="M352.9,130.5h-13c-0.2-0.1-0.4-0.2-0.5-0.3c0-0.1-0.1-0.2-0.1-0.2c0-0.2,0.1-0.4,0.2-0.5l9-9
							c0.2-0.1,0.4-0.1,0.6-0.2c0.3,0,0.6,0.2,0.9,0.3c2.3,2.7,3.5,5.9,3.7,9.2c-0.1,0.3-0.3,0.5-0.5,0.6
							C353.2,130.4,353.1,130.5,352.9,130.5z"/>
						<path class="st29" d="M348.5,143.5l-9-9.3c-0.1-0.2-0.1-0.4-0.1-0.6c0-0.1,0.1-0.2,0.1-0.2c0.2-0.1,0.3-0.2,0.5-0.2l12.8,0.2
							c0.2,0.1,0.4,0.2,0.6,0.3c0.2,0.3,0.3,0.6,0.4,0.9c-0.3,3.5-1.8,6.6-4,9c-0.3,0.1-0.5,0.1-0.8,0.1
							C348.8,143.6,348.6,143.5,348.5,143.5z"/>
						<path class="st29" d="M336.3,149l-0.2-13c0.1-0.2,0.2-0.4,0.3-0.5c0.1,0,0.2-0.1,0.2-0.1c0.2,0,0.4,0.1,0.5,0.2l9.2,8.9
							c0.1,0.2,0.1,0.4,0.2,0.6c0,0.3-0.1,0.6-0.3,0.9c-2.6,2.3-5.8,3.6-9.1,3.8c-0.3-0.1-0.5-0.3-0.6-0.5
							C336.4,149.2,336.3,149.1,336.3,149z"/>
						<path class="st29" d="M335,131.6L335,131.6L335,131.6z"/>
						<path class="st29" d="M335,131.6L335,131.6L335,131.6z"/>
					</g>
					<path class="st30" d="M335,124.6c3.7,0,6.8,3,6.8,6.8c0,3.7-3,6.8-6.8,6.8c-3.7,0-6.8-3-6.8-6.8
						C328.3,127.7,331.3,124.6,335,124.6z"/>
					<path class="st31" d="M331.5,127.2c0.5,0,0.8,0.4,0.8,0.8c0,0.5-0.4,0.8-0.8,0.8c-0.5,0-0.8-0.4-0.8-0.8
						C330.6,127.6,331,127.2,331.5,127.2z"/>
					<path class="st31" d="M335,126c0.5,0,0.8,0.4,0.8,0.8c0,0.5-0.4,0.8-0.8,0.8c-0.5,0-0.8-0.4-0.8-0.8
						C334.1,126.4,334.5,126,335,126z"/>
					<path class="st31" d="M338.5,127.4c0.5,0,0.8,0.4,0.8,0.8c0,0.5-0.4,0.8-0.8,0.8c-0.5,0-0.8-0.4-0.8-0.8
						C337.7,127.7,338.1,127.4,338.5,127.4z"/>
					<path class="st31" d="M331.5,136.3c0.5,0,0.8-0.4,0.8-0.8c0-0.5-0.4-0.8-0.8-0.8c-0.5,0-0.8,0.4-0.8,0.8
						C330.6,135.9,331,136.3,331.5,136.3z"/>
					<path class="st31" d="M329.8,132.8c0.5,0,0.8-0.4,0.8-0.8c0-0.5-0.4-0.8-0.8-0.8c-0.5,0-0.8,0.4-0.8,0.8
						C329,132.4,329.4,132.8,329.8,132.8z"/>
					<path class="st31" d="M340.2,132.8c0.5,0,0.8-0.4,0.8-0.8c0-0.5-0.4-0.8-0.8-0.8c-0.5,0-0.8,0.4-0.8,0.8
						C339.4,132.4,339.7,132.8,340.2,132.8z"/>
					<path class="st31" d="M335,137.5c0.5,0,0.8-0.4,0.8-0.8c0-0.5-0.4-0.8-0.8-0.8c-0.5,0-0.8,0.4-0.8,0.8
						C334.1,137.1,334.5,137.5,335,137.5z"/>
					<path class="st31" d="M338.5,136.1c0.5,0,0.8-0.4,0.8-0.8c0-0.5-0.4-0.8-0.8-0.8c-0.5,0-0.8,0.4-0.8,0.8
						C337.7,135.8,338.1,136.1,338.5,136.1z"/>
				</g>
			</g>
		</g>
		<g>
			<path class="st24" d="M89.1,100.2c17.2,0,31.2,14,31.2,31.2c0,17.2-14,31.2-31.2,31.2s-31.2-14-31.2-31.2
				C57.9,114.2,71.9,100.2,89.1,100.2z"/>
			<path class="st25" d="M89.1,100.2c17.2,0,31.2,14,31.2,31.2c0,17.2-14,31.2-31.2,31.2c-17.2,0-31.2-14-31.2-31.2
				C57.9,114.2,71.9,100.2,89.1,100.2z"/>
			<path class="st26" d="M89.1,102c16.2,0,29.4,13.2,29.4,29.4c0,16.2-13.2,29.4-29.4,29.4c-16.2,0-29.4-13.2-29.4-29.4
				C59.7,115.1,72.8,102,89.1,102z"/>
			<g>
				<path class="st27" d="M89.1,106.2c13.9,0,25.2,11.3,25.2,25.2c0,13.9-11.3,25.2-25.2,25.2c-13.9,0-25.2-11.3-25.2-25.2
					C63.9,117.5,75.2,106.2,89.1,106.2z"/>
				
					<linearGradient id="SVGID_00000151530576860141268960000015190932487285780620_" gradientUnits="userSpaceOnUse" x1="303.834" y1="36.6025" x2="349.843" y2="36.6025" gradientTransform="matrix(-1 0 0 -1 415.9196 168)">
					<stop  offset="0" style="stop-color:#FFFFFF"/>
					<stop  offset="1" style="stop-color:#848689"/>
				</linearGradient>
				<path style="fill:url(#SVGID_00000151530576860141268960000015190932487285780620_);" d="M89.1,108.4c12.7,0,23,10.3,23,23
					c0,12.7-10.3,23-23,23s-23-10.3-23-23C66.1,118.7,76.4,108.4,89.1,108.4z"/>
				<g>
					<path class="st29" d="M77.7,118.1l9.2,9.2c0.2,0.1,0.4,0.1,0.6,0.1c0.1,0,0.1-0.1,0.2-0.1c0.1-0.2,0.2-0.3,0.3-0.5V114
						c-0.1-0.2-0.2-0.4-0.3-0.6c-0.3-0.2-0.6-0.3-0.9-0.4c-3.5,0.3-6.6,1.7-9.1,3.9c-0.1,0.3-0.1,0.5-0.1,0.8
						C77.6,117.8,77.6,117.9,77.7,118.1z"/>
					<path class="st29" d="M71.2,130.5h13c0.2-0.1,0.4-0.2,0.5-0.3c0-0.1,0.1-0.2,0.1-0.2c0-0.2-0.1-0.4-0.2-0.5l-9-9
						c-0.2-0.1-0.4-0.1-0.6-0.2c-0.3,0-0.6,0.2-0.9,0.3c-2.3,2.7-3.5,5.9-3.7,9.2c0.1,0.3,0.3,0.5,0.5,0.6
						C70.9,130.4,71,130.5,71.2,130.5z"/>
					<path class="st29" d="M75.6,143.5l9-9.3c0.1-0.2,0.1-0.4,0.1-0.6c0-0.1-0.1-0.2-0.1-0.2c-0.2-0.1-0.3-0.2-0.5-0.2l-12.8,0.2
						c-0.2,0.1-0.4,0.2-0.6,0.3c-0.2,0.3-0.3,0.6-0.4,0.9c0.3,3.5,1.8,6.6,4.1,9c0.3,0.1,0.5,0.1,0.8,0.1
						C75.3,143.6,75.5,143.5,75.6,143.5z"/>
					<path class="st29" d="M87.8,149l0.2-13c-0.1-0.2-0.2-0.4-0.3-0.5c-0.1,0-0.2-0.1-0.2-0.1c-0.2,0-0.4,0.1-0.5,0.2l-9.2,8.9
						c-0.1,0.2-0.1,0.4-0.2,0.6c0,0.3,0.1,0.6,0.3,0.9c2.6,2.3,5.8,3.6,9.1,3.8c0.3-0.1,0.5-0.3,0.6-0.5
						C87.7,149.2,87.7,149.1,87.8,149z"/>
					<path class="st29" d="M100.5,118.1l-9.2,9.2c-0.2,0.1-0.4,0.1-0.6,0.1c-0.1,0-0.2-0.1-0.2-0.1c-0.1-0.2-0.2-0.3-0.3-0.5V114
						c0.1-0.2,0.2-0.4,0.3-0.6c0.3-0.2,0.6-0.3,0.9-0.4c3.5,0.3,6.6,1.7,9.1,3.9c0.1,0.3,0.1,0.5,0.1,0.8
						C100.6,117.8,100.6,117.9,100.5,118.1z"/>
					<path class="st29" d="M107,130.5H94c-0.2-0.1-0.4-0.2-0.5-0.3c0-0.1-0.1-0.2-0.1-0.2c0-0.2,0.1-0.4,0.2-0.5l9-9
						c0.2-0.1,0.4-0.1,0.6-0.2c0.3,0,0.6,0.2,0.9,0.3c2.3,2.7,3.5,5.9,3.7,9.2c-0.1,0.3-0.3,0.5-0.5,0.6
						C107.2,130.4,107.1,130.5,107,130.5z"/>
					<path class="st29" d="M102.6,143.5l-9-9.3c-0.1-0.2-0.1-0.4-0.1-0.6c0-0.1,0.1-0.2,0.1-0.2c0.2-0.1,0.3-0.2,0.5-0.2l12.8,0.2
						c0.2,0.1,0.4,0.2,0.6,0.3c0.2,0.3,0.3,0.6,0.4,0.9c-0.3,3.5-1.8,6.6-4,9c-0.3,0.1-0.5,0.1-0.8,0.1
						C102.8,143.6,102.7,143.5,102.6,143.5z"/>
					<path class="st29" d="M90.4,149l-0.2-13c0.1-0.2,0.2-0.4,0.3-0.5c0.1,0,0.2-0.1,0.2-0.1c0.2,0,0.4,0.1,0.5,0.2l9.2,8.9
						c0.1,0.2,0.1,0.4,0.2,0.6c0,0.3-0.1,0.6-0.3,0.9c-2.6,2.3-5.8,3.6-9.1,3.8c-0.3-0.1-0.5-0.3-0.6-0.5
						C90.5,149.2,90.4,149.1,90.4,149z"/>
					<path class="st29" d="M89.1,131.6L89.1,131.6L89.1,131.6z"/>
					<path class="st29" d="M89.1,131.6L89.1,131.6L89.1,131.6z"/>
				</g>
				<path class="st30" d="M89.1,124.6c3.7,0,6.8,3,6.8,6.8c0,3.7-3,6.8-6.8,6.8c-3.7,0-6.8-3-6.8-6.8
					C82.3,127.7,85.3,124.6,89.1,124.6z"/>
				<path class="st31" d="M85.5,127.2c0.5,0,0.8,0.4,0.8,0.8c0,0.5-0.4,0.8-0.8,0.8c-0.5,0-0.8-0.4-0.8-0.8
					C84.7,127.6,85.1,127.2,85.5,127.2z"/>
				<path class="st31" d="M89.1,126c0.5,0,0.8,0.4,0.8,0.8c0,0.5-0.4,0.8-0.8,0.8s-0.8-0.4-0.8-0.8C88.2,126.4,88.6,126,89.1,126z"
					/>
				<path class="st31" d="M92.6,127.4c0.5,0,0.8,0.4,0.8,0.8c0,0.5-0.4,0.8-0.8,0.8c-0.5,0-0.8-0.4-0.8-0.8
					C91.8,127.7,92.2,127.4,92.6,127.4z"/>
				<path class="st31" d="M85.5,136.3c0.5,0,0.8-0.4,0.8-0.8c0-0.5-0.4-0.8-0.8-0.8c-0.5,0-0.8,0.4-0.8,0.8
					C84.7,135.9,85.1,136.3,85.5,136.3z"/>
				<path class="st31" d="M83.9,132.8c0.5,0,0.8-0.4,0.8-0.8c0-0.5-0.4-0.8-0.8-0.8c-0.5,0-0.8,0.4-0.8,0.8
					C83.1,132.4,83.4,132.8,83.9,132.8z"/>
				<path class="st31" d="M94.3,132.8c0.5,0,0.8-0.4,0.8-0.8c0-0.5-0.4-0.8-0.8-0.8c-0.5,0-0.8,0.4-0.8,0.8
					C93.4,132.4,93.8,132.8,94.3,132.8z"/>
				<path class="st31" d="M89.1,137.5c0.5,0,0.8-0.4,0.8-0.8c0-0.5-0.4-0.8-0.8-0.8s-0.8,0.4-0.8,0.8
					C88.2,137.1,88.6,137.5,89.1,137.5z"/>
				<path class="st31" d="M92.6,136.1c0.5,0,0.8-0.4,0.8-0.8c0-0.5-0.4-0.8-0.8-0.8c-0.5,0-0.8,0.4-0.8,0.8
					C91.8,135.8,92.2,136.1,92.6,136.1z"/>
			</g>
		</g>
	</g>
	<g>
		<g>
			<g>
				<path class="st0" d="M126,12.8C113.9,17,97.5,31.4,93.8,34.9c-3.6,3.5-3.3,9.1-3.3,9.1s0.3,6.5,1.2,9.6c1.3,4.3,3.6,6.8,3.6,6.8
					c39.3,54.9,38.5,54.7,42,61.8c2.1,4.2,8.6,4.5,8.6,4.5h134.6c4.7,0.6,5.3-5.7,5.3-5.7s5.6-61.7,5-66.5
					c-0.6-4.8-18.2-21.2-35-34.3c-16.9-13.1-63-12.3-63-12.3S140.5,7.8,126,12.8z"/>
				<path class="st8" d="M280.6,127H146c-0.3,0-6.8-0.3-8.9-4.7c-0.2-0.4-0.4-0.8-0.6-1.2c-2.9-6-4.4-9-41.3-60.6
					c-0.2-0.2-2.4-2.7-3.7-6.9c-0.9-3.1-1.2-9.4-1.2-9.6c0-0.2-0.4-5.8,3.4-9.4c3.7-3.6,20.2-17.9,32.3-22.2
					c13.7-4.8,61.2-4.9,66.5-4.9h0.5c0,0,0.6,0,1.7,0c7.6,0,46.4,0.6,61.5,12.3c8.5,6.6,17.1,14,23.6,20.3
					c5,4.9,11.1,11.3,11.5,14.2c0.6,4.8-4.8,64.1-5,66.6c0,0.1-0.6,6-5.1,6C281,127.1,280.8,127,280.6,127z M192.9,8.3l-0.5,0
					c-5.4,0-52.8,0.1-66.3,4.9c-12,4.2-28.4,18.4-32.1,22c-3.5,3.4-3.2,8.8-3.1,8.8c0,0.1,0.3,6.5,1.2,9.5c1.3,4.2,3.5,6.7,3.5,6.7
					l0,0c37,51.6,38.5,54.6,41.4,60.7c0.2,0.4,0.4,0.8,0.6,1.2c2,4,8.2,4.3,8.3,4.3h134.6l0,0c0.2,0,0.4,0,0.5,0
					c3.8,0,4.4-5.4,4.4-5.4c0.1-0.6,5.6-61.7,5-66.4c-0.5-3.7-13.9-17.8-34.9-34.1c-15-11.6-53.5-12.2-61.1-12.2
					C193.5,8.2,192.9,8.3,192.9,8.3z"/>
			</g>
			<path class="st33" d="M173.1,9.2c0,0-33.2,2.1-39.7,3c-6.5,0.9-13.6,5.1-16.2,6.6c-2.7,1.5-21.3,15.2-23.7,19.3
				c-2.4,4-0.9,12.4-0.7,14.3c0.2,1.9,1.5,1.8,1.5,1.8s190.2,0.5,193.7,0c3.5-0.5-11.6-14.6-16.4-18.9s-11-9.9-11-9.9
				c-5.2-4-7.9-5.7-18.5-10c-12.6-5.2-42.6-6.6-42.6-6.6L173.1,9.2z"/>
			
				<linearGradient id="SVGID_00000015339211339331727130000012962190675186336679_" gradientUnits="userSpaceOnUse" x1="208.9181" y1="175.9521" x2="224.5571" y2="122.4321" gradientTransform="matrix(-1 0 0 -1 415.9196 168)">
				<stop  offset="0" style="stop-color:#FFFFFF"/>
				<stop  offset="1" style="stop-color:#231F20"/>
			</linearGradient>
			<path style="opacity:0.3;fill:url(#SVGID_00000015339211339331727130000012962190675186336679_);enable-background:new    ;" d="
				M288.3,52.9c-1.5-3.6-12.7-14-16.8-17.7c-4.8-4.3-11-9.9-11-9.9c-5.2-4-7.9-5.7-18.5-10c-12.6-5.2-42.6-6.6-42.6-6.6l-26.4,0.4
				c0,0-33.2,2.1-39.7,3c-6.5,0.9-13.6,5.1-16.2,6.6c-2.3,1.3-17,12.1-22.1,17.4c11.1-1.2,22.3-1.9,33.5-2.4
				c36.1-1.6,72.5,0.4,108.2,6.3C254.2,43.1,271.5,47.2,288.3,52.9z"/>
			<path class="st33" d="M92.7,52.4c0.2,1.9,1.5,1.8,1.5,1.8s190.2,0.5,193.7,0c3.5-0.5-11.6-14.6-16.4-18.9s-11-9.9-11-9.9
				c-5.2-4-7.9-5.7-18.5-10c-12.6-5.2-42.6-6.6-42.6-6.6l-26.4,0.4c0,0-33.2,2.1-39.7,3c-6.5,0.9-13.6,5.1-16.2,6.6
				c-2.7,1.5-21.3,15.2-23.7,19.3C91,42.1,92.5,50.4,92.7,52.4z M102.9,37.6c2.2-3.7,19-16.1,21.5-17.5c2.4-1.4,8.8-5.2,14.7-6
				c5.9-0.8,36-2.7,36-2.7l24-0.4c0,0,27.2,1.3,38.7,6c9.6,3.9,12.1,5.4,16.8,9c0,0,5.6,5,9.9,9c4.4,3.9,18.1,16.7,14.9,17.1
				c-3.2,0.5-175.7,0-175.7,0s-1.2,0.1-1.4-1.6C102.1,48.9,100.8,41.3,102.9,37.6z"/>
			<g>
				<path class="st35" d="M276.3,39.6l0.7,14.7c6.5,0,10.5-0.1,11-0.2C290.6,53.7,282.5,45.4,276.3,39.6z"/>
			</g>
			<g>
				<path class="st35" d="M276.3,39.6l0.7,14.7c2.7,0,5,0,6.7-0.1c0.1-0.2,0.1-0.5,0.2-0.7c0.5-1.6,1-3.1,1.6-4.6
					C283,46,279.4,42.5,276.3,39.6z"/>
			</g>
			<path class="st8" d="M273.4,54.5c2.4,0.5,6,1.2,6.6,1.1c0.9-0.2,1.5-0.9,1.5-0.9c1.1-1.2,2.7-5.7,2-7c-0.5-1-5.4-5.4-7.6-7.3
				C274.6,45,273.7,49.7,273.4,54.5z"/>
			<path class="st8" d="M273.4,54.5c2.4,0.5,6,1.2,6.6,1.1c0.9-0.2,1.5-0.9,1.5-0.9c1.1-1.2,2.7-5.7,2-7c-0.5-1-5.4-5.4-7.6-7.3
				C274.6,45,273.7,49.7,273.4,54.5z"/>
			<path class="st8" d="M283.7,49.3c0.1-0.7,0.1-1.2-0.1-1.6c-0.5-1-5.4-5.4-7.6-7.3c-0.2,0.5-0.3,1-0.5,1.5
				c1.9,1.4,3.9,2.8,5.7,4.4C282.2,47.2,283.2,48.2,283.7,49.3z"/>
			<path class="st36" d="M273.4,54.5c2.4,0.5,6,1.2,6.6,1.1c0.9-0.2,1.5-0.9,1.5-0.9c1-1,2.3-4.6,2.2-6.3c-0.5,1.5-1.2,3-2.2,4.2
				c-1.2,1.3-3,1.2-4.5,1c-1.3-0.2-2.8-0.4-2.9-1.9c-0.1-0.7-0.1-1.5-0.1-2.2C273.7,51.2,273.5,52.8,273.4,54.5z"/>
			<path class="st37" d="M194.7,8.9l-18.1,0.3c6.2,1.7,5.6,4.7,5.6,4.7s0.8,18.8,1.7,40.4l10,0l-4.3-40.5
				C189.8,9.2,194.7,8.9,194.7,8.9z"/>
			<path class="st38" d="M93.4,55.3V56h96.2c1.1,13.4,2,25.1,2.1,27.9c0.2,5,1.4,42.6,1.4,43l0.7,0c0-0.4-1.2-38-1.4-43
				c-0.1-2.8-1-14.5-2.1-27.9H291v-0.7H190.2c-1.7-21.1-3.8-46-3.9-46.4l-0.7,0.1c0,0.4,2.1,25.3,3.8,46.4H93.4L93.4,55.3z"/>
		</g>
		
			<linearGradient id="SVGID_00000072970838899185914890000006116318210659035315_" gradientUnits="userSpaceOnUse" x1="222.9685" y1="129.9018" x2="222.9685" y2="23.5638" gradientTransform="matrix(-1 0 0 -1 415.9196 168)">
			<stop  offset="0" style="stop-color:#FFFFFF"/>
			<stop  offset="7.950000e-02" style="stop-color:#DCDBDC"/>
			<stop  offset="0.2044" style="stop-color:#ABAAAA"/>
			<stop  offset="0.3325" style="stop-color:#827F80"/>
			<stop  offset="0.4614" style="stop-color:#5F5C5D"/>
			<stop  offset="0.5916" style="stop-color:#454142"/>
			<stop  offset="0.7234" style="stop-color:#322E2F"/>
			<stop  offset="0.8579" style="stop-color:#272324"/>
			<stop  offset="0.9993" style="stop-color:#231F20"/>
		</linearGradient>
		
			<polygon style="opacity:0.4;fill:url(#SVGID_00000072970838899185914890000006116318210659035315_);enable-background:new    ;" points="
			98,58.9 103.1,65.1 286.5,75.9 287.9,62.6 		"/>
		<g>
			<path class="st9" d="M212.5,64.7c5.4,0,9.7,2.3,9.7,5.1c0,2.8-4.3,5.1-9.7,5.1c-5.4,0-9.7-2.3-9.7-5.1
				C202.8,67,207.1,64.7,212.5,64.7z"/>
			<path class="st9" d="M212.5,65.1c5.2,0,9.4,2.2,9.4,4.9s-4.2,4.9-9.4,4.9c-5.2,0-9.4-2.2-9.4-4.9S207.3,65.1,212.5,65.1z"/>
			<g>
				<path class="st0" d="M212.3,72.4c6.6,0,11.9-1.2,11.9-2.6s-5.3-2.1-11.9-2.1c-6.6,0-11.9,0.6-11.9,2.1S205.7,72.4,212.3,72.4z"
					/>
				<path class="st0" d="M224.1,69.5c-0.5-1.3-5.6-1.9-11.8-1.9c-4.6,0-8.6,0.3-10.5,1c2.9-0.3,5.8-0.3,8.7-0.3
					c2.8,0,5.6,0.1,8.3,0.4C220.5,68.8,222.4,68.9,224.1,69.5z"/>
				<path class="st0" d="M200.4,69.7c0,1.5,5.3,2.6,11.9,2.6c6.6,0,11.9-1.2,11.9-2.6s-5.3-2.1-11.9-2.1
					C205.7,67.7,200.4,68.3,200.4,69.7z M205.7,69.4c0-1.1,3.9-1.5,8.8-1.5c4.9,0,8.8,0.5,8.8,1.5c0,1.1-3.9,2-8.8,2
					C209.6,71.3,205.7,70.5,205.7,69.4z"/>
				<path class="st40" d="M203.1,68.9c0.4,0,0.8,0.4,0.8,0.8c0,0.4-0.4,0.8-0.8,0.8s-0.8-0.4-0.8-0.8S202.7,68.9,203.1,68.9z"/>
			</g>
		</g>
		<g>
			<path class="st9" d="M118,64.7c5.4,0,9.7,2.3,9.7,5.1c0,2.8-4.4,5.1-9.7,5.1s-9.7-2.3-9.7-5.1C108.2,67,112.6,64.7,118,64.7z"/>
			<path class="st9" d="M118,65.1c5.2,0,9.4,2.2,9.4,4.9S123.1,75,118,75s-9.4-2.2-9.4-4.9S112.8,65.1,118,65.1z"/>
			<g>
				<path class="st0" d="M117.8,72.4c6.6,0,11.9-1.2,11.9-2.6s-5.3-2.1-11.9-2.1c-6.6,0-11.9,0.6-11.9,2.1S111.2,72.4,117.8,72.4z"
					/>
				<path class="st0" d="M129.6,69.5c-0.5-1.3-5.6-1.9-11.8-1.9c-4.6,0-8.6,0.3-10.5,1c2.9-0.3,5.8-0.3,8.7-0.3
					c2.8,0,5.6,0.1,8.3,0.4C126,68.8,127.9,68.9,129.6,69.5z"/>
				<path class="st0" d="M105.9,69.7c0,1.5,5.3,2.6,11.9,2.6c6.6,0,11.9-1.2,11.9-2.6s-5.3-2.1-11.9-2.1
					C111.2,67.7,105.9,68.3,105.9,69.7z M111.1,69.4c0-1.1,3.9-1.5,8.8-1.5c4.9,0,8.8,0.5,8.8,1.5c0,1.1-3.9,2-8.8,2
					S111.1,70.5,111.1,69.4z"/>
				<path class="st40" d="M108.6,68.9c0.4,0,0.8,0.4,0.8,0.8c0,0.4-0.4,0.8-0.8,0.8s-0.8-0.4-0.8-0.8S108.1,68.9,108.6,68.9z"/>
			</g>
		</g>
	</g>
</g>
</svg>
