<?xml version="1.0" encoding="UTF-8"?>
<svg id="Lager_2" data-name="Lager 2" xmlns="http://www.w3.org/2000/svg" viewBox="0 0 116.3359 154.1005">
  <defs>
    <style>
      .cls-1 {
        fill: #5c3d30;
      }

      .cls-1, .cls-2, .cls-3, .cls-4, .cls-5 {
        fill-rule: evenodd;
      }

      .cls-1, .cls-2, .cls-3, .cls-4, .cls-5, .cls-6, .cls-7, .cls-8 {
        stroke-width: 0px;
      }

      .cls-2 {
        fill: #dfcead;
      }

      .cls-3, .cls-8 {
        fill: #e6e6e6;
      }

      .cls-4, .cls-7 {
        fill: #fff;
      }

      .cls-5 {
        fill: #a17e6f;
      }

      .cls-6 {
        fill: #a38b5b;
      }
    </style>
  </defs>
  <g id="OBJECTS">
    <g>
      <ellipse class="cls-6" cx="38.5949" cy="145.6464" rx="38.5948" ry="8.454"/>
      <g>
        <path class="cls-3" d="m71.1128,144.7895c-2.4962,2.4514-10.9959,4.2571-21.0997,4.2571-10.2302,0-18.8166-1.8508-21.1909-4.3492h-.0015C12.4042,128.5702,7.5255,111.6791,4.0766,78.3386l91.8796-.0388c-3.4489,33.3405-8.4251,50.3625-24.8414,66.4897h-.002Z"/>
        <path class="cls-7" d="m93.6417,96.7822c-.4153,2.1277-2.4772,3.5158-4.6049,3.1006-2.1279-.4153-3.5161-2.4772-3.1008-4.6049,1.2373-6.2694,6.0029-10.3116,11.4202-11.5127,2.2578-.5006,4.6216-.5091,6.878.0199,2.2975.5383,4.5071,1.6302,6.4143,3.3222,4.5759,4.0586,7.2742,11.4732,4.6706,22.7389-2.406,10.4094-8.1541,15.8298-14.0831,17.4824-2.4429.6812-4.9153.7178-7.2224.1948-2.3332-.5287-4.4946-1.6299-6.2878-3.2165-4.0272-3.5631-6.1755-9.4759-4.1357-16.6819.5847-2.0854,2.7499-3.3018,4.8353-2.717s3.3018,2.7502,2.717,4.8356c-1.1171,3.9467-.1533,6.9968,1.7717,8.6998.7973.7059,1.7668,1.1977,2.8187,1.4358,1.0769.2443,2.2462.2231,3.4155-.1029,3.4404-.9587,6.8757-4.5369,8.5266-11.6799,1.8428-7.973.4178-12.791-2.2147-15.1256-.8773-.7784-1.9142-1.2856-3.0064-1.5415-1.133-.2656-2.3046-.2648-3.4092-.0199-2.5716.5701-4.8277,2.4582-5.4029,5.3728Z"/>
        <path class="cls-8" d="m93.6417,96.7819c-.4153,2.128-2.4772,3.5161-4.6049,3.1009-2.1279-.4156-3.5161-2.4772-3.1005-4.6049,1.237-6.2694,6.0024-10.3116,11.4197-11.5127.1445-.032.2897-.062.4348-.0901-.3541,3.043-.728,5.9437-1.1302,8.7126-1.4885.9431-2.6325,2.4375-3.0189,4.3942h0Zm-5.6285,27.7728c-.0966-.0811-.1927-.1639-.2874-.2478-4.0269-3.5631-6.1755-9.4756-4.1357-16.6819.5847-2.0854,2.7499-3.3018,4.8353-2.717s3.3018,2.7502,2.717,4.8356c-.741,2.6175-.5661,4.8405.197,6.5379-.9825,2.9123-2.0829,5.6571-3.3262,8.2732Z"/>
        <path class="cls-4" d="m71.1128,144.7895c-2.1404,2.1022-8.6961,3.7293-16.8919,4.1502-8.3132-.4275-14.9383-2.0957-16.9781-4.2423h-.0015c-16.4162-16.1272-21.295-33.0183-24.7439-66.3588l83.4585-.0354c-3.4489,33.3385-8.4254,50.3597-24.8411,66.4863h-.002Z"/>
        <path class="cls-4" d="m50.0134,89.8685c25.3287,0,45.9867-5.4366,45.9867-12.1019s-20.658-12.1017-45.9867-12.1017-45.9867,5.4363-45.9867,12.1017,20.658,12.1019,45.9867,12.1019Z"/>
        <path class="cls-3" d="m50.0134,87.0007c23.1814,0,42.0883-4.1482,42.0883-9.2341s-18.9069-9.2339-42.0883-9.2339-42.0883,4.1479-42.0883,9.2339,18.9069,9.2341,42.0883,9.2341Z"/>
        <path class="cls-1" d="m86.0389,82.5438c-7.3752,2.6714-20.7499,4.4572-36.0258,4.4572s-28.6506-1.7858-36.0258-4.4572c7.3752-2.6717,20.7499-4.4575,36.0258-4.4575s28.6506,1.7858,36.0258,4.4575Z"/>
        <path class="cls-5" d="m86.0389,82.5435c-2.3255.8427-5.2481,1.5968-8.6383,2.2348-.9377-1.5624-2.1501-2.7204-3.2978-3.2944-3.9036-1.9519-17.4161-2.1019-21.4699-1.201-4.0538.9005-10.8099,1.802-14.2631,1.201-3.4529-.6006-13.0615.4507-16.6,3.1289-3.0274-.6015-5.6551-1.2986-7.7825-2.0693,7.3749-2.6714,20.7499-4.4572,36.0258-4.4572s28.6506,1.7858,36.0258,4.4572Z"/>
        <path class="cls-1" d="m80.0473,82.8281c1.2138,0,2.2037-.2605,2.2037-.58s-.9899-.5796-2.2037-.5796-2.2036.2602-2.2036.5796.9898.58,2.2036.58Z"/>
        <path class="cls-1" d="m50.9857,79.5243c.8073,0,1.4655-.1732,1.4655-.3858s-.6582-.3858-1.4655-.3858-1.4658.1732-1.4658.3858.6585.3858,1.4658.3858Z"/>
        <path class="cls-1" d="m78.3497,83.9943c.8073,0,1.4657-.1735,1.4657-.3858s-.6584-.3855-1.4657-.3855-1.4658.1732-1.4658.3855.6584.3858,1.4658.3858Z"/>
        <path class="cls-1" d="m45.9857,80.6834c1.2135,0,2.2033-.2605,2.2033-.58s-.9898-.5799-2.2033-.5799-2.2037.2605-2.2037.5799.9901.58,2.2037.58Z"/>
        <path class="cls-1" d="m21.1885,83.1805c.8073,0,1.4658-.1732,1.4658-.3858s-.6585-.3858-1.4658-.3858-1.4658.1732-1.4658.3858.6584.3858,1.4658.3858Z"/>
        <path class="cls-2" d="m76.5729,45.7059c11.9633-5.8558,10.2713-22.2846-4.9499-23.6118-17.7046-1.5437-26.9762,22.7123-19.6789,42.2989,1.9057-22.8558,10.3204-33.4072,20.2498-33.2915,8.4238.0981,5.6549,11.8721,4.379,14.6044Z"/>
        <path class="cls-2" d="m46.9072,57.8733C35.6724,31.8127,64.9993,17.0272,59.3025,0c-6.0842,17.6066-36.5354,30.1836-12.3953,57.8733Z"/>
      </g>
    </g>
  </g>
</svg>