<?xml version="1.0" encoding="UTF-8"?>
<svg id="Lager_2" data-name="Lager 2" xmlns="http://www.w3.org/2000/svg" viewBox="0 0 1623.0752 1272.3084">
  <defs>
    <style>
      .cls-1 {
        fill: #2a3265;
      }

      .cls-1, .cls-2, .cls-3, .cls-4, .cls-5 {
        stroke-width: 0px;
      }

      .cls-2 {
        fill: #535997;
      }

      .cls-3 {
        fill: #100d29;
      }

      .cls-4 {
        fill: #7479b9;
      }

      .cls-5 {
        fill: #e2e3f3;
      }
    </style>
  </defs>
  <g id="Capa_2" data-name="Capa 2">
    <g>
      <g>
        <path class="cls-2" d="m226.4805,766.9569c21.3671-16.3868,45.3164-34.3125,71.4882-53.4766l-39.4843-16.1445-82.9805,59.5351-119.9024-142.4922h-.0039l-25.2617-10.332-16.9726,18.4648,116.4765,138.4141,96.6407,6.0313Z"/>
        <path class="cls-2" d="m1073.8242,213.4528l-95.9062-2.5273-59.2071,5.8242c1.2305-2.4531,2.3008-4.8867,3.2188-7.3047,4.875-12.8632,5.2695-25.039-.0078-35.0742-15.8047-30.0937-75.5469-29.8281-133.4571.586-16.5742,8.7031-31.1054,18.9531-43.1758,29.8359-11.3554,10.2344-20.4843,21.0156-26.7968,31.668l-62.4297,6.1406L49.4531,186.4411,0,230.5778l853.9609,117.504,219.8633-134.629Z"/>
        <path class="cls-2" d="m1622.9805,35.7419c-.0313-.4414-.0508-.8867-.0977-1.3164-.0625-.6602-.1641-1.3008-.2617-1.9414-.0625-.4141-.1211-.832-.1992-1.2344-.125-.6484-.2891-1.2773-.4493-1.9062-.0937-.3633-.1757-.7422-.2773-1.1016-.1992-.6758-.4453-1.3242-.6875-1.9805-.1094-.2851-.1992-.5859-.3125-.8671-.3789-.9219-.7969-1.8165-1.2656-2.6836-.293-.5508-.6836-1.0938-1.1407-1.6446v.0039c-16.1171-1.5859-33.0859-1.4609-48.1289,1.2774-109.8398,20.0078-184.5625,76.5234-395.4882,193.7656l47.7929,1.2539-453.457,277.6758-43.8867-15.0938c-166.3164,103.5547-337.9883,213.9493-456.1016,289.6641l5.1641.3164-80.7461,30.082-154.8008-34.3945,122.7305,53.2774,18.1523,7.8789c-38.4219,24.375-60.9414,38.2265-61.0937,37,.0468.3984.2656.7343.6015,1.0078.1094.0937.3086.1445.4492.2304.2891.1563.586.3086,1,.4024.2461.0625.5665.0898.8555.1289.4375.0625.8867.1172,1.4258.1367.3789.0117.8086,0,1.2383-.0117.5742-.0156,1.1875-.0391,1.8515-.0977.5079-.0312,1.0469-.0937,1.6016-.1562.7227-.0781,1.4922-.1836,2.2969-.3086.6211-.0938,1.2617-.1875,1.9375-.3047.8672-.1523,1.7929-.3281,2.7422-.5117.7382-.1485,1.4648-.2852,2.2539-.4492,1.0156-.2227,2.1133-.4727,3.2187-.7305.836-.1914,1.6446-.3711,2.5274-.5781,1.1992-.293,2.4922-.6289,3.7695-.961.9062-.2226,1.7578-.4336,2.7031-.6875,2.1836-.5703,4.4727-1.207,6.8672-1.8789,1.1797-.3359,2.4492-.7187,3.6758-1.0703,1.3711-.4023,2.7109-.7851,4.1406-1.2148,1.3906-.4102,2.8711-.8672,4.3203-1.3125,1.3789-.418,2.7344-.8203,4.1563-1.2696,1.5547-.4843,3.1719-.9961,4.789-1.5078,1.4063-.4414,2.8164-.8906,4.2696-1.3515,1.7422-.5664,3.5312-1.1407,5.3398-1.7383,1.4219-.461,2.8594-.9375,4.3281-1.418,1.8829-.6211,3.7969-1.2656,5.7461-1.918,1.4844-.4921,2.9922-1.0078,4.5157-1.5195,2.0468-.6914,4.1132-1.3984,6.2265-2.125,1.4414-.4922,2.9219-1.0039,4.3906-1.5078,27.7071-9.582,60.6446-21.6641,97.6407-35.8281.1875-.0625.3789-.1406.5664-.2071,3.5078-1.3515,7.0429-2.707,10.625-4.0898,1.3125-.4961,2.6367-1.0078,3.957-1.5234,3.7617-1.4532,7.543-2.918,11.3828-4.4063,1.0977-.4297,2.211-.8633,3.3125-1.2851,4.1211-1.6133,8.2617-3.2266,12.4649-4.8672.4023-.168.8164-.3321,1.2226-.4883,19.2852-7.5664,39.4102-15.5703,60.211-23.957.9687-.3946,1.9257-.7696,2.8945-1.168,4.3047-1.7266,8.6484-3.4961,13-5.2539,1.0391-.4297,2.0586-.8399,3.1055-1.2617,0-.0039.0039-.0039.0039-.0039,195.0078-139.1993,471.5312-321.0079,682.1718-434.6133,267.6446-144.3438,346.1407-211.1524,467.6719-233.2891,7.4531-1.3555,15.375-2.0625,23.4336-2.2461.0156-.0273.0274-.0469.043-.0664,4.3125-6.8906,7.8242-13.3984,10.5508-19.5117.1132-.2578.2148-.5078.3242-.7578.539-1.2344,1.0586-2.457,1.5273-3.6602.1524-.375.2852-.7461.4297-1.1172.4024-1.0625.7891-2.1171,1.1445-3.1523.1524-.4336.2852-.8633.4258-1.293.3086-.957.6055-1.9062.875-2.8359.1289-.4609.25-.918.3711-1.3711.2305-.8789.4492-1.75.6445-2.6055.1094-.4765.2032-.9492.3008-1.4179.1641-.8125.3086-1.6172.4414-2.4141.0782-.4805.1446-.957.2071-1.4297.1054-.7617.1914-1.5117.2578-2.2617.0429-.4688.0859-.9336.1172-1.4024.039-.7226.0625-1.4335.0703-2.1406.0117-.4531.0234-.914.0117-1.3594-.0117-.6835-.0469-1.3554-.0898-2.0234Z"/>
        <path class="cls-2" d="m1154.4258,574.3903l.0351.0391-53.9922,499.0391,97.7813-487.3242c1.0664-.0743,2.1836-.2227,3.2695-.3321-20.4492,2.0039-37.5859-1.7695-47.0937-11.4219Z"/>
        <path class="cls-2" d="m1220.8359,473.5857l19.711-98.2149c-21.8985,12.7813-44.8282,25.7813-68.7618,38.961l-11.4453,105.7812c9.5664-12.7539,23.6289-25.3867,40.9883-36.0586-5.1719,11.707-5.918,22.8438-1.168,31.8984,13.0157,24.7774,62.2305,24.5665,109.9219-.4843,3.8125-2.0039,7.4766-4.1055,11.0195-6.2891,5.1758-11.7109,5.9532-22.8594,1.2032-31.9141-12.2539-23.3203-56.543-24.4882-101.4688-3.6796Z"/>
      </g>
      <g>
        <g>
          <path class="cls-5" d="m1616.8164,19.5271c-.0469-.0469-.0938-.0899-.1406-.1328-.543-.4883-1.1407-.9805-1.7969-1.4688-.0313-.0273-.0625-.0469-.0938-.0742-2.8203-2.082-6.6523-4.1133-11.2461-6.0078-.0429-.0157-.082-.0313-.125-.0508-11.6015-4.7578-28.0742-8.6797-45.7148-10.5742-.0156,0-.0352-.0039-.0508-.0039h-.0078c-7.1016,2.1211-15.8125,4.1679-25.3164,5.8476-24.8086,4.3789-45.5078,4.5938-46.2344.4766l.0938-.7383v-.0078c-.0742.0234-.1446.0391-.2188.0586-1.9101.4492-3.8008.9414-5.6992,1.418-1.6289.4101-3.2656.8046-4.8867,1.2343-1.8438.4883-3.6719,1.0078-5.5078,1.5196-1.6524.4648-3.3164.914-4.9649,1.3984-1.8086.5273-3.6015,1.0859-5.4023,1.6367-1.6641.5117-3.3281,1.0156-4.9805,1.5508-1.7851.5703-3.5703,1.1641-5.3515,1.7617-1.668.5586-3.336,1.1133-5,1.6953-1.7774.6172-3.5508,1.2578-5.3243,1.8985-1.6679.6015-3.3437,1.2109-5.0195,1.8398-1.7734.6641-3.5469,1.3477-5.3203,2.0352-1.6797.6523-3.3672,1.3125-5.0508,1.9882-1.7851.711-3.5742,1.4454-5.3672,2.1836-1.6875.6954-3.3906,1.4063-5.0859,2.1289-1.8008.7657-3.6016,1.5391-5.4102,2.3282-1.707.7422-3.4218,1.5078-5.1406,2.2773-1.8242.8164-3.6562,1.6367-5.5,2.4844-1.7226.793-3.4648,1.6016-5.2031,2.418-1.8555.8711-3.7149,1.7421-5.586,2.6406-1.7617.8398-3.539,1.7109-5.3125,2.5781-1.9023.9219-3.7968,1.8477-5.7109,2.8008-1.7851.8828-3.5937,1.8047-5.4023,2.7148-1.9336.9805-3.8672,1.9493-5.8282,2.9571-1.8437.9414-3.7148,1.9218-5.5781,2.8945-1.9844,1.0312-3.957,2.0508-5.9726,3.1133-1.8438.9726-3.7305,1.9844-5.5938,2.9844-2.0898,1.1093-4.1562,2.2031-6.2773,3.3476-1.7266.9336-3.5,1.9063-5.2539,2.8594-6,3.2656-12.1094,6.625-18.4102,10.1367-.2344.1289-.4648.2578-.6992.3867-2.6602,1.4805-5.3906,3.0235-8.1016,4.5469-1.6562.9258-3.2734,1.832-4.9414,2.7734-2.7812,1.5664-5.625,3.1875-8.4687,4.8008-1.6758.9531-3.3164,1.8789-5.0118,2.8477-3.0625,1.7422-6.1914,3.5312-9.3281,5.3203-1.5117.8633-3.0039,1.7187-4.5312,2.5898-3.4492,1.9805-6.9727,4-10.5157,6.0352-1.3085.7539-2.6093,1.4961-3.9296,2.2578-10.5196,6.0469-21.5313,12.3906-33,18.9922-1.336.7695-2.6875,1.543-4.0352,2.3164-3.9414,2.2656-7.9297,4.5586-11.9922,6.8945-2.0078,1.1485-4.043,2.3242-6.0898,3.4883-3.6914,2.1211-7.4336,4.2617-11.2266,6.4336-2.2617,1.293-4.5391,2.5898-6.8359,3.9023-3.711,2.1211-7.4883,4.2735-11.3047,6.4454-2.4531,1.3945-4.9141,2.7968-7.4102,4.2109-3.7148,2.1094-7.5,4.2539-11.3086,6.4062-2.7148,1.5391-5.4218,3.0704-8.1914,4.6329-3.8086,2.1445-7.7031,4.332-11.6054,6.5234-2.8321,1.5937-5.6446,3.1719-8.5274,4.7851-4.0117,2.25-8.1367,4.543-12.2578,6.8399-2.9375,1.6367-5.8437,3.2539-8.8359,4.918-4.3086,2.3945-8.7461,4.8437-13.168,7.2812-2.9102,1.6055-5.7617,3.1875-8.7188,4.8164-2.1054,1.1563-4.2656,2.336-6.3945,3.5039l94.2774,2.4883c210.9257-117.2422,285.6484-173.7578,395.4882-193.7656,15.043-2.7383,32.0118-2.8633,48.1289-1.2774-.4257-.5156-.9218-1.0312-1.4726-1.5429Z"/>
          <path class="cls-5" d="m118.4258,863.7733c.1523,1.2265,22.6718-12.625,61.0937-37l-18.1523-7.8789c-28.0274,23.6757-43.6016,39.5742-42.9414,44.8789Z"/>
          <path class="cls-5" d="m297.9687,713.4803h0c-26.1718,19.1641-50.1211,37.0898-71.4882,53.4766l42.539,2.6562c118.1133-75.7148,289.7852-186.1094,456.1016-289.6641l-57.9414-19.9257c-136.5235,88.5078-268.7657,179.8828-369.211,253.457Z"/>
        </g>
        <g>
          <polygon class="cls-4" points="175.5039 756.8709 258.4844 697.3358 55.6015 614.3786 175.5039 756.8709"/>
          <path class="cls-4" d="m921.9297,209.445c-.918,2.418-1.9883,4.8516-3.2188,7.3047l59.2071-5.8242-55.9883-1.4805Z"/>
          <path class="cls-4" d="m656.0625,242.6013l62.4297-6.1406c6.3125-10.6524,15.4414-21.4336,26.7968-31.668L49.4531,186.4411l606.6094,56.1602Z"/>
        </g>
      </g>
      <g>
        <path class="cls-3" d="m430.1445,635.3201c.9024,3.5274-1.2265,7.1094-4.7539,8-3.5234.9102-7.1094-1.2148-8.0078-4.7422-.9023-3.5234,1.2227-7.1132,4.7461-8.0195,3.5273-.8945,7.1172,1.2344,8.0156,4.7617Z"/>
        <path class="cls-3" d="m469.418,611.6989c.8945,3.5196-1.2305,7.1055-4.75,8-3.5274.9102-7.1133-1.2187-8.0196-4.7421-.8945-3.5196,1.2344-7.1172,4.7578-8.0118,3.5274-.8945,7.1172,1.2344,8.0118,4.7539Z"/>
        <path class="cls-3" d="m508.6914,588.0778c.8984,3.5235-1.2266,7.1133-4.7539,8.0157-3.5274.8945-7.1055-1.2305-8.0117-4.7539-.9024-3.5313,1.2304-7.1133,4.75-8.0196,3.5273-.8867,7.1211,1.2305,8.0156,4.7578Z"/>
        <path class="cls-3" d="m547.9687,564.4568c.8985,3.5195-1.2265,7.1093-4.7539,8.0117-3.5273.8984-7.1172-1.2305-8.0156-4.7539-.8984-3.5274,1.2266-7.1094,4.7539-8.0157,3.5352-.8945,7.1133,1.2344,8.0156,4.7579Z"/>
        <path class="cls-3" d="m587.2383,540.8318c.9023,3.5312-1.2227,7.1171-4.75,8.0117-3.5274.9062-7.1094-1.2188-8.0157-4.75-.8945-3.5274,1.2305-7.1133,4.7539-8.0157,3.5274-.8945,7.1133,1.2305,8.0118,4.754Z"/>
        <path class="cls-3" d="m626.5117,517.2146c.9063,3.5312-1.2187,7.1093-4.7578,8.0039-3.5234.9062-7.1016-1.2188-8.0078-4.7383-.9063-3.5352,1.2304-7.1172,4.7578-8.0195,3.5273-.8946,7.1133,1.2265,8.0078,4.7539Z"/>
        <path class="cls-3" d="m665.7812,493.5935c.9024,3.5273-1.2187,7.1093-4.75,8.0078-3.5156.9023-7.1093-1.2227-8.0078-4.7461-.9062-3.5234,1.2305-7.1172,4.75-8.0195,3.5274-.8946,7.1094,1.2382,8.0078,4.7578Z"/>
        <path class="cls-3" d="m1176.3476,186.5232c.8946,3.5195-1.2226,7.1093-4.75,8.0039-3.5273.9023-7.1171-1.2188-8.0156-4.75-.9023-3.5235,1.2305-7.1094,4.7539-8.0118,3.5274-.8945,7.1133,1.2344,8.0117,4.7579Z"/>
        <path class="cls-3" d="m1215.625,162.9021c.8945,3.5234-1.2305,7.1132-4.7617,8.0078-3.5157.8984-7.1016-1.2305-8.0039-4.75-.8985-3.5274,1.2265-7.1133,4.75-8.0156,3.5195-.8946,7.1171,1.2304,8.0156,4.7578Z"/>
        <path class="cls-3" d="m1254.8906,139.2771c.9024,3.5234-1.2187,7.1132-4.7461,8.0078-3.5312.9062-7.1172-1.2227-8.0117-4.7461-.9063-3.5274,1.2227-7.1133,4.75-8.0156,3.5273-.8946,7.1133,1.2265,8.0078,4.7539Z"/>
        <path class="cls-3" d="m1294.168,115.656c.8945,3.5351-1.2305,7.1172-4.75,8.0117-3.5274.8984-7.1133-1.2266-8.0118-4.7578-.8984-3.5235,1.2227-7.1055,4.75-8.0078,3.5274-.8946,7.1133,1.2265,8.0118,4.7539Z"/>
        <path class="cls-3" d="m1333.4414,92.0349c.8984,3.5273-1.2188,7.1211-4.7539,8.0078-3.5274.9062-7.1094-1.2227-8.0156-4.7422-.8946-3.5273,1.2304-7.1211,4.7578-8.0195,3.5312-.8985,7.1172,1.2343,8.0117,4.7539Z"/>
        <path class="cls-3" d="m1372.7187,68.4216c.8946,3.5234-1.2304,7.1016-4.7578,8.0039-3.5234.9063-7.1133-1.2305-8.0117-4.7461-.8945-3.5234,1.2344-7.125,4.7578-8.0234,3.5274-.8907,7.1055,1.2343,8.0117,4.7656Z"/>
        <path class="cls-3" d="m1411.9844,44.7927c.9062,3.5273-1.2266,7.1133-4.7539,8.0078-3.5196.9023-7.1055-1.2187-8.004-4.75-.8945-3.5195,1.2266-7.1016,4.75-8.0078,3.5235-.8906,7.1172,1.2305,8.0079,4.75Z"/>
        <path class="cls-3" d="m1316.6094,486.1638c3.0312,11.25.789,21.6406-4.9961,23.1953-5.793,1.5625-12.9453-6.293-15.9805-17.543-3.0273-11.2539-.7891-21.6367,5.0039-23.1953,5.7891-1.5586,12.9414,6.2969,15.9727,17.543Z"/>
        <path class="cls-3" d="m915.0156,185.1716c3.6797,13.6602.9609,26.2656-6.0703,28.1602-7.0273,1.8945-15.7109-7.6446-19.3906-21.3047-3.6797-13.6524-.9688-26.2618,6.0703-28.1602,7.0273-1.8906,15.7109,7.6484,19.3906,21.3047Z"/>
      </g>
      <g>
        <path class="cls-1" d="m212.0625,840.9139l-13.5117,124.8203,19.1523-11.3672,91.6016-149.1445c-36.9961,14.164-69.9336,26.2461-97.6407,35.8281.1329-.0508.2618-.0937.3985-.1367Z"/>
        <polygon class="cls-1" points="725.1211 479.9489 769.0078 495.0427 1222.4648 217.3669 1073.8242 213.4528 853.9609 348.0818 0 230.5778 667.1797 460.0232 725.1211 479.9489"/>
        <polygon class="cls-1" points="269.0195 769.6131 226.4805 766.9569 129.8398 760.9256 57.2422 756.4021 38.6367 765.617 193.4375 800.0115 274.1836 769.9295 269.0195 769.6131"/>
        <path class="cls-1" d="m845.6914,283.9177c36.7617-19.3086,63.9141-46.1172,74.8203-70.8242-4.3203,2.6523-8.7812,5.2148-13.4141,7.6484-57.9101,30.4141-117.6601,30.6758-133.4648.5859-5.7656-10.9843-4.8555-24.5078,1.418-38.7226-49.6133,30.5039-77.3477,74.2109-62.8164,101.8984,15.8046,30.086,75.5546,29.8242,133.457-.5859Z"/>
        <path class="cls-1" d="m1240.5469,375.3708c206.3671-120.4726,323.0507-222.25,364.7812-288.8086-8.0586.1836-15.9805.8906-23.4336,2.2461-121.5312,22.1367-200.0273,88.9453-467.6719,233.2891-210.6406,113.6054-487.164,295.414-682.1718,434.6133,131.0312-53.2149,286.6875-120.4414,433.6718-189l142.3438,704.5976,58.6875-30.8047,33.7148-168.0351h0l53.9922-499.0391-.0351-.0391c9.5078,9.6524,26.6445,13.4258,47.0937,11.4219,1.168-.1133,2.3203-.1992,3.5078-.3554.9961-.125,2.0157-.3125,3.0196-.4649,1.4609-.2266,2.914-.4297,4.3945-.707.832-.1563,1.6914-.3594,2.5234-.5391,1.6797-.3437,3.3516-.6797,5.0508-1.0937.7969-.1993,1.6055-.4414,2.4063-.6485,1.7656-.4609,3.5273-.9179,5.3125-1.4492.875-.2617,1.7656-.582,2.6367-.8594,1.7344-.5507,3.457-1.082,5.1992-1.6992,1.0977-.3945,2.207-.8476,3.3164-1.2617,1.5352-.582,3.0625-1.1328,4.6055-1.7656,1.4961-.6133,3-1.3008,4.5-1.9688,1.164-.5117,2.332-.9804,3.4961-1.5273,2.6757-1.2461,5.3515-2.5703,8.0195-3.9727,2.6602-1.3945,5.2266-2.8554,7.7617-4.3359.5703-.3399,1.1445-.6719,1.711-1.0117,2.4335-1.4649,4.8242-2.961,7.1328-4.5.3828-.2578.75-.5196,1.1289-.7735,2.0273-1.3789,3.9961-2.7734,5.914-4.1992.5-.3672,1-.7266,1.4922-1.0937,2.0781-1.5743,4.0899-3.1758,6.0313-4.793.5156-.4336,1.0234-.875,1.5273-1.3086,1.6328-1.3984,3.211-2.8047,4.7422-4.2305.3867-.3633.7891-.7187,1.1719-1.0859,1.7031-1.625,3.3164-3.2656,4.875-4.9141.5351-.5625,1.0547-1.125,1.5703-1.6914,1.3633-1.4922,2.6758-2.9883,3.9141-4.4961.4414-.5351.8593-1.0664,1.289-1.6015,1.0781-1.3633,2.1094-2.7305,3.0899-4.1016.457-.6406.9179-1.2812,1.3554-1.9219,1.0703-1.5781,2.086-3.1601,3.0196-4.7343.3554-.6016.6679-1.2071,1.0039-1.8086.6484-1.1758,1.2656-2.3516,1.8359-3.5313.3047-.6328.6289-1.2695.9102-1.8984.0468-.1016.1015-.2071.1484-.3047-.0117.0039-.0234.0117-.0313.0156-3.5429,2.1836-7.207,4.2852-11.0195,6.2891-47.6914,25.0508-96.9062,25.2617-109.9219.4843-4.75-9.0546-4.0039-20.1914,1.168-31.8984-17.3594,10.6719-31.4219,23.3047-40.9883,36.0586l11.4453-105.7812c23.9336-13.1797,46.8633-26.1797,68.7618-38.961Z"/>
        <path class="cls-1" d="m1532.3242,7.0622c9.5039-1.6797,18.2148-3.7265,25.3242-5.8476-16.6484-1.7774-34.3281-1.7578-49.9492,1.0898-7.3125,1.3281-14.4648,2.8242-21.5156,4.4883l-.0938.7461c.7266,4.1172,21.4258,3.9023,46.2344-.4766Z"/>
      </g>
    </g>
  </g>
</svg>