<?xml version="1.0" encoding="UTF-8"?>
<svg id="Lager_2" data-name="Lager 2" xmlns="http://www.w3.org/2000/svg" viewBox="0 0 188.55 322.5719">
  <defs>
    <style>
      .cls-1 {
        isolation: isolate;
        opacity: .4;
      }

      .cls-1, .cls-2 {
        fill: #56271e;
      }

      .cls-1, .cls-2, .cls-3 {
        stroke-width: 0px;
      }

      .cls-3 {
        fill: #006c90;
      }
    </style>
  </defs>
  <g id="Layer_1" data-name="Layer 1">
    <g>
      <g>
        <path class="cls-2" d="m182.561,264.2763c-.436-2.166-.863-4.329-1.289-6.495-.375-4.94-1.834-10.262-2.568-14.549-.234-1.367-.496-2.727-.75-4.091-1.988-12.6-4.473-25.164-6.963-37.714-1.104-5.813-2.225-11.623-3.141-17.477-.641-4.063-.375-11.144-2.393-15.527,3.041-23.229,7.285-46.473,11.318-69.344,2.686-15.212,4.502-30.586,6.693-45.874,1.914-13.357,2.342-27.094-.076-40.395.641-.706,1.178-1.779.867-2.106.783-2.799,1.873-7.064,1.006-9.364-1.074-2.845-6.635.231-8.119.673-15.422,4.63-29.619,8.391-45.846,9.15-10.395.484-20.52-.196-30.699-1.328-.211-.102-.486-.117-.791-.084-3.525-.399-7.055-.849-10.609-1.325-6.453-.858-12.877-2.202-19.244-3.554C63.51,3.5033,57.025.9433,50.557.0023c-.15-.021-.35.102-.521.276-3.059.44-3.389,6.28-3.719,9.624-.021.216-.002.426.031.634-1.709,19.039-8.863,36.903-15.367,54.738-6.365,17.449-12.844,34.85-18.758,52.453-1.455,3.857-2.881,7.722-4.125,11.664-.039.053-.068.104-.08.145-1.318,3.992-2.451,8.036-3.424,12.117-.582,1.997-1.186,3.987-1.793,5.976C.979,164.7673.041,181.9814.012,199.2274c0,.02-.01.027-.012.046.402,9.265,1.205,18.482,2.289,27.541,2.191,18.321,5.916,36.26,10.213,54.08.123.099.232.227.283.422,3.375,12.722,6.383,25.555,10.291,38.123,8.748,5.438,22.244,2.648,31.381.197,9.432-2.53,18.877-6.634,25.545-13.759-.363-1.501-.609-3.018-.652-4.545-3.881-18.62-8.148-37.321-12.549-55.774-5.313-22.283-9.098-44.929-8.398-67.729.178-.771.34-1.509.484-2.189,1.834-5.707,4.678-10.907,6.941-16.404,6.299-12.916,12.57-25.845,18.738-38.843,5.445-11.467,10.412-23.207,14.67-35.159.258-.719.523-1.456.793-2.202,4.846,7.348,6.211,16.685,6.92,25.843-.334,13.728-.939,27.458-1.412,41.157-.674,19.492.703,39.494,3.002,58.848.219,1.863.457,3.749.703,5.645.295,4.285.717,8.578,1.438,12.951,1.865,11.333,4.18,22.567,6.74,33.762,1.623,7.112,3.438,14.326,5.438,21.535,3.541,10.51,7.621,20.846,11.352,31.296,9.824,4.913,21.234,2.6,31.592-.312,7.438-2.092,16.809-5.461,22.748-11.342-1.964-12.719-4.104-25.412-5.989-38.139Z"/>
        <path class="cls-3" d="m179.932,57.7663c-.244,1.687-.479,3.376-.717,5.063-8.695-.011-14.727-2.452-19.018-10.741-4.127-7.967-3.18-19.678-3.17-28.729.498-.13,1-.253,1.498-.386,7.984-2.131,15.285-6.152,22.969-9.099.074.049.182.049.303.024-.111,1.102-.236,2.088-.221,2.317.277,4.523.377,9.064.424,13.592.1,9.34-.74,18.728-2.068,27.959Z"/>
        <path class="cls-3" d="m141.758,13.1763c4.375-.512,8.73-1.181,13.045-2.036,6.182-1.225,12.1-3.265,18.07-5.242,1.645-.545,3.297-1.051,4.941-1.574,2.471-2.052,5.031-3.373,5.846-.814.662,2.081-.123,5.717-1.582,7.361-.072.083-.16.143-.238.221-.02.105-.039.217-.055.316-.195.08-.383.16-.578.237-1.059.779-2.336,1.176-3.635,1.514-8.342,3.547-16.445,7.354-25.484,9.258-3.557.752-7.203,1.385-10.887,1.89.061-.361.082-.729.043-1.095-.347-3.347.258-6.699.514-10.036Z"/>
        <path class="cls-3" d="m183.12,2.5563c-12.01,9.882-26.639,15.723-41.973,18.499,0,.718.023,1.438.098,2.155.039.366.018.733-.043,1.095,3.684-.505,7.33-1.138,10.887-1.89,9.039-1.904,17.143-5.711,25.484-9.258,1.299-.338,2.576-.734,3.635-1.514.195-.077.383-.157.578-.237.016-.099.035-.21.055-.316.078-.078.166-.138.238-.221,1.459-1.644,2.244-5.28,1.582-7.361-.135-.422-.321-.727-.541-.952Z"/>
        <path class="cls-3" d="m137.03,18.7453c.008-1.718.174-3.404.156-5.098.844-.076,1.693-.153,2.535-.241-.023,2.215-.271,4.445-.291,6.676-.008.961-.07,1.916-.053,2.882.01.751.074,1.246-.119,1.596-.611.075-1.223.15-1.834.218-.775-1.3-.4-5.418-.394-6.033Z"/>
        <path class="cls-3" d="m95.979,12.6773c6.842.85,13.727,1.387,20.564,1.594,6.357.19,12.729.031,19.07-.478-.168,3.685-.463,7.349-.469,11.046,0,.055.008.094.008.147-7.023.623-14.098.646-20.928-.305-4.588-.638-9.172-1.135-13.758-1.624-1.428-.604-2.791-1.355-4.063-2.239-2.418-1.685-3.701-6.47-.424-8.141Z"/>
        <path class="cls-3" d="m135.202,21.9623c-4.535.587-9.102.946-13.66,1.062-7.6.196-15.18-.022-22.711-.761.539.28,1.078.557,1.637.794,4.586.489,9.17.986,13.758,1.624,6.83.951,13.904.928,20.928.305,0-.054-.008-.093-.008-.147-.001-.96.024-1.919.056-2.877Z"/>
        <path class="cls-3" d="m79.653,10.0153c4.865.996,9.795,1.811,14.748,2.464-1.066,1.216-1.883,2.707-2.162,3.903-.543,2.328.146,4.334,1.5,5.946-5.18-.579-10.355-1.225-15.537-2.136-1.143-.203-2.311-.393-3.475-.588.822-3.33,1.613-6.741,2.084-10.14.947.185,1.9.36,2.842.551Z"/>
        <path class="cls-3" d="m77.43,18.5983c-.764-.192-1.539-.388-2.32-.581-.127.531-.254,1.063-.383,1.588,1.164.195,2.332.385,3.475.588,5.182.911,10.357,1.557,15.537,2.136-.195-.231-.369-.475-.535-.72-5.293-.714-10.559-1.694-15.774-3.011Z"/>
        <path class="cls-3" d="m75.836,9.2783c-.557,2.078-1.162,4.139-1.682,6.237-.314,1.266-.726,2.529-1.017,3.811-1.045-.179-2.092-.356-3.133-.559,1.131-3.307,1.807-6.715,2.529-10.132,1.104.214,2.202.429,3.303.643Z"/>
        <path class="cls-3" d="m48.879,3.3793c.139-.576.465-1.017,1.023-1.258.1-.077.17-.178.275-.25,1.725-1.145,4.891.567,6.406,1.114,2.998,1.08,5.988,2.028,9.031,2.947,1.51.451,3.93,1.069,5.014,2.334.252.047.498.102.75.148-.096.263-.172.528-.256.791.121.511.063,1.094-.281,1.782-.086.172-.207.267-.338.336-.293,1.114-.57,2.239-.918,3.347-.363,1.173-.705,2.393-1.037,3.578-.02.069-.043.135-.068.202-2.373-.506-4.709-1.119-6.932-1.961-.984-.375-2.953-1.254-4.643-1.986-1.457-.458-2.9-1.214-4.264-1.591-1.041-.29-3.373-.514-3.791-1.864-.66-2.164-1.135-5.465.029-7.669Z"/>
        <path class="cls-3" d="m48.879,3.3793c.139-.576.465-1.017,1.023-1.258.1-.077.17-.178.275-.25,1.725-1.145,4.891.567,6.406,1.114,2.998,1.08,5.988,2.028,9.031,2.947,1.51.451,3.93,1.069,5.014,2.334.252.047.498.102.75.148-.096.263-.172.528-.256.791.121.511.063,1.094-.281,1.782-.086.172-.207.267-.338.336-.293,1.114-.57,2.239-.918,3.347-.363,1.173-.705,2.393-1.037,3.578-.02.069-.043.135-.068.202-2.373-.506-4.709-1.119-6.932-1.961-.984-.375-2.953-1.254-4.643-1.986-1.457-.458-2.9-1.214-4.264-1.591-1.041-.29-3.373-.514-3.791-1.864-.66-2.164-1.135-5.465.029-7.669Z"/>
        <path class="cls-3" d="m48.235,7.9013c.105,1.137.342,2.243.617,3.148.418,1.351,2.75,1.574,3.791,1.864,1.363.377,2.807,1.133,4.264,1.591,1.689.732,3.658,1.611,4.643,1.986,2.223.842,4.559,1.455,6.932,1.961.025-.067.049-.133.068-.202.164-.587.346-1.178.516-1.772-7.302-1.937-14.737-4.37-20.831-8.576Z"/>
        <path class="cls-3" d="m48.305,13.3563c2.76,2.246,7.6,3.921,9.445,4.672,1.541.629,3.119,1.148,4.709,1.626-.07,2.169-1.771,6.085-2.164,7.371-1.365,4.464-2.793,8.854-4.582,13.171-2.375,5.721-6.822,9.033-12.506,10.903-1.924.635-2.949.154-4.578,1.201-.098.06-.207.172-.32.306.07-.198.148-.396.215-.591,4.482-12.352,9.369-25.383,9.781-38.659Z"/>
        <path class="cls-3" d="m95.477,88.8463c-4.385,11.948-9.725,23.643-15.225,35.116-5.57,11.616-10.518,23.533-16.316,35.049-3.426,6.805-7.01,13.525-10.209,20.416-1.23,3.68-2.324,7.399-3.41,11.128,1.359-2.696,2.826-5.335,3.957-8.146.338-.841,1.658-.793,1.658.226.002,9.059.199,18.043,1.539,27.018,1.232,8.247,2.781,16.444,3.816,24.724.029.238-.039.413-.152.547.521,2.508,1.045,5,1.559,7.468,2.768,13.301,5.879,26.526,8.771,39.798,1.752,8.04,3.184,16.186,5.061,24.194-.459.334-.939.635-1.406.955-.039.208-.162.404-.398.54-2.291,1.322-4.629,2.563-6.895,3.92-1.221.728-2.479,1.449-3.863,1.646-5.4,2.343-11.086,4.085-16.916,5.272-5.234,1.064-11.34,1.121-16.537.142-1.967-.371-4.143-1.98-6.148-2.999-1.674-7.453-3.697-14.83-5.66-22.221-.441-1.484-.816-2.98-1.137-4.499-.018,0-.029.006-.043.007-1.029-3.995-2.016-8.002-2.871-12.036-3.492-16.457-6.865-32.95-9.141-49.628-3.68-26.965-4.635-55.129-.066-82.211.391-1.32.801-2.631,1.256-3.918,1.166-3.271,2.506-6.47,3.857-9.665,1.775-5.815,3.621-11.563,5.502-17.213,6.684-20.076,14.236-39.876,21.479-59.759.117.138.346.17.764.004,3.904-1.546,7.332-1.35,10.984-4.006,3.18-2.316,5.639-4.926,7.523-8.403,2.342-4.313,3.779-9.432,5.094-14.134.473-1.699,2.111-5.331,2.268-8.035,2.906.791,5.867,1.415,8.85,1.948.01,0,.018.007.029.007,3.338.597,6.693,1.109,9.998,1.692,3.057.543,6.154,1.032,9.268,1.493-.107,4.098-1.918,8.084-2.395,12.111-.746,6.317-1.43,12.634-2.209,18.951-.578,4.687-.568,9.687.576,14.266.992,3.963,5.137,6.367,8.205,8.652.119.089.291.025.451-.102.545.568,1.063,1.156,1.547,1.76-1.033,2.732-2.087,5.401-3.015,7.925Z"/>
        <path class="cls-3" d="m6.25,189.2243c.297-25.083,4.356-49.657,12.561-73.381,7.299-21.102,17.682-41.088,24.127-62.472-1.498.369-3.025.712-4.637,1.349-.418.166-.646.134-.764-.004-7.242,19.883-14.795,39.683-21.479,59.759-1.881,5.65-3.727,11.397-5.502,17.213-1.352,3.195-2.691,6.394-3.857,9.665-.455,1.287-.865,2.598-1.256,3.918-4.568,27.082-3.613,55.246.066,82.211,1.676,12.28,3.947,24.462,6.422,36.601-3.313-24.705-5.972-49.918-5.681-74.859Z"/>
        <path class="cls-1" d="m96.19,80.2783c-9.941-.215-19.781-1.703-29.66-2.763,5.938,2.343,11.934,4.517,18.08,6.279.406.116.764.607.592,1.04-2.008,4.984-5.039,9.349-7.678,13.998-2.938,5.171-5.404,10.672-7.646,16.178-4.488,11.015-8.109,22.348-12.35,33.454-4.482,11.742-8.203,23.728-11.432,35.872-1.621,6.087-3.525,11.901-5.795,17.782-1.836,4.764-3.582,9.542-4.453,14.561,4.465-5.553,7.769-11.889,11.355-18.044.35-.599,1.393-.53,1.543.204,3.621,17.798,4.521,35.953,6.848,53.937,1.719,13.292,6.891,26.97,5.428,40.501-1.162,10.757-8.223,20.029-19.334,21.896-6.375,1.072-12.762.014-18.188-2.964.291,1.217.588,2.429.861,3.649,2.006,1.019,4.182,2.628,6.148,2.999,5.197.979,11.303.922,16.537-.142,5.83-1.188,11.516-2.93,16.916-5.272,1.385-.196,2.643-.918,3.863-1.646,2.266-1.358,4.604-2.598,6.895-3.92.236-.136.359-.332.398-.54.467-.32.947-.621,1.406-.955-1.877-8.009-3.309-16.154-5.061-24.194-2.893-13.271-6.004-26.497-8.771-39.798-.514-2.468-1.037-4.96-1.559-7.468.113-.134.182-.309.152-.547-1.035-8.279-2.584-16.477-3.816-24.724-1.34-8.975-1.537-17.96-1.539-27.018,0-1.019-1.32-1.066-1.658-.226-1.131,2.811-2.598,5.45-3.957,8.146,1.086-3.729,2.18-7.448,3.41-11.128,3.199-6.891,6.783-13.611,10.209-20.416,5.799-11.516,10.746-23.433,16.316-35.049,5.5-11.474,10.84-23.168,15.225-35.116.928-2.524,1.982-5.193,3.014-7.925-.184-.228-.387-.438-.578-.657-.573-.001-1.145.027-1.721.016Z"/>
        <path class="cls-3" d="m99.504,79.6653c-.918-.934-1.879-1.729-2.916-2.42-2.125-2.847-4.975-5.238-6.242-8.62-1.992-5.308-.635-13.274.133-18.658.773-5.416.73-10.964,1.902-16.315.504-2.302,1.69-5.461,1.582-8.123,4.621.655,9.291,1.196,13.967,1.589-3.258,5.222-7.363,41.903-8.426,52.547Z"/>
        <path class="cls-3" d="m149.407,314.3863c-2.926.447-9.719-.056-13.109-2.357-5.197-15.772-11.119-31.349-15.209-47.504-.127-.494-.238-.993-.354-1.488-.064-.215-.133-.428-.191-.642-2.336-8.405-4.379-16.9-5.898-25.495-2.592-14.636-4.143-29.331-4.715-44.145-1.422-15.846-1.914-31.944-1.289-47.734.43-10.844.844-21.692,1.182-32.543-.447-5.354-1.098-10.675-2.441-15.857-1.338-5.151-3.076-10.936-6.426-15.251.203-.266.344-.533.359-.737,1.502-17.988,4.287-35.786,8.361-53.373,8.084.615,16.18.755,24.115.162.777-.058,1.559-.162,2.336-.238.59.192,1.453.064,2.662-.185.137-.027.256-.082.383-.121,5.436-.689,10.861-1.771,16.16-3.085-1.523,9.856-1.014,21.338,2.385,30.689,3.348,9.216,11.996,11.411,20.746,11.214.115-.002.238-.051.363-.107-1.936,13.803-3.811,27.612-6.314,41.324-2.826,15.446-4.916,31.095-7.438,46.594-1.18,7.258-2.592,14.807-3.65,22.38.047,1.505.105,3.013.186,4.517.189,3.693.828,7.418,1.285,11.137.355-3.901.746-7.805,1.182-11.714.334,4.091,1.059,8.17,1.648,12.208.818,5.607,1.916,11.145,2.998,16.691.166.883.338,1.764.508,2.646.24,1.251.486,2.505.721,3.76.652,3.52,1.441,7.118,2.268,10.757,1.023,4.801,2.043,9.567,2.977,14.29.889,4.49,1.658,9.004,2.408,13.521.494,2.28.975,4.56,1.436,6.846,1.016,5.014,1.711,10.082,2.424,15.146.152.779.299,1.561.461,2.337,1.688,8.052,3.535,16.173,5.119,24.315-4.57,4.365-14.535,7.182-19.867,8.526-5.866,1.477-11.798,2.6-17.772,3.516Z"/>
        <path class="cls-3" d="m115.504,227.9293c-3.303-18.458-4.963-36.778-5.85-55.501-.334-6.975-.68-13.954-1.201-20.917-.279,13.695.25,27.563,1.477,41.242.572,14.814,2.123,29.51,4.715,44.145,1.52,8.595,3.563,17.09,5.898,25.495.059.215.127.428.191.642.115.495.227.994.354,1.488,2.014,7.957,4.477,15.77,7.072,23.537-4.966-19.873-9.054-39.983-12.656-60.131Z"/>
        <path class="cls-1" d="m109.823,112.4763c-.338,10.851-.752,21.699-1.182,32.543-.104,2.682-.168,5.378-.209,8.074,1.785-9.548,3.725-19.078,5.217-28.679,1.037-6.685,1.916-13.414,2.273-20.173.197-3.731.123-7.602.93-11.276,1.303-5.93,4.9-9.389,10.295-11.43,4.084-1.95,8.75-3.2,12.479-5.65-12.764,1.176-25.453,3.928-38.273,4.35-.012.131-.025.263-.037.395-.016.204-.156.472-.359.737,3.35,4.315,5.088,10.1,6.426,15.251,1.342,5.183,1.992,10.505,2.44,15.858Z"/>
        <path class="cls-1" d="m181.924,278.0263c-.162-.775-.309-1.558-.461-2.337-.713-5.064-1.408-10.133-2.424-15.146-.461-2.286-.941-4.565-1.436-6.846-.75-4.518-1.52-9.031-2.408-13.521-.934-4.723-1.953-9.489-2.977-14.29-.826-3.639-1.615-7.236-2.268-10.757-.234-1.255-.48-2.509-.721-3.76-.17-.883-.342-1.764-.508-2.646-1.082-5.547-2.18-11.084-2.998-16.691-.59-4.038-1.314-8.117-1.648-12.208-.436,3.909-.826,7.813-1.182,11.714-.457-3.719-1.096-7.443-1.285-11.137-.08-1.504-.139-3.012-.186-4.517,1.059-7.573,2.471-15.122,3.65-22.38,2.521-15.499,4.611-31.147,7.438-46.594,2.504-13.712,4.379-27.522,6.314-41.324-.125.057-.248.105-.363.107-8.75.197-17.398-1.998-20.746-11.214-3.398-9.351-3.908-20.833-2.385-30.689-.607.152-1.225.29-1.836.434-2.34,11.228-3.6,23.985,2.004,34.097.377.688.82,1.382,1.279,2.078,2.648,2.57,5.85,4.515,8.037,7.572,2.789,3.902,2.658,8.385,1.826,12.958-1.336,7.347-3.203,14.543-4.424,21.924-1.256,7.604-2.201,15.26-3.504,22.854-2.688,15.694-4.961,31.455-7.111,47.232-2.021,14.848-6.049,29.406-7.938,44.252,4.469-7.271,7.07-15.468,10.543-23.257.336-.75,1.307-.383,1.547.201,7.557,18.673,8.32,38.628,12.504,58.085,1.799,8.386,4.154,16.641,5.322,25.152.826,6.062,1.275,13.512-1.795,19.096-4.848,8.818-16.699,12.982-26.162,13.774-3.271.274-6.818.153-10.123-.589.264.792.533,1.584.795,2.375,3.391,2.302,10.184,2.805,13.109,2.357,5.975-.916,11.906-2.039,17.77-3.518,5.332-1.345,15.297-4.161,19.867-8.526-1.581-8.142-3.428-16.263-5.116-24.315Z"/>
      </g>
      <path class="cls-1" d="m181.577,16.2163c-.016-.229.109-1.216.221-2.317-.121.024-.229.024-.303-.024-2.098.803-4.162,1.691-6.223,2.594,1.816,13.51,1.398,28.406-4.316,40.738-.156.34-.615.479-.955.388-7.355-1.974-10.578-9.916-12.73-16.79.4,4.097,1.23,8.009,2.928,11.283,4.291,8.289,10.322,10.73,19.018,10.741.238-1.687.473-3.376.717-5.063,1.328-9.231,2.168-18.619,2.068-27.958-.048-4.528-.148-9.069-.425-13.592Z"/>
      <path class="cls-1" d="m58.819,18.4263c-1.063,11.502-6.627,24.785-18.059,27.399-.742,2.079-1.494,4.146-2.236,6.19-.066.195-.145.392-.215.591.113-.134.223-.246.32-.306,1.629-1.047,2.654-.566,4.578-1.201,5.684-1.87,10.131-5.183,12.506-10.903,1.789-4.316,3.217-8.707,4.582-13.171.393-1.286,2.094-5.202,2.164-7.371-1.226-.367-2.441-.781-3.64-1.228Z"/>
    </g>
  </g>
</svg>