<svg width="198" height="195" viewBox="0 0 198 195" fill="none" xmlns="http://www.w3.org/2000/svg">
<path d="M161.7 43.4688H90.222L83.325 20.3125H36.3C27.6787 20.3125 20.625 27.2594 20.625 35.75V136.094C20.625 144.584 27.6787 151.531 36.3 151.531H91.1625L99 174.688H161.7C170.321 174.688 177.375 167.741 177.375 159.25V58.9062C177.375 50.4156 170.321 43.4688 161.7 43.4688ZM61.1449 117.492C43.5105 117.492 29.0895 103.366 29.0895 85.9219C29.0895 68.4775 43.4321 54.3522 61.1449 54.3522C69.2959 54.3522 76.7415 57.2081 82.6196 62.6113L83.1682 63.0744L73.5281 72.1825L73.0579 71.7966C70.785 69.7125 66.9446 67.2425 61.1449 67.2425C50.8778 67.2425 42.4916 75.6559 42.4916 85.9219C42.4916 96.1878 50.8778 104.601 61.1449 104.601C71.8823 104.601 76.5064 97.8859 77.7604 93.3319H60.4395V81.3678H91.3976L91.476 81.9081C91.7895 83.5291 91.8679 84.9956 91.8679 86.6166C91.8679 104.756 79.2495 117.492 61.1449 117.492V117.492ZM108.405 104.293C110.991 108.924 114.205 113.401 117.732 117.414L113.499 121.505L108.405 104.293V104.293ZM114.44 98.4262H106.681L104.251 90.3987H135.523C135.523 90.3987 132.858 100.51 123.296 111.548C119.221 106.762 116.321 102.054 114.44 98.4262V98.4262ZM169.538 159.25C169.538 163.495 166.011 166.969 161.7 166.969H106.838L122.513 151.531L116.164 130.15L123.375 123.049L144.379 143.812L150.101 138.178L128.861 117.492C135.915 109.541 141.401 100.124 143.909 90.3987H153.863V82.3712H125.334V74.3438H117.183V82.3712H101.821L92.5733 51.1875H161.7C166.011 51.1875 169.538 54.6609 169.538 58.9062V159.25Z" fill="#1D4E89"/>
</svg>
