<?xml version="1.0" encoding="UTF-8"?>
<svg id="Lager_2" data-name="Lager 2" xmlns="http://www.w3.org/2000/svg" viewBox="0 0 168.3571 304.7936">
  <defs>
    <style>
      .cls-1, .cls-2 {
        opacity: .2;
      }

      .cls-1, .cls-2, .cls-3, .cls-4, .cls-5 {
        stroke-width: 0px;
      }

      .cls-1, .cls-4 {
        fill: #407bff;
      }

      .cls-2, .cls-5 {
        fill: #fff;
      }

      .cls-3 {
        fill: #263238;
      }
    </style>
  </defs>
  <g id="Smartphone">
    <g>
      <g>
        <path class="cls-4" d="m154.6582,0H39.57c-8.0384,0-15.0416,6.5771-15.5626,14.6152L6.1476,290.1782c-.5209,8.0386,5.6297,14.6152,13.6682,14.6152h115.0881c8.0385,0,15.0416-6.5766,15.5626-14.6152l12.8364-198.0552c1.0853-.3798,1.9189-1.3872,1.9959-2.5742l2.2966-35.435c.0769-1.1871-.6263-2.1944-1.6622-2.5747l2.3931-36.9239c.521-8.0381-5.6297-14.6152-13.6681-14.6152Z"/>
        <path class="cls-4" d="m14.6906,71.3496h2.2525c1.4269,0,2.6699-1.1675,2.7624-2.5942l.9587-14.7915c.0924-1.4268-.9993-2.5943-2.4261-2.5943h-2.2526c-1.4268,0-2.6699,1.1675-2.7624,2.5943l-.9587,14.7915c-.0924,1.4267.9993,2.5942,2.4262,2.5942Z"/>
        <path class="cls-4" d="m12.9784,97.7661h2.2526c1.4268,0,2.6699-1.1675,2.7624-2.5942l.9587-14.7915c.0924-1.4268-.9993-2.5943-2.4262-2.5943h-2.2525c-1.4269,0-2.6699,1.1675-2.7624,2.5943l-.9587,14.7915c-.0924,1.4267.9993,2.5942,2.4261,2.5942Z"/>
      </g>
      <path class="cls-3" d="m128.787,304.7936H13.6989c-8.0385,0-14.1891-6.5769-13.6681-14.6153L17.8905,14.6155C18.4115,6.577,25.4147.0001,33.4532.0001h115.0881C156.5798.0001,162.7304,6.577,162.2094,14.6155l-17.8597,275.5628c-.521,8.0384-7.5242,14.6153-15.5627,14.6153Z"/>
      <ellipse class="cls-2" cx="72.4474" cy="286.2103" rx="10.1578" ry="9.5205" transform="translate(-178.6835 130.9743) rotate(-44.0731)"/>
      <path class="cls-5" d="m139.1913,269.0163H8.3543c-1.8814,0-3.3714-1.5897-3.2497-3.4672L20.421,29.2289c.111-1.7132,1.5329-3.046,3.2497-3.046h130.837c1.8814,0,3.3714,1.5897,3.2497,3.4672l-15.3163,236.3202c-.1111,1.7132-1.533,3.046-3.2498,3.046Z"/>
      <ellipse class="cls-1" cx="78.6432" cy="151.0288" rx="36.8764" ry="34.5626" transform="translate(-82.9097 97.2226) rotate(-44.0726)"/>
      <path class="cls-1" d="m75.0737,206.1095c-30.3721,0-53.4796-24.7091-51.5112-55.0807,1.9685-30.3717,28.2789-55.0808,58.651-55.0808s53.4786,24.7091,51.5101,55.0808c-1.9684,30.3716-28.2788,55.0807-58.6499,55.0807Zm7.075-109.1615c-29.8204,0-55.6535,24.2605-57.5862,54.0808-1.9327,29.8202,20.7557,54.0807,50.576,54.0807s55.6524-24.2605,57.5851-54.0807c1.9328-29.8203-20.7546-54.0808-50.5749-54.0808Z"/>
      <path class="cls-4" d="m70.1155,168.3351l-2.9783-5.7809c-6.4981-12.6118-21.4742-23.8847-26.6964-27.1641l4.9397-7.3915c6.1838,3.8835,18.5556,13.4948,26.321,24.9087,14.3401-16.9866,34.6224-34.5095,61.7792-53.3965l4.6299,6.9788c-29.0182,20.1811-49.8714,38.6335-63.7521,56.4117l-4.243,5.4338Z"/>
      <ellipse class="cls-2" cx="66.002" cy="12.9526" rx="4.1146" ry="3.8564" transform="translate(9.5724 49.5549) rotate(-44.0719)"/>
      <path class="cls-2" d="m80.0215,8.9692h33.0929c2.1909,0,3.8672,1.7925,3.7252,3.9834h0c-.142,2.1909-2.0507,3.9834-4.2415,3.9834h-33.093c-2.1908,0-3.8672-1.7925-3.7252-3.9834h0c.142-2.1909,2.0507-3.9834,4.2416-3.9834Z"/>
    </g>
  </g>
</svg>