<?xml version="1.0" encoding="UTF-8"?>
<svg id="Lager_2" data-name="Lager 2" xmlns="http://www.w3.org/2000/svg" viewBox="0 0 115.0532 287.8901">
  <defs>
    <style>
      .cls-1 {
        fill: #161616;
        stroke-width: 0px;
      }
    </style>
  </defs>
  <g id="Layer_1" data-name="Layer 1">
    <g>
      <path class="cls-1" d="m82.4627,256.0674c-.2875-1.7857-.7854-3.5265-1.3751-5.2321-.5959-1.7187-1.4477-3.3478-2.3098-4.9435-.8232-1.5233-1.7024-3.0064-2.6615-4.4476-1.0228-1.5392-2.2841-2.8388-3.6546-4.0701-1.275-1.145-2.7901-1.9708-4.3389-2.6819-1.6099-.7364-3.3262-1.2939-5.0354-1.7476-1.7074-.4535-3.4523-.7292-5.2048-.9386-.2018-.0242-.4044-.0453-.6071-.0632-1.654-.1464-3.3297-.0776-4.9443.32-3.4525.8498-6.5483,2.7635-9.4786,4.7117-2.9032,1.9271-5.5021,4.3864-7.6243,7.1467-1.0557,1.3716-1.9119,2.9022-2.6165,4.4805-.7791,1.7438-1.1834,3.6529-1.5565,5.5159-.7411,3.6885-.8486,7.4221-.5496,11.1645.1376,1.7199.4327,3.4192.8387,5.094.4205,1.7359.9653,3.4573,1.6918,5.0917.6553,1.4759,1.5732,2.87,2.5539,4.1483,1.0567,1.3811,2.4012,2.5594,3.8509,3.5098,1.3781.9007,2.915,1.6034,4.4858,2.0865.2255.0691.4527.1328.6809.1914.096.054.1923.1069.2895.1589,1.4907.7946,3.0137,1.3875,4.6602,1.7723.9208.2154,1.8361.3906,2.7762.4901,1.0764.1151,2.1698.0579,3.2471-.0224.1823-.0136.364-.0341.545-.0603.6817.036,1.3646.0456,2.0479.0235,1.0279-.034,2.0383-.1148,3.0528-.2822,1.0054-.1682,1.9792-.4696,2.947-.786,1.7027-.5574,3.2576-1.3887,4.7643-2.3509,1.4838-.9499,2.8936-1.9624,4.2039-3.1412,1.4029-1.2631,2.6617-2.7181,3.7963-4.224,1.0714-1.4246,1.9244-2.9807,2.745-4.5596.8293-1.5963,1.4547-3.2813,2.0044-4.991.5717-1.7748,1.0077-3.6323,1.1363-5.4952.0682-.9754.0183-1.9668-.0386-2.9407-.056-.9846-.1674-1.9561-.3223-2.9277Zm-26.1936,23.4031c-.1892.0585-.3797.1124-.5696.1683-.0982-.6903-.1484-1.3889-.2376-2.0803-.0126-.0986-.0216-.1978-.0337-.2965.2492-.1299.496-.2639.7385-.4014.0416-.0236.083-.0474.1243-.0713.4628.0614.929.0954,1.3898.111.5759.0199,1.149.0014,1.7184-.0465-.2814.424-.5667.8448-.8663,1.2554-.3499.2682-.7075.5267-1.0718.776-.2435.1473-.4911.2837-.7408.4157-.1514.0544-.2987.1174-.4512.1696Zm2.5986-34.4431c.3571.1939.7108.3943,1.0639.5957-1.8321-.5509-3.8001-.5918-5.6865-.2231.0412-.0278.0829-.0556.1243-.0831.809-.4891,1.6377-.9108,2.5064-1.2601.6783.2941,1.3406.6316,1.9919.9706Zm-10.1571,34.2763c-1.0279-.5871-1.9898-1.2605-2.8894-2.0323-.8567-.8434-1.6206-1.7559-2.2982-2.7491-.6852-1.1565-1.247-2.3622-1.6991-3.6281-.378-1.2716-.6581-2.5595-.8382-3.8673.0964-1.1165.261-2.2263.4865-3.3323.1261-.5235.2641-1.0427.4143-1.5581-.2557,1.6709-.3458,3.3653-.2413,5.062.1934,3.0956,1.0989,6.3901,3.2312,8.7337.8433.9276,1.9643,1.5411,3.115,2.0033,1.0031.4032,2.0679.571,3.1354.5481.0516.5391.1001,1.0786.1313,1.6203.0004.0063.0008.0125.0012.0189-.3226-.0407-.6444-.0938-.966-.1555-.5362-.1935-1.063-.4128-1.5827-.6636Zm13.9961-18.0696c-.4347,1.5756-1.1365,3.0873-1.8772,4.541-.2958.5417-.6144,1.0741-.9444,1.6004-.6444.5161-1.2706,1.0511-1.8584,1.6415-.4203.4236-.814.8697-1.1853,1.3338-.5644.1456-1.1321.2482-1.7106.3137.0905-2.0471.3348-4.0839.7623-6.0935.4661-1.9037,1.1174-3.7239,2.0037-5.4689.7035-1.2388,1.5455-2.3706,2.487-3.4345.334-.3387.6845-.6511,1.0617-.9388.0333.0228.0684.0427.1016.0657.0155.0106.0308.0213.0463.0321.2789.589.5312,1.1859.7508,1.7994.2591.9214.4205,1.8595.5017,2.8133.0063.6064-.0359,1.1963-.1392,1.7948Zm-11.5962,5.2239c-.1188-.2691-.2405-.5367-.3425-.8153-.2785-1.0035-.4427-2.0178-.522-3.0574-.0039-.2319-.0034-.4629.0015-.6936.1105.0729.2314.1349.3623.1837.4374.1632.9288.1349,1.3541-.0428-.3816,1.4555-.6624,2.9342-.8534,4.4254Zm-.6749,8.1181c.0612.0413.1233.0816.1863.1208-.2753-.0189-.5471-.0538-.8217-.1031-.4736-.1351-.9271-.3002-1.3763-.5049-.3048-.1785-.5891-.3728-.861-.5972-.3022-.3253-.5698-.6659-.8201-1.0295-.0758-.1301-.1492-.2608-.2205-.3925.1869.1794.3782.353.573.5204.9995.8587,2.1206,1.5197,3.3403,1.986Zm-12.6028-21.9649c-.8,1.6532-1.4327,3.3592-1.8783,5.1416-.1885.7554-.3526,1.5149-.4899,2.2788.1061-2.0144.3727-4.0129.7902-6.0018.372-1.5349.8522-3.02,1.5505-4.4387.7999-1.402,1.7517-2.6899,2.8227-3.8984.9364-.9825,1.9303-1.8998,2.977-2.7542-.1359.1687-.271.3381-.4051.5081-1.1054,1.3998-2.0396,2.9325-2.9173,4.4811-.8689,1.5312-1.6831,3.0998-2.4498,4.6835Zm29.0951-5.171c-.3549-.1826-.716-.3442-1.0819-.4895-.0048-.3842-.1675-.7662-.506-.9696-1.0566-.6347-2.1075-1.2847-3.1673-1.9195.2821.034.5664.0274.8257-.0204.2221-.0405.4371-.11.6398-.2047.6229.2048,1.2281.4492,1.8217.7387,1.3813.7972,2.6479,1.7576,3.8422,2.812,1.3264,1.274,2.4833,2.6672,3.5119,4.1933.3452.5607.6671,1.131.9582,1.7163-1.7858-2.4445-4.1601-4.4739-6.8443-5.8566Z"/>
      <path class="cls-1" d="m114.82,38.5761c-.1274-1.6917-.3448-3.3698-.6774-5.0344-.4233-2.1327-1.0687-4.2126-1.7891-6.2629-.5879-1.6655-1.3167-3.2729-2.017-4.8958-1.2066-2.7978-2.8057-5.4583-4.5461-7.9537-2.1473-3.0748-4.9895-5.5826-8.0926-7.659-3.0106-2.0157-6.2567-3.806-9.6869-4.9896-2.5426-.8767-5.1801-1.3697-7.8456-1.6055-1.0594-.0938-2.1227-.1469-3.1871-.1674-2.2038-.0411-4.4045.0865-6.6037.2179-1.6038.0953-3.2064.1763-4.8042.3265-3.3135.3118-6.57.8998-9.7663,1.8127-1.762-.0959-3.5161-.0817-5.2829-.0376-2.6824.0669-5.3503.2147-8.0021.6519-3.7121.6115-7.3611,1.7989-10.7867,3.3466-3.4482,1.5583-6.7305,3.6166-9.7686,5.8613-3.0168,2.2286-5.7704,4.8606-8.0701,7.8262-1.0771,1.3879-2.0388,2.862-3.029,4.3118-.649.9495-1.2105,1.9537-1.7961,2.9432-3.0264,5.1015-5.8158,10.4088-7.4331,16.1421-.7412,2.6254-1.25,5.3275-1.4977,8.0437-.2389,2.639-.1403,5.3116.0919,7.9471.2178,2.4911.7124,4.9452,1.4593,7.3311.8273,2.6428,1.9912,5.1054,3.388,7.4926,1.4585,2.4887,2.9802,4.9793,4.6367,7.3388,1.3412,1.9114,2.9336,3.664,4.7159,5.1745.9183.7766,1.8324,1.5583,2.7669,2.3146,1.1474.9291,2.9597.5046,3.7727-.6404.4199-.5913.5858-1.3408.4551-2.0532-.1332-.7252-.5345-1.266-1.0956-1.7195-.9249-.7497-1.829-1.5244-2.7343-2.297-.6313-.6017-1.2411-1.2195-1.8128-1.8792-.7918-.9159-1.4998-1.9062-2.1672-2.916-.9022-1.436-1.7455-2.9045-2.5935-4.3722-1.2937-2.2375-2.4542-4.5596-3.292-7.006-.7885-2.6636-1.2156-5.3913-1.3764-8.1613-.0932-3.175.1635-6.3087.8097-9.4181.7891-3.2558,1.9849-6.3679,3.4237-9.3813-.1806,1.2293-.32,2.4638-.4178,3.7029-.2967,3.7423-.1704,7.5129.2277,11.2423.3929,3.6638,1.1738,7.2823,2.3236,10.7831.6734,2.0498,1.4979,4.0296,2.544,5.9186.4475.8089.9556,1.5784,1.4963,2.3253,1.2799,3.2712,2.856,6.4177,4.5435,9.502.5003.9153,1.5637,1.3824,2.552.9158.9034-.4272,1.4156-1.6314.9158-2.5521-.8043-1.4821-1.5751-2.9774-2.2991-4.493.0357-.0266.0753-.0453.1098-.0742.5239-.4387.8117-1.0627.8571-1.7047.2609-.2697.3528-.6876.1812-1.0408-.2438-.5-.4799-1.0031-.7128-1.5076.0591.0917.1186.1833.1775.275.2835.4398.9357.7021,1.4316.746.3658.0324.7296-.0412,1.0596-.1914.2082.3816.428.7578.671,1.123.6169.9274,1.3258,1.7362,2.2496,2.3685.4389.2996.9475.5275,1.4318.7442.5276.2386,1.0868.3859,1.6637.4152.9645.0491,1.8348-.6182,1.9224-1.6082.0826-.9344-.6438-1.8733-1.61-1.9226-.0704.0007-.1406-.0023-.2104-.0083-.3242-.1183-.6371-.2496-.947-.3978-.2352-.1451-.4566-.2973-.6753-.4668-.361-.377-.6758-.7838-.9714-1.2146-1.1911-1.9905-1.945-4.2366-2.6781-6.429-.6937-2.2353-1.1668-4.5221-1.5886-6.8227-.4665-2.5438-.8464-5.0932-.9867-7.6756-.1095-3.7053.2337-7.4027,1.0122-11.0247.3382-1.4262.7436-2.8304,1.2305-4.2142.3669-1.0418.8103-2.055,1.2954-3.0476,2.7365-2.7876,5.8973-5.0917,9.1345-7.264,1.1774-.7443,2.356-1.4884,3.5332-2.2328,2.5709-1.6233,5.2953-3.0237,8.1775-4.0021,2.4266-.7457,4.9102-1.2639,7.4233-1.6258.8491-.1204,1.6984-.2427,2.5477-.3649,1.2462-.1786,2.5117-.2678,3.771-.3358,1.3246-.0497,2.6469-.06,3.9713.0212,1.2875.0773,2.5637.267,3.8251.5251.8262.2005,1.6448.4314,2.4556.6869,1.4273.6546,2.8368,1.351,4.2285,2.0788,2.8744,1.5391,5.698,3.1896,8.1545,5.3458.1963.1901.3855.385.5734.5811.5952.7777,1.1732,1.5696,1.715,2.3917.3375.546.6597,1.1003.9748,1.6583.4676,1.0791.9043,2.1717,1.3098,3.276.5644,2.3501.8757,4.7505,1.0184,7.1667.0383,1.223.0254,2.4427-.0763,3.6645-.1135,1.3587-.3421,2.7044-.6198,4.0384-1.0028,4.1717-2.5942,8.1575-4.5634,11.9643-1.182,2.1761-2.4787,4.2979-3.8814,6.3386-.9226,1.3399-1.8453,2.6816-2.7679,4.0216-.659.9594-1.3881,1.8728-2.0842,2.8018-.6301.8388-1.2598,1.6722-1.9103,2.4948-1.7538,2.2207-3.5224,4.4238-5.3118,6.6161-1.5116,1.8564-3.077,3.6664-4.6322,5.4846-.8091.9463-1.668,1.8539-2.5138,2.7685-1.7396,1.793-3.4794,3.584-5.2338,5.3633-1.862,1.887-3.687,3.8063-5.5172,5.7232-1.016,1.0655-1.9871,2.1766-2.973,3.2701-.7107.7864-1.4315,1.5647-2.1118,2.3773-.9844,1.1788-1.9706,2.3573-2.955,3.5361-2.0517,2.4551-3.8469,5.1231-5.3826,7.9281-1.854,3.3926-3.3636,6.946-4.5336,10.6327-.7962,2.5101-1.3691,5.0762-1.8497,7.6631-.2139,1.1491-.4524,2.2888-.586,3.4504-.0992.855-.1983,1.7101-.2993,2.5649-.0487.4267-.1231.8584-.1411,1.2878-.054,1.2708-.1079,2.5422-.1619,3.8141-.1425.5222-.279,1.0456-.3978,1.5705-.3234,1.4238-.6902,2.8473-.9601,4.2812-.4273,2.2711-.8144,4.5385-1.0614,6.8382-.2076,1.9175,1.0244,3.7939,2.8108,4.459.0529.0198.1074.0333.1609.0509.064.9321.1251,1.8648.2194,2.7936.2553,2.538.4981,5.0748.8248,7.6046.1519,1.1887.2685,2.3888.4682,3.5708.2508,1.5036.5035,3.0072.7544,4.5107.2066,1.2262.5247,2.4405.7921,3.6557.2654,1.2169.6216,2.4092.9554,3.6104.4816,1.7412,1.0787,3.4655,1.7525,5.1422.7584,1.8871,1.7537,3.6557,2.9807,5.2818.9838,1.304,2.9374,1.6362,4.368.9605.8561-.4041,1.5352-1.1409,1.8673-2.0296.3233-.8696.3408-2.0089-.1198-2.841-.4147-.7498-.7291-1.5204-1.0329-2.3154-.626-2.0805-1.1675-4.184-1.6767-6.2962-.0138-.0572-.0271-.1148-.0409-.172-.0007-.0025-.0002-.0055-.001-.008-.0012-.0041-.0026-.0081-.0038-.0122-.0244-.1014-.0481-.2032-.0724-.3047.2215-.2374.4126-.4992.5703-.7798.022.0577.0428.1159.0649.1737.2474.6451.823,1.1973,1.4463,1.5455.9135,3.0691,2.0932,6.0681,3.4266,8.9759,1.2006,2.6197,4.458,3.75,7.0451,2.5302.5142-.243.9804-.5725,1.3884-.9622.8006.1096,1.6276-.0086,2.3644-.3575.9827-.4636,1.76-1.3075,2.1397-2.3242.0831-.3657.1643-.7316.2474-1.0973.065-.7548-.0635-1.4724-.3831-2.158-.1994-.5364-.3848-1.0746-.5688-1.6157-.374-1.1828-.7394-2.3697-1.0736-3.564-.4986-1.7877-1.1048-3.5483-1.688-5.3114-.4024-1.3091-.837-2.6077-1.2107-3.9253-1.0966-3.8708-1.8704-7.79-2.1318-11.8056-.046-1.6389-.0048-3.2749.1105-4.9122.1195-1.6989.3219-3.434.6777-5.1011.2467-1.1549.4934-2.311.7393-3.4665.9073-3.5807,1.9973-7.1504,3.6538-10.4609,1.7032-3.0592,3.6836-5.9684,5.5774-8.9115,1.2682-1.9703,2.6541-3.8596,4.0112-5.7713.8107-1.1398,1.6196-2.2797,2.4285-3.4197.5671-.8009,1.2512-1.5335,1.8759-2.2896.9244-1.1152,1.8472-2.2323,2.7718-3.3494.807-.9753,1.6769-1.9033,2.5162-2.8541,1.6969-1.9251,3.3467-3.8907,5.0017-5.8539.4021-.4771.781-.9773,1.1545-1.4818.3276-.2383.657-.474.9838-.7134,2.01-1.4719,3.9464-3.0336,5.8567-4.6284,2.1057-1.755,4.0083-3.7126,5.7915-5.7949,2.4818-2.8952,4.3451-6.3322,6.0259-9.7329,1.4023-2.8353,2.5793-5.792,3.417-8.8435,1.2148-1.9982,2.2222-4.1143,3.1711-6.2496,1.049-2.3592,1.9051-4.7698,2.5556-7.2711.7298-2.8039,1.2088-5.639,1.5069-8.5173.1333-1.3011.2591-2.6011.3744-3.9038.2218-2.5482.3999-5.0931.4903-7.6493.1009-2.8396.0258-5.6749-.1889-8.5081Zm-38.4333,54.886c1.2677-2.088,2.4498-4.2326,3.6709-6.3465,1.1051-1.9087,2.2504-3.8012,3.3037-5.738,1.4578-2.6816,2.9156-5.3631,4.3734-8.0446.4022-.7422.7729-1.5011,1.143-2.26.6622-.4973,1.3343-.981,2.0235-1.4375.1151-.0701.2336-.1328.3494-.2011-.9287,3.1698-2.0491,6.276-3.352,9.309-.179.3698-.3598.7389-.5478,1.1048-1.0241,1.8769-2.1213,3.7136-3.3069,5.4919-.9272,1.3921-1.8562,2.7839-2.7834,4.176-.5471.8208-1.1488,1.6042-1.7297,2.3985-.7604,1.041-1.5122,2.0882-2.2826,3.121-.8587,1.1479-1.7212,2.2933-2.5817,3.4404-.2458.2251-.4919.4499-.7377.675-.8088.7405-1.5965,1.5042-2.3779,2.2745,1.612-2.6545,3.2246-5.3085,4.8358-7.9634Zm-15.1534,9.7606c1.9323-1.9858,3.8494-3.9839,5.7599-5.9897.9083-.9536,1.7939-1.9306,2.6641-2.921-.6868,1.1699-1.3735,2.3397-2.0607,3.51-2.6484,4.512-5.307,9.0177-7.9676,13.5251-1.4161,2.4003-2.8164,4.8104-4.2114,7.2236-1.3161.9372-2.6336,1.8728-3.9487,2.8111.317-.6834.6347-1.3665.9491-2.0513.3613-.7883.7679-1.5564,1.1552-2.3316.7739-1.5432,1.5461-3.0866,2.3183-4.63.0704-.1401.1407-.2802.211-.4202,1.3872-2.4061,2.7776-4.8105,4.1678-7.2147.2638-.4571.5384-.9079.8155-1.3573.0496-.051.0979-.1031.1475-.154ZM81.3845,6.0608c2.0422.5072,4.0164,1.2387,5.8922,2.1883,2.5459,1.4248,4.8887,3.1639,7.0625,5.107.763.7205,1.5037,1.4586,2.1907,2.2549.7985.9245,1.5221,1.9081,2.1985,2.9243,1.4089,2.2951,2.6104,4.7896,3.5026,7.3264.3886,1.104.7741,2.2107,1.1648,3.3154.47,1.5663.8726,3.1449,1.1833,4.7553.2661,1.3731.4382,2.7613.5525,4.1545-.6063-3.3893-1.7977-6.6386-3.3464-9.7074-.8044-1.5923-1.7569-3.1072-2.7334-4.5971-.9777-1.4954-2.0885-2.8993-3.2645-4.242-2.988-3.4127-6.5374-6.2578-10.3662-8.6723-2.4625-2.1081-5.1149-3.925-7.986-5.4177,1.324.1442,2.6421.3412,3.9494.6104Zm-36.5882,117.4187c.6722-1.2251,1.3985-2.4231,2.1712-3.5903-.5186,1.2599-1.0368,2.5198-1.5559,3.7797-.4447,1.0804-.8842,2.163-1.3228,3.246-.4666.3724-.916.764-1.3638,1.1574.6187-1.5611,1.3081-3.0945,2.0713-4.5928Z"/>
    </g>
  </g>
</svg>