<?xml version="1.0" encoding="UTF-8"?>
<svg xmlns="http://www.w3.org/2000/svg" viewBox="0 0 204.9984 200.9238">
  <defs>
    <style>
      .cls-1 {
        mix-blend-mode: multiply;
      }

      .cls-1, .cls-2, .cls-3, .cls-4 {
        stroke-width: 0px;
      }

      .cls-1, .cls-2, .cls-4 {
        fill: #83cde1;
      }

      .cls-2 {
        mix-blend-mode: screen;
      }

      .cls-5 {
        isolation: isolate;
      }

      .cls-3 {
        fill: #56271e;
      }
    </style>
  </defs>
  <g class="cls-5">
    <g id="Lager_2" data-name="Lager 2">
      <g id="Layer_1" data-name="Layer 1">
        <g>
          <path class="cls-3" d="m204.2949,51.3899c-.4619-1.2344-1.3535-2.4268-2.1094-3.4229-5.3886-7.1142-12.1025-13.3828-17.5986-20.5009-1.2939-1.6709-2.501-3.3536-3.7021-5.0108-7.3331-7.8076-14.2852-15.8135-25.5118-18.6289-7.3017-1.8359-14.7539-1.3076-22.2099-1.4853-2.669-.0645-5.085-.5704-7.5879-1.4629-2.3223-.8262-4.211-1.0743-6.376-.7237-.0176.0078-.0361.0137-.0518.0205-1.1904.6866-2.3837,1.6162-3.8759,2.6241-6.6543,4.4775-13.2578,7.0234-21.1719,8.3437-7.5781,1.2656-15.0684-.4795-22.3887-2.2334-3.1621-.7558-5.2236-.4531-7.083.8106-.2568.0459-.6133.2353-1.1582.6836-3.3789,2.7705-9.0508,2.747-13.331,4.0019-3.9893,1.1748-7.6973,2.9385-11.1836,5.085-2.7657,2.0136-5.3809,4.2226-7.7793,6.6816-2.2559,2.3135-4.1973,4.8311-6.0909,7.3887-4.6113,6.6855-8.1064,14.4267-10.8779,21.0898-3.5234,8.4951-7.1269,16.96-10.956,25.3203-.3448.7578-.7725,1.5049-1.208,2.251-.2764.6065-.5528,1.2129-.8204,1.8223-.6035,1.372-1.2187,2.8056-1.2226,4.1875,3.8291,5.6679,9.9521,8.7539,16.457,11.5029.3858.1592.7901.332,1.1973.502,1.5078.4472,3.0068.8759,4.4726,1.3242,3.377,1.0234,6.8204,1.7187,10.3028,2.2148,3.0058.3223,6.876.999,9.1787-.9961,1.8857-2.8379,2.459-6.8076,3.5801-9.8388.5634-1.5245,1.1474-3.0518,1.7275-4.5821-.4775,8.0987-.7012,16.2246-.7139,24.3975-.0078.2236-.0195.4551-.0263.6836-.4102,11.5586,1.3408,40.6836,1.3711,42.4228.1289,7.1026.705,14.4453,1.6328,21.6983-1.5137,5.501-4.8506,9.4707-3.9746,15.6181,1.1377,7.9649,14.6308,7.4971,20.1767,7.6846,11.0967.3789,21.7295-1.1084,32.7022-2.249,9.1015-.9492,18.2783-1.9326,27.3301-3.3311,8.5517-1.3183,17.1191-2.4209,25.5761-4.3232,9.3701-2.1143,19.2471-3.2959,28.0322-7.4053,11.2852-5.2763,6.0811-17.0967-.0175-24.7842-1.3379-9.7851-2.8799-19.5634-4.5586-29.3105-.1358-.9854-.2705-1.9668-.3946-2.9424-1.6591-13.0137-3.6562-25.9414-6.0439-38.8398-.6709-3.628-1.4004-7.2295-2.1494-10.8272,2.3955,3.5488,5.3125,6.8125,8.1523,9.8653,2.045,2.1953,12.7539-8.3633,14.2803-9.712,2.75-2.4306,20.415-20.663,16.0039-25.6142Z"/>
          <path class="cls-4" d="m77.5351,13.0862c5.6592,1.2568,11.8477.8476,17.5118-.1416,4.9394-.8643,9.3554-2.3457,13.8535-4.5625,2.164-1.0723,4.3154-2.459,6.2861-3.8477,1.2852-.9033,2.3711-1.54,3.419-2.0078-4.2735,6.252-9.3438,10.5889-16.2852,13.6748-6.2119,2.7598-13.3564,3.082-20.0264,2.5049-3.4336-.2979-6.3271-1.334-9.3701-2.8369-2.2558-1.1084-3.8125-3.1631-5.6943-4.8028,3.2158-.1621,6.5576,1.1846,10.3056,2.0196Z"/>
          <path class="cls-4" d="m34.3359,102.0383c-5.8379-.4316-11.7949-1.4619-17.2519-3.667-2.2998-.9267-5.4951-2.2529-8.3028-3.9775-1.5742-.8213-3.0468-1.8027-4.2724-2.9434-1.3184-1.2295-2.0557-2.4043-2.3106-3.6211.7168-.8447,4.4571.1543,4.4893.1592,2.5957.5137,5.2578,1.6035,7.7754,2.4365,3.9043,1.292,7.5859,3.3799,11.3095,5.0928,3.6973,1.7012,7.1719,3.834,10.6299,5.9697.4375.2705.8223.5606,1.1866.8184-1.0108-.0225-2.1436-.1856-3.253-.2676Z"/>
          <path class="cls-4" d="m175.9492,84.719c-.0137.0117-.0322.0469-.0498.0703-.082.0371-.1592.0889-.2451.1289-.3301.1572-.8076.0068-1.0049-.2959-.0498-.0762-.0947-.1533-.1426-.2275-2.9052-2.8379-5.8877-5.9053-8.0625-9.3379-1.0957-1.7276-1.6289-3.4366-1.8769-5.2647-.0938-.1006-.1826-.2129-.2754-.3164-1.0196-4.7021-2.0645-9.3974-3.1016-14.1103-1.1416-5.2139-2.4287-10.5469-4.0683-15.6514,1.3252,7.2393,2.4013,14.5254,3.6923,21.7764,2.2784,12.7783,4.6485,25.5341,6.7881,38.3388,2.1123,12.6348,4.2998,25.2618,5.9522,37.9629.9472,7.2696,2.6338,14.541,3.749,21.8496,3.7383,3.9971,9.833,14.1123,5.5303,18.7295-3.9746,5.3311-18.0625,7.5215-22.2969,8.167-13.7598,2.0918-27.4932,4.877-41.2549,7.1006-5.959.9609-12.0664.8545-18.0117,1.9219-8.1572,1.4599-16.4414,2.2998-24.7158,2.5742-7.7383.2617-15.9278.4893-23.4073-1.7188-9.2421-2.7216-5.5439-10.0537-3.6748-16.6035.0137.1143.0372.2334.0528.3487.2832-.7862.6015-1.5606.9072-2.3399-.5098-7.4131-.2519-14.9287-.6289-22.3271-.2158-4.2305-.2783-8.4473-.2236-12.668-.4619-5.6211-.8409-11.248-1.085-16.8769-.0293-2.376-.0576-4.7422-.0967-7.0782-.1396-7.7197-.0097-15.3965.2881-23.0488.0557-.8281.1172-1.6514.1758-2.4756.2383-6.7676.791-13.5117,1.4141-20.2734.5488-5.9854,1.2822-12.086,1.2988-18.0967.0127-3.2969.3896-6.9043.4502-10.3877-2.2627,12.7686-3.8057,25.5137-4.7383,38.3145-1.9951,6.1464-4.6426,12.1103-6.5508,18.2841-1.5127.1446-3.7178-1.6767-4.791-2.2353-3.084-1.6143-6.1191-3.3135-9.2285-4.8877-5.3926-2.7354-11.4922-6.1084-17.3994-7.4815-1.1192-.2617-4.878-.7539-7.1729-.3339.084-.7159.292-1.4551.6446-2.2393.6904-2.2354,2.0722-4.5674,3.1416-6.8447,2.5117-5.3448,4.7705-10.8653,7.0615-16.3076,5.5761-13.2618,11.3594-27.6661,22.5097-37.2549,6.1504-4.416,13.7872-6.5567,20.9024-8.6006,1.416-.4053,4.0527.04,5.2265-.9229,1.6983-1.3945,2.3194-2.2939,4.4454-2.2548.0517,0,.1093-.0284.166-.0733,3.4072,3.8574,5.7461,6.6758,11.3164,8.4004,5.5088,1.707,12.9765,1.3652,18.4492-.0625,5.4346-1.4189,10.3477-3.5352,14.8721-6.915,2.1328-1.5957,3.9453-3.75,5.622-5.7862.6592-.8056,2.0791-3.4424,3.3223-4.8935,2.1885-.7295,7.419,2.1884,9.9815,1.9306,5.9853-.5986,12.1396-.5879,18.0908.2364,12.8857,1.7871,21.2246,9.1601,30.3759,17.2802,1.0518,1.3506,2.0831,2.7305,3.085,4.1358,3.085,3.5166,6.0117,7.1787,9.0606,10.7304,2.6406,3.0772,5.1787,6.2413,7.8271,9.3116,1.5957,1.8496,3.3809,3.5049,4.5762,5.5947.4248.5781.6894,1.1787.8525,1.7891-4.6006,3.7548-9.2031,7.0869-13.3379,11.5771-2.4131,2.626-4.7695,5.4141-6.872,8.294-2.5586,3.5127-4.4961,8.2695-7.5147,11.3447Z"/>
          <path class="cls-2" d="m143.5928,6.175c8.622.6973,15.9043,4.2901,22.6074,9.6621,7.6201,6.1163,14.6728,13.0596,21.2695,20.2588,5.2295,5.71,10.791,11.6661,15.3067,18.1338.2998-.2402.5986-.4785.8974-.7265-.1631-.6104-.4277-1.211-.8525-1.7891-1.1953-2.0898-2.9805-3.7451-4.5762-5.5947-2.6484-3.0703-5.1865-6.2344-7.8271-9.3116-3.0489-3.5517-5.9756-7.2138-9.0606-10.7304-1.0019-1.4053-2.0332-2.7852-3.085-4.1358-9.1513-8.1201-17.4902-15.4931-30.3759-17.2802-5.9512-.8243-12.1055-.835-18.0908-.2364-.7676.0752-1.7784-.1328-2.875-.4433,5.1308,1.7676,10.8896,1.7275,16.6621,2.1933Z"/>
          <path class="cls-2" d="m16.623,59.9953c3.4209-8.6562,7.4512-17.3291,12.8799-24.9326,5.3272-7.458,11.5947-13.5771,20.3887-16.6748,2.1152-.747,4.335-1.5781,6.5615-1.9404,1.9463-.3164,4.3994-.3008,6.1826-1.1992,1.75-.8828,2.4688-2.3819,3.7022-3.3897-.0322-.0371-.0635-.0732-.0957-.1074-.0567.0449-.1143.0733-.166.0733-2.126-.0391-2.7471.8603-4.4454,2.2548-1.1738.9629-3.8105.5176-5.2265.9229-7.1152,2.0439-14.752,4.1846-20.9024,8.6006-11.1503,9.5888-16.9336,23.9931-22.5097,37.2549-2.291,5.4423-4.5498,10.9628-7.0615,16.3076-1.0694,2.2773-2.4512,4.6093-3.1416,6.8447-.3526.7842-.5606,1.5234-.6446,2.2393,1.166-.2159,2.7061-.1924,4.0869-.085,4.3311-8.3457,6.9395-17.4356,10.3916-26.169Z"/>
          <path class="cls-1" d="m40.7363,101.1877c1.9082-6.1738,4.5557-12.1377,6.5508-18.2841.7197-9.876,1.8135-19.7178,3.3086-29.5596-1.5137,4.3623-3.0156,8.7275-4.4424,13.123-2.2031,6.7783-4.1777,13.7071-6.5986,20.4043-1.7617,4.878-4.2852,8.5615-9.9278,7.1758-2.7314-.6641-5.2421-1.7861-7.9189-2.5342,1.7168.8594,3.3965,1.7334,5.0088,2.5518,3.1094,1.5742,6.1445,3.2734,9.2285,4.8877,1.0732.5586,3.2783,2.3799,4.791,2.2353Z"/>
          <path class="cls-1" d="m173.5547,137.7922c-1.6524-12.7011-3.8399-25.3281-5.9522-37.9629-2.1396-12.8047-4.5097-25.5605-6.7881-38.3388-1.1543-6.4893-2.1474-12.9991-3.291-19.4815-1.5058-4.1025-2.5947-8.3672-4.0205-12.4951-1.2246-3.5459-2.6426-8.3144-5.3535-11.4424,5.5742,18.9092,8.9941,38.4248,10.7998,58.0401,1.5967,17.3691,2.4697,35.163.2881,52.5185-2.0859,16.5996-7.0859,34.0508-19.3428,46.1172-11.8291,11.6377-30.0185,14.6992-46.0176,12.1094-7.6289-1.2373-15.6298-3.7412-21.7461-8.6563-6.5888-5.2929-11.6816-12.2627-15.6601-19.6816-2.8272-5.2637-5.1152-10.7061-6.9356-16.3291.0147.2119.0274.4258.045.6367-.0547,4.2207.0078,8.4375.2236,12.668.377,7.3984.1191,14.914.6289,22.3271-.3057.7793-.624,1.5537-.9072,2.3399-.0156-.1153-.0391-.2344-.0528-.3487-1.8691,6.5498-5.5673,13.8819,3.6748,16.6035,7.4795,2.2081,15.669,1.9805,23.4073,1.7188,8.2744-.2744,16.5586-1.1143,24.7158-2.5742,5.9453-1.0674,12.0527-.961,18.0117-1.9219,13.7617-2.2236,27.4951-5.0088,41.2549-7.1006,4.2344-.6455,18.3223-2.8359,22.2969-8.167,4.3027-4.6172-1.792-14.7324-5.5303-18.7295-1.1152-7.3086-2.8018-14.58-3.749-21.8496Z"/>
          <path class="cls-1" d="m75.2402,27.1916c5.9619,3.1338,13.7735,3.1993,20.1065,1.7676,5.9033-1.332,10.8935-4.2158,15.0175-8.1221-3.7607,2.459-7.9541,4.2891-11.6533,5.3916-7.5742,2.2588-15.8437,2.9903-23.4707.9629Z"/>
          <path class="cls-1" d="m202.8213,51.7141c-.4092-.7158-.8994-1.3711-1.418-2.0117.374,1.4004.2871,2.6748-.5674,3.6748-2.4385,2.8574-6.3017,4.7256-9.0693,7.3359-3.1963,3.0147-6.3067,6.0742-8.5947,9.833-.6739,1.1045-2.2032,4.5528-3.9336,4.4307-2.2588-.168-3.876-2.5059-5.4766-3.8477-5.2861-4.4365-9.9375-10.0996-12.7334-16.4824.0498.2373.1113.4776.1621.7188,1.0371,4.7129,2.082,9.4082,3.1016,14.1103.0928.1035.1816.2158.2754.3164.248,1.8281.7812,3.5371,1.8769,5.2647,2.1748,3.4326,5.1573,6.5,8.0625,9.3379.0479.0742.0928.1513.1426.2275.1973.3027.6748.4531,1.0049.2959.0859-.04.1631-.0918.2451-.1289.0176-.0234.0361-.0586.0498-.0703,3.0186-3.0752,4.9561-7.832,7.5147-11.3447,2.1025-2.8799,4.4589-5.668,6.872-8.294,4.1348-4.4902,8.7373-7.8223,13.3379-11.5771-.1631-.6104-.4277-1.211-.8525-1.7891Z"/>
          <path class="cls-4" d="m195.4971,67.2668c-3.2735,3.6221-6.9307,7.0664-9.4034,9.2793-.4726.4297-.9375.8692-1.4179,1.294-1.8985,1.6689-3.7852,3.5674-5.8614,5.123.0127-.0215.0245-.04.0352-.0615,2.9228-4.6621,5.9902-9.1201,9.6191-13.2686,3.0088-3.4443,6.085-6.7519,9.3858-9.9277,1.8349-1.7637,4.4687-3.1904,5.9687-5.3008.3721,4.5205-4.9951,9.5879-8.3261,12.8623Z"/>
        </g>
      </g>
    </g>
  </g>
</svg>