<?xml version="1.0" encoding="UTF-8"?>
<svg xmlns="http://www.w3.org/2000/svg" xmlns:xlink="http://www.w3.org/1999/xlink" viewBox="0 0 158.0108 266.3697">
  <defs>
    <style>
      .cls-1, .cls-2, .cls-3, .cls-4, .cls-5, .cls-6, .cls-7, .cls-8, .cls-9, .cls-10, .cls-11 {
        fill: none;
      }

      .cls-1, .cls-2, .cls-4, .cls-5, .cls-6, .cls-7, .cls-8, .cls-9, .cls-10, .cls-11 {
        stroke: #e6decb;
      }

      .cls-1, .cls-4, .cls-5, .cls-7, .cls-11 {
        stroke-linecap: round;
        stroke-linejoin: round;
        stroke-width: .3714px;
      }

      .cls-2, .cls-6, .cls-12, .cls-13, .cls-9, .cls-14, .cls-15 {
        mix-blend-mode: multiply;
      }

      .cls-2, .cls-6, .cls-8, .cls-9 {
        stroke-width: 1.4858px;
      }

      .cls-2, .cls-6, .cls-8, .cls-9, .cls-10 {
        stroke-miterlimit: 10;
      }

      .cls-2, .cls-15 {
        opacity: .4;
      }

      .cls-16 {
        clip-path: url(#clippath);
      }

      .cls-3, .cls-13, .cls-14, .cls-17, .cls-15 {
        stroke-width: 0px;
      }

      .cls-4 {
        stroke-dasharray: 0 0 1.4755 2.951;
      }

      .cls-5, .cls-7, .cls-11 {
        stroke-dasharray: 0 0 1.4857 2.9715;
      }

      .cls-5, .cls-18, .cls-19, .cls-11 {
        mix-blend-mode: screen;
      }

      .cls-6, .cls-13, .cls-20 {
        opacity: .55;
      }

      .cls-13, .cls-14, .cls-17, .cls-15 {
        fill: #e6decb;
      }

      .cls-21 {
        clip-path: url(#clippath-1);
      }

      .cls-22 {
        clip-path: url(#clippath-2);
      }

      .cls-9 {
        opacity: .65;
      }

      .cls-19, .cls-11 {
        opacity: .6;
      }

      .cls-23 {
        isolation: isolate;
      }

      .cls-10 {
        stroke-width: 1.3372px;
      }

      .cls-14 {
        opacity: .8;
      }
    </style>
    <clipPath id="clippath">
      <path class="cls-3" d="m52.083,29.2512c-5.7053,17.829-4.3681,41.6902-4.3681,41.6902,0,8.5431.0371,28.7047-.1486,34.774h-18.4085c-.1188-3.135.5721-41.0142,1.159-47.4178,1.5451-16.8707,1.4337-31.2899,33.7042-51.1247-4.6949,6.5373-9.4939,14.4341-11.938,22.0783Z"/>
    </clipPath>
    <clipPath id="clippath-1">
      <path class="cls-3" d="m106.4705,29.2512c5.7053,17.829,4.3681,41.6902,4.3681,41.6902,0,8.5431-.0371,28.7047.1486,34.774h18.4085c.1188-3.135-.572-41.0142-1.1589-47.4178-1.5452-16.8707-1.4338-31.2899-33.7043-51.1247,4.695,6.5373,9.494,14.4341,11.938,22.0783Z"/>
    </clipPath>
    <clipPath id="clippath-2">
      <path class="cls-3" d="m106.4705,29.2512c5.7053,17.829,4.3681,41.6902,4.3681,41.6902,0,8.5431-.0371,28.7047.1486,34.774h18.4085c.1188-3.135-.572-41.0142-1.1589-47.4178-1.5452-16.8707-1.4338-31.2899-33.7043-51.1247,4.695,6.5373,9.494,14.4341,11.938,22.0783Z"/>
    </clipPath>
  </defs>
  <g class="cls-23">
    <g id="Lager_2" data-name="Lager 2">
      <g id="OBJECTS">
        <g>
          <g>
            <path class="cls-17" d="m13.9651,266.3694c-7.1804,0-11.9041-5.9856-12.6578-10.2746-.7536-4.2891-.4113-8.6591-.4244-13.0139-.0819-27.3107-.2409-53.2401-.4645-79.9C.2061,137.8748,3.1945,110.8562.0032,87.3203h157.1715c-1.1968,50.263,2.9019,89.5251-.6429,150.6929-.3754,6.4788.3742,13.1345-1.6861,19.2884-2.0604,6.1538-6.8858,7.9359-13.2759,9.0678H13.9651Z"/>
            <path class="cls-15" d="m157.1591,88.83c-49.9753.0826-107.0486.4487-156.8692.7752.5519,4.6741.8826,9.4729,1.0507,14.3642,49.8021-.3266,105.7401-.6914,155.6341-.7732.0202-4.7072.078-9.4867.1844-14.3662Z"/>
            <path class="cls-15" d="m156.5313,238.0141c-.3714,6.4779.3715,13.134-1.6863,19.2851-2.0578,6.1584-6.8864,7.9413-13.2752,9.0705H13.9661c-7.1837,0-11.9084-5.9876-12.6587-10.274s-.4085-8.6619-.4234-13.0152c-.0817-27.3081-.2451-53.2419-.468-79.8963-.208-25.3097,2.7784-52.3281-.416-75.8624h7.5402c5.7276,12.8443,8.3202,27.0704,7.503,41.1181-.6686,11.4255-3.5584,22.6949-3.4023,34.1426.1188,8.4242,1.8794,16.7295,2.7857,25.1092,1.9315,17.9405-.0743,36.1632,2.3252,54.0442.3566,2.6743.8692,5.4676,2.5927,7.5476,1.4337,1.7458,3.5435,2.771,5.6236,3.655,8.3721,3.5807,17.4872,5.7721,26.5652,5.0812,7.0201-.5274,13.7803-2.7486,20.6371-4.3383,17.7621-4.1304,36.2077-4.071,54.4453-3.8407,2.0429.0223,4.1081.0445,6.0916-.4532,5.0367-1.2629,8.6916-5.7201,10.8237-10.4522,6.1362-13.6541,2.1841-29.4699,2.8081-44.424.52-12.3986,4.2715-24.6709,3.1646-37.0323-.7948-8.87-4.0784-17.4279-4.4126-26.3276-.4161-11.1431,4.1823-32.4265,12.0865-43.785-1.196,50.2406,2.8973,89.4942-.6463,150.6477Z"/>
            <g>
              <path class="cls-9" d="m156.9734,102.4469c-51.6537.0705-104.0182.4577-155.6708.7964"/>
              <path class="cls-6" d="m157.1284,89.5668c-51.6537.0705-105.2768.4577-156.9295.7964"/>
              <g class="cls-19">
                <g>
                  <path class="cls-1" d="m156.4356,102.4469c-.2477.0004-.4953.0007-.743.0011"/>
                  <path class="cls-4" d="m152.7412,102.4525c-49.6817.0821-99.3407.4492-149.0219.7763"/>
                  <path class="cls-1" d="m2.2442,103.2384c-.2477.0017-.4954.0033-.743.0049"/>
                </g>
              </g>
              <path class="cls-11" d="m156.7381,89.5668c-51.6537.0705-104.3714.4577-156.024.7964"/>
            </g>
            <g>
              <path class="cls-13" d="m48.4754,106.9485c-2.2658.2675-8.6842-.2451-9.6499-.0891-3.4099.5572-7.8225-.3343-10.5489-.364-.2897-1.8795-.26-3.7887-.2303-5.683.0594-3.4989.1189-7.0053.1709-10.5043.0148-.988.0371-1.9909.1263-2.9863h20.3622c-.0891,1.7308-.1857,3.4618-.2749,5.1927-.0371.7205-.0743,1.4412-.0074,2.1617.0891.9806.364,1.9538.3417,2.9344-.0148.8097-.2229,1.5972-.2897,2.3921-.1709,2.2954.8914,4.8287,0,6.9458Z"/>
              <path class="cls-13" d="m130.4517,106.4954c-2.7263.0297-7.1316.9212-10.5488.364-.9583-.156-7.3842.3566-9.65.0891-.884-2.1171.1709-4.6504,0-6.9458-.0594-.7949-.2748-1.5824-.2897-2.3921-.0223-.9806.26-1.9538.3492-2.9344.0594-.7205.0222-1.4412-.0149-2.1617-.0891-1.7309-.1783-3.4619-.2749-5.1927h20.3623c.0965.9954.1114,1.9983.1263,2.9863.0594,3.499.1114,7.0054.1708,10.5043.0297,1.8943.0595,3.8035-.2303,5.683Z"/>
            </g>
          </g>
          <g>
            <path class="cls-17" d="m112.9319,22.0156l-.7874,1.5154s-14.9541-8.3796-33.0802-8.3796-27.1819,6.7973-27.1819,6.7973l-2.2063-4.6578c5.9356-4.9327,13.8175-10.17,24.3366-15.8604,3.3429-1.8126,7.3545-1.9092,10.7791-.2526,6.8345,3.3058,18.6165,10.0511,28.1401,20.8377Z"/>
            <path class="cls-14" d="m112.9319,22.0156l-.7874,1.5154s-14.9541-8.3796-33.0802-8.3796-27.1819,6.7973-27.1819,6.7973l-2.2063-4.6578c5.9356-4.9327,13.8175-10.17,24.3366-15.8604,3.3429-1.8126,7.3545-1.9092,10.7791-.2526,6.8345,3.3058,18.6165,10.0511,28.1401,20.8377Z"/>
            <path class="cls-15" d="m74.0127,1.4305c.5869-.3194,1.2034-.5869,1.8275-.7949-.0595.0594-.1189.1114-.1709.1709-1.4635,1.5452-2.8749,3.1275-4.2047,4.7915-2.5555,3.1869-4.8064,6.6339-6.4407,10.3928-.104.2452-.208.4903-.3046.7355-8.5579,2.0132-12.8369,5.2224-12.8369,5.2224l-2.1692-4.5836c.0075-.0445.0149-.0817.0223-.1262,5.9282-4.9179,13.7952-10.1403,24.2772-15.8084Z"/>
            <path class="cls-15" d="m108.3855,21.7036c-3.9149-1.7384-10.6082-4.2864-18.661-5.6385-.0594-4.0858-.5571-8.2162.5275-12.0271,5.3635,3.0235,11.9603,7.399,18.1187,13.2603.1263,1.4709.1337,2.9492.0148,4.4053Z"/>
            <path class="cls-5" d="m52.4378,17.9151c5.9271-4.7391,13.3529-9.5029,22.6352-14.5245,1.4024-.7607,2.9846-1.1622,4.5777-1.1622,1.4357,0,2.8787.3304,4.1707.9558,5.1472,2.4898,14.1582,7.4788,22.4662,15.2108-6.2426-2.4717-16.1097-5.4722-27.2231-5.4722-13.6365,0-22.3682,3.7147-26.2313,5.8269l-.3954-.8346Z"/>
            <path class="cls-17" d="m52.083,29.2512c-5.7053,17.829-4.3681,41.6902-4.3681,41.6902,0,8.5431.0371,28.7047-.1486,34.774h-18.4085c-.1188-3.135.5721-41.0142,1.159-47.4178,1.5451-16.8707,1.4337-31.2899,33.7042-51.1247-4.6949,6.5373-9.4939,14.4341-11.938,22.0783Z"/>
            <path class="cls-17" d="m106.4705,29.2512c5.7053,17.829,4.3681,41.6902,4.3681,41.6902,0,8.5431-.0371,28.7047.1486,34.774h18.4085c.1188-3.135-.572-41.0142-1.1589-47.4178-1.5452-16.8707-1.4338-31.2899-33.7043-51.1247,4.695,6.5373,9.494,14.4341,11.938,22.0783Z"/>
            <g>
              <g class="cls-16">
                <g class="cls-20">
                  <g class="cls-12">
                    <line class="cls-10" x1="28.8802" y1="106.4429" x2="48.2845" y2="87.0386"/>
                    <line class="cls-10" x1="48.2845" y1="106.4429" x2="28.8802" y2="87.0386"/>
                    <line class="cls-10" x1="28.8802" y1="87.7815" x2="48.1688" y2="87.7815"/>
                  </g>
                </g>
                <g class="cls-18">
                  <g class="cls-12">
                    <line class="cls-7" x1="28.8802" y1="106.4429" x2="48.2845" y2="87.0386"/>
                    <line class="cls-7" x1="48.2845" y1="106.4429" x2="28.8802" y2="87.0386"/>
                    <line class="cls-7" x1="28.8802" y1="87.7815" x2="48.1688" y2="87.7815"/>
                  </g>
                </g>
              </g>
              <g class="cls-21">
                <g class="cls-22">
                  <g class="cls-20">
                    <g class="cls-12">
                      <line class="cls-10" x1="129.6733" y1="106.4429" x2="110.269" y2="87.0386"/>
                      <line class="cls-10" x1="110.269" y1="106.4429" x2="129.6733" y2="87.0386"/>
                      <line class="cls-10" x1="129.6733" y1="87.7815" x2="110.3847" y2="87.7815"/>
                    </g>
                  </g>
                  <g class="cls-18">
                    <g class="cls-12">
                      <line class="cls-7" x1="129.6733" y1="106.4429" x2="110.269" y2="87.0386"/>
                      <line class="cls-7" x1="110.269" y1="106.4429" x2="129.6733" y2="87.0386"/>
                      <line class="cls-7" x1="129.6733" y1="87.7815" x2="110.3847" y2="87.7815"/>
                    </g>
                  </g>
                </g>
              </g>
            </g>
            <path class="cls-8" d="m31.3783,103.4869c.053-8.6689.6333-39.2611,1.1578-44.9857.0675-.7324.1314-1.4596.1945-2.1829,1.2093-13.7574,2.2728-25.848,23.4811-41.2721-2.8206,4.8168-4.9136,9.3429-6.2513,13.5263-5.6732,17.73-4.5632,40.7642-4.474,42.4303l.0015,3.7169c.0036,8.5202.0101,22.1343-.1009,28.7672h-14.0087Z"/>
            <path class="cls-5" d="m31.3783,103.4869c.053-8.6689.6333-39.2611,1.1578-44.9857.0675-.7324.1314-1.4596.1945-2.1829,1.2093-13.7574,2.2728-25.848,23.4811-41.2721-2.8206,4.8168-4.9136,9.3429-6.2513,13.5263-5.6732,17.73-4.5632,40.7642-4.474,42.4303l.0015,3.7169c.0036,8.5202.0101,22.1343-.1009,28.7672h-14.0087Z"/>
            <path class="cls-2" d="m31.3783,103.4869c.053-8.6689.6333-39.2611,1.1578-44.9857.0675-.7324.1314-1.4596.1945-2.1829,1.2093-13.7574,2.2728-25.848,23.4811-41.2721-2.8206,4.8168-4.9136,9.3429-6.2513,13.5263-5.6732,17.73-4.5632,40.7642-4.474,42.4303l.0015,3.7169c.0036,8.5202.0101,22.1343-.1009,28.7672h-14.0087Z"/>
            <path class="cls-8" d="m127.1752,103.4869c-.0529-8.6689-.6333-39.2611-1.1578-44.9857-.0675-.7324-.1313-1.4596-.1944-2.1829-1.2094-13.7574-2.2729-25.848-23.4812-41.2721,2.8206,4.8168,4.9136,9.3429,6.2514,13.5263,5.6731,17.73,4.5631,40.7642,4.4739,42.4303l-.0014,3.7169c-.0037,8.5202-.0102,22.1343.1008,28.7672h14.0087Z"/>
            <path class="cls-5" d="m127.1752,103.4869c-.0529-8.6689-.6333-39.2611-1.1578-44.9857-.0675-.7324-.1313-1.4596-.1944-2.1829-1.2094-13.7574-2.2729-25.848-23.4812-41.2721,2.8206,4.8168,4.9136,9.3429,6.2514,13.5263,5.6731,17.73,4.5631,40.7642,4.4739,42.4303l-.0014,3.7169c-.0037,8.5202-.0102,22.1343.1008,28.7672h14.0087Z"/>
            <path class="cls-2" d="m127.1752,103.4869c-.0529-8.6689-.6333-39.2611-1.1578-44.9857-.0675-.7324-.1313-1.4596-.1944-2.1829-1.2094-13.7574-2.2729-25.848-23.4812-41.2721,2.8206,4.8168,4.9136,9.3429,6.2514,13.5263,5.6731,17.73,4.5631,40.7642,4.4739,42.4303l-.0014,3.7169c-.0037,8.5202-.0102,22.1343.1008,28.7672h14.0087Z"/>
          </g>
        </g>
      </g>
    </g>
  </g>
</svg>