<?xml version="1.0" encoding="utf-8"?>
<!-- Generator: Adobe Illustrator 28.0.0, SVG Export Plug-In . SVG Version: 6.00 Build 0)  -->
<svg version="1.1" id="Layer_1" xmlns="http://www.w3.org/2000/svg" xmlns:xlink="http://www.w3.org/1999/xlink" x="0px" y="0px"
	 viewBox="0 0 325.6 212.2" style="enable-background:new 0 0 325.6 212.2;" xml:space="preserve">
<style type="text/css">
	.st0{fill:#3C3F41;}
	.st1{fill:#231F20;}
	.st2{fill:#FFFFFF;}
	.st3{fill:#8D271A;}
	.st4{fill:#45231C;}
	.st5{fill:#E53626;}
	.st6{fill:#530E00;}
	.st7{fill:#006872;}
	.st8{fill:#003A41;}
	.st9{opacity:0.36;fill:#3C3F41;enable-background:new    ;}
	.st10{opacity:0.46;fill:#66696B;enable-background:new    ;}
	.st11{fill:#66696B;}
	.st12{fill:#3B3637;}
	.st13{fill:#0085C7;}
	.st14{fill:#433939;}
	.st15{fill:#535658;}
	.st16{fill:#3A3C3E;}
	.st17{opacity:0.22;fill:#66696B;enable-background:new    ;}
	.st18{fill:#6F7173;}
	.st19{fill:#59200C;}
	.st20{opacity:0.47;}
	.st21{opacity:0.58;fill:#808285;enable-background:new    ;}
	.st22{opacity:0.29;fill:#FFFFFF;enable-background:new    ;}
	.st23{opacity:0.59;}
	.st24{fill:#009F6B;}
	.st25{opacity:0.32;fill:#535658;enable-background:new    ;}
	.st26{fill:#6D190C;}
</style>
<g>
	<g>
		<g>
			<rect x="138.8" y="8.5" class="st0" width="2.8" height="28.5"/>
			<path class="st1" d="M138.7,36.9V8.5c0-0.1,0.1-0.1,0.1-0.1h2.8c0.1,0,0.1,0.1,0.1,0.1v28.5c0,0.1-0.1,0.1-0.1,0.1h-2.8
				C138.8,37.1,138.7,37,138.7,36.9z M141.5,8.6H139v28.2h2.6V8.6z"/>
		</g>
		<rect x="138.8" y="8.5" class="st0" width="1.4" height="28.5"/>
		<g>
			<g>
				<g>
					<path class="st0" d="M134.6,44.8h3.4h4.5h3.4c0.2-2.3-3.1-2.8-3.4-3.9s1.3-2.7,2.4-3.4c1.1-0.7-3.6-2.1-3.6-2.1h-2.1
						c0,0-4.7,1.3-3.6,2.1s2.7,2.2,2.4,3.4S134.3,42.5,134.6,44.8z"/>
					<path class="st1" d="M134.4,44.8c-0.1-1.5,1.1-2.2,2.1-2.8c0.6-0.4,1.2-0.7,1.3-1.1c0.3-1.2-1.4-2.7-2.3-3.3
						c-0.2-0.1-0.2-0.3-0.2-0.4c0.1-0.8,3.2-1.7,3.8-1.9c0,0,0,0,0,0h2.1c0,0,0,0,0,0c0.6,0.2,3.7,1.1,3.8,1.9c0,0.1,0,0.3-0.2,0.4
						c-0.9,0.6-2.6,2.1-2.3,3.3c0.1,0.4,0.7,0.8,1.3,1.1c1,0.6,2.3,1.4,2.1,2.8c0,0.1-0.1,0.1-0.1,0.1h-11.2
						C134.5,44.9,134.4,44.9,134.4,44.8z M143.7,42.2c-0.7-0.4-1.3-0.8-1.4-1.3c-0.3-1.3,1.4-2.8,2.4-3.5c0.1-0.1,0.1-0.1,0.1-0.2
						c-0.1-0.5-2.3-1.3-3.6-1.7h-2c-1.4,0.4-3.5,1.2-3.6,1.7c0,0,0,0.1,0.1,0.2c1.1,0.7,2.7,2.2,2.4,3.5c-0.1,0.5-0.7,0.9-1.4,1.3
						c-1,0.6-2.1,1.2-2,2.5h11C145.7,43.4,144.6,42.7,143.7,42.2z"/>
				</g>
				<path class="st0" d="M134.6,44.8h3.5c0-0.6,0.3-1.2,0.8-1.7c0.5-0.6,1.1-1,1.4-1.7c0.3-0.8,0.2-1.6-0.2-2.3
					c-0.5-0.8-1.9-1.9-1-2.9c0.8-0.8,2.1-0.7,3.1-0.6c0.1,0,0.2,0,0.3,0.1c-0.6-0.2-1.1-0.4-1.1-0.4h-2.1c0,0-4.7,1.3-3.6,2.1
					s2.7,2.2,2.4,3.4S134.3,42.5,134.6,44.8z"/>
			</g>
			<g>
				<path class="st0" d="M131.8,44.3v13.4v4.6v48.7c0,0.3,3.7,0.6,8.2,0.6s8.2-0.3,8.2-0.6V62.2v-3.6V44.3c0-0.3-3.7-0.6-8.2-0.6
					S131.8,43.9,131.8,44.3z"/>
				<path class="st1" d="M134.2,111.5c-2.5-0.2-2.5-0.4-2.5-0.6V44.3c0-0.1,0-0.4,2.5-0.6c1.6-0.1,3.6-0.2,5.8-0.2s4.3,0.1,5.8,0.2
					c2.5,0.2,2.5,0.4,2.5,0.6v66.7c0,0.1,0,0.4-2.5,0.6c-1.6,0.1-3.6,0.2-5.8,0.2C137.9,111.7,135.8,111.6,134.2,111.5z M148.2,44.3
					c-0.3-0.2-3.2-0.5-8.1-0.5s-7.8,0.3-8.1,0.5v66.6c0.3,0.2,3.2,0.5,8.1,0.5s7.8-0.3,8.1-0.5V44.3z M132,44.3L132,44.3L132,44.3z"
					/>
			</g>
			<path class="st0" d="M142.2,111.5c0.6,0,1.1,0,1.7,0V43.7c-0.5,0-1.1,0-1.7,0V111.5z"/>
			<path class="st0" d="M145.7,111.4c1.7-0.1,2.7-0.3,2.7-0.5V44.3c0-0.2-1-0.4-2.7-0.5V111.4z"/>
			<path class="st0" d="M131.9,44.3v66.7c0,0.3,2.1,0.5,5,0.6V43.7C134,43.8,131.9,44,131.9,44.3z"/>
			<g>
				<g>
					<path class="st0" d="M130,46.9L130,46.9c0-0.7,0.5-1.2,1.2-1.2h17.3c0.7,0,1.2,0.5,1.2,1.2l0,0c0,0.7-0.5,1.2-1.2,1.2h-17.3
						C130.6,48.1,130,47.6,130,46.9z"/>
					<path class="st1" d="M129.9,46.9c0-0.7,0.6-1.3,1.3-1.3h17.3c0.7,0,1.3,0.6,1.3,1.3s-0.6,1.3-1.3,1.3h-17.3
						C130.5,48.2,129.9,47.6,129.9,46.9z M131.2,45.9c-0.6,0-1.1,0.5-1.1,1.1s0.5,1.1,1.1,1.1h17.3c0.6,0,1.1-0.5,1.1-1.1
						c0-0.6-0.5-1.1-1.1-1.1C148.5,45.9,131.2,45.9,131.2,45.9z"/>
				</g>
				<g>
					<path class="st2" d="M147.3,46.4c0.3,0,0.5,0.2,0.5,0.5c0,0.3-0.2,0.5-0.5,0.5s-0.5-0.2-0.5-0.5
						C146.8,46.7,147,46.4,147.3,46.4z"/>
					<path class="st2" d="M142.4,46.4c0.3,0,0.5,0.2,0.5,0.5c0,0.3-0.2,0.5-0.5,0.5s-0.5-0.2-0.5-0.5
						C141.9,46.7,142.1,46.4,142.4,46.4z"/>
					<path class="st2" d="M132.6,46.4c0.3,0,0.5,0.2,0.5,0.5c0,0.3-0.2,0.5-0.5,0.5s-0.5-0.2-0.5-0.5
						C132.1,46.7,132.3,46.4,132.6,46.4z"/>
					<path class="st2" d="M137.5,46.4c0.3,0,0.5,0.2,0.5,0.5c0,0.3-0.2,0.5-0.5,0.5s-0.5-0.2-0.5-0.5
						C137,46.7,137.2,46.4,137.5,46.4z"/>
				</g>
			</g>
			<g>
				<g>
					<path class="st0" d="M130,50.6L130,50.6c0-0.7,0.5-1.2,1.2-1.2h17.3c0.7,0,1.2,0.5,1.2,1.2l0,0c0,0.7-0.5,1.2-1.2,1.2h-17.3
						C130.6,51.7,130,51.2,130,50.6z"/>
					<path class="st1" d="M129.9,50.6c0-0.7,0.6-1.3,1.3-1.3h17.3c0.7,0,1.3,0.6,1.3,1.3s-0.6,1.3-1.3,1.3h-17.3
						C130.5,51.9,129.9,51.3,129.9,50.6z M131.2,49.5c-0.6,0-1.1,0.5-1.1,1.1s0.5,1.1,1.1,1.1h17.3c0.6,0,1.1-0.5,1.1-1.1
						s-0.5-1.1-1.1-1.1H131.2z"/>
				</g>
				<g>
					<circle class="st2" cx="147.3" cy="50.6" r="0.5"/>
					<circle class="st2" cx="142.4" cy="50.6" r="0.5"/>
					<circle class="st2" cx="132.6" cy="50.6" r="0.5"/>
					<path class="st2" d="M137.5,50.1c0.3,0,0.5,0.2,0.5,0.5c0,0.3-0.2,0.5-0.5,0.5s-0.5-0.2-0.5-0.5
						C137,50.3,137.2,50.1,137.5,50.1z"/>
				</g>
			</g>
		</g>
		<g>
			<path class="st0" d="M140.2,3.3c2.1,0,3.7,1.7,3.7,3.7s-1.7,3.7-3.7,3.7s-3.7-1.7-3.7-3.7S138.1,3.3,140.2,3.3z"/>
			<path class="st1" d="M136.3,7c0-2.1,1.7-3.9,3.9-3.9S144,4.9,144,7s-1.7,3.9-3.9,3.9S136.3,9.2,136.3,7z M136.6,7
				c0,2,1.6,3.6,3.6,3.6c2,0,3.6-1.6,3.6-3.6s-1.6-3.6-3.6-3.6C138.2,3.4,136.6,5.1,136.6,7z"/>
		</g>
		<path class="st0" d="M136.4,7c0,2.1,1.7,3.7,3.7,3.7s3.7-1.7,3.7-3.7s-1.7-3.7-3.7-3.7C138.1,3.3,136.4,5,136.4,7z M139.3,6.4
			c0-1,0.8-1.7,1.7-1.7s1.7,0.8,1.7,1.7c0,1-0.8,1.7-1.7,1.7S139.3,7.4,139.3,6.4z"/>
	</g>
	<g>
		<g>
			<g>
				<path class="st0" d="M164.5,62.5c3,0,5.4,2.4,5.4,5.4c0,3-2.4,5.4-5.4,5.4c-3,0-5.4-2.4-5.4-5.4C159,64.9,161.5,62.5,164.5,62.5
					z"/>
				<path class="st1" d="M158.9,67.9c0-3.1,2.5-5.6,5.6-5.6s5.6,2.5,5.6,5.6s-2.5,5.6-5.6,5.6S158.9,71,158.9,67.9z M159.2,67.9
					c0,2.9,2.4,5.3,5.3,5.3c2.9,0,5.3-2.4,5.3-5.3s-2.4-5.3-5.3-5.3S159.2,65,159.2,67.9z"/>
			</g>
			<path class="st0" d="M159,67.9c0,3,2.4,5.4,5.4,5.4s5.4-2.4,5.4-5.4c0-3-2.4-5.4-5.4-5.4S159,64.9,159,67.9z M163.2,67
				c0-1.4,1.1-2.5,2.5-2.5s2.5,1.1,2.5,2.5s-1.1,2.5-2.5,2.5S163.2,68.4,163.2,67z"/>
			<g>
				<path class="st0" d="M158.9,81.5h3.4h4.5h3.4c0.2-2.3-3.1-2.8-3.4-3.9s1.3-2.7,2.4-3.4c1.1-0.7-3.6-2.1-3.6-2.1h-2.1
					c0,0-4.7,1.3-3.6,2.1s2.7,2.2,2.4,3.4C162,78.7,158.6,79.2,158.9,81.5z"/>
				<path class="st1" d="M158.7,81.5c-0.1-1.5,1.1-2.2,2.1-2.8c0.6-0.4,1.2-0.7,1.3-1.1c0.3-1.2-1.4-2.7-2.3-3.3
					c-0.2-0.1-0.2-0.3-0.2-0.4c0.1-0.8,3.2-1.7,3.8-1.9c0,0,0,0,0,0h2.1c0,0,0,0,0,0c0.6,0.2,3.7,1.1,3.8,1.9c0,0.1,0,0.3-0.2,0.4
					c-0.9,0.6-2.6,2.1-2.3,3.3c0.1,0.4,0.7,0.8,1.3,1.1c1,0.6,2.3,1.4,2.1,2.8c0,0.1-0.1,0.1-0.1,0.1h-11.2
					C158.8,81.6,158.7,81.5,158.7,81.5z M168,78.9c-0.7-0.4-1.3-0.8-1.4-1.3c-0.3-1.3,1.4-2.8,2.4-3.5c0.1-0.1,0.1-0.1,0.1-0.2
					c-0.1-0.5-2.3-1.3-3.6-1.7h-2c-1.4,0.4-3.5,1.2-3.6,1.7c0,0,0,0.1,0.1,0.2c1.1,0.7,2.7,2.2,2.4,3.5l0,0
					c-0.1,0.5-0.7,0.9-1.4,1.3c-1,0.6-2.1,1.2-2,2.5h11C170,80.1,169,79.4,168,78.9z"/>
			</g>
			<path class="st0" d="M158.9,81.5h3.5c0-0.6,0.3-1.2,0.8-1.7c0.5-0.6,1.1-1,1.4-1.7c0.3-0.8,0.2-1.6-0.2-2.3
				c-0.5-0.8-1.9-1.9-1-2.9c0.8-0.8,2.1-0.7,3.1-0.6c0.1,0,0.2,0,0.3,0.1c-0.6-0.2-1.1-0.4-1.1-0.4h-2.1c0,0-4.7,1.3-3.6,2.1
				s2.7,2.2,2.4,3.4C162,78.7,158.6,79.2,158.9,81.5z"/>
		</g>
		<g>
			<path class="st0" d="M156.2,80.9v3.6v20.8v3.6c0,0.3,3.7,0.6,8.2,0.6s8.2-0.3,8.2-0.6v-3.6V84.5v-3.6c0-0.3-3.7-0.6-8.2-0.6
				S156.2,80.6,156.2,80.9z"/>
			<path class="st1" d="M158.6,109.5c-2.5-0.2-2.5-0.4-2.5-0.6v-28c0-0.1,0-0.4,2.5-0.6c1.6-0.1,3.6-0.2,5.8-0.2
				c2.2,0,4.3,0.1,5.8,0.2c2.5,0.2,2.5,0.4,2.5,0.6v28c0,0.1,0,0.4-2.5,0.6c-1.6,0.1-3.6,0.2-5.8,0.2S160.2,109.6,158.6,109.5z
				 M172.6,81c-0.3-0.2-3.2-0.5-8.1-0.5s-7.8,0.3-8.1,0.5v27.9c0.3,0.2,3.2,0.5,8.1,0.5s7.8-0.3,8.1-0.5V81z M156.4,81L156.4,81
				L156.4,81z"/>
		</g>
		<path class="st0" d="M169.9,109.4V80.5c0,0,0-0.1,0-0.1c-0.8-0.1-1.8-0.1-2.9-0.1v29.2C168.1,109.5,169.1,109.4,169.9,109.4z"/>
		<path class="st0" d="M171.8,109.2c0.6-0.1,0.9-0.2,0.9-0.3v-28c0-0.1-0.3-0.2-0.9-0.3V109.2z"/>
		<path class="st0" d="M156.2,80.9v28c0,0.3,2.8,0.6,6.6,0.6V80.3C159.1,80.4,156.2,80.6,156.2,80.9z"/>
		<g>
			<g>
				<path class="st3" d="M154.3,87.6L154.3,87.6c0-0.7,0.5-1.2,1.2-1.2h17.3c0.7,0,1.2,0.5,1.2,1.2l0,0c0,0.7-0.5,1.2-1.2,1.2h-17.3
					C154.9,88.8,154.3,88.3,154.3,87.6z"/>
				<path class="st4" d="M154.2,87.6c0-0.7,0.6-1.3,1.3-1.3h17.3c0.7,0,1.3,0.6,1.3,1.3s-0.6,1.3-1.3,1.3h-17.3
					C154.8,88.9,154.2,88.4,154.2,87.6z M155.5,86.6c-0.6,0-1.1,0.5-1.1,1.1s0.5,1.1,1.1,1.1h17.3c0.6,0,1.1-0.5,1.1-1.1
					s-0.5-1.1-1.1-1.1H155.5z"/>
			</g>
			<g>
				<circle class="st2" cx="171.6" cy="87.6" r="0.5"/>
				<circle class="st2" cx="166.7" cy="87.6" r="0.5"/>
				<circle class="st2" cx="156.9" cy="87.6" r="0.5"/>
				<circle class="st2" cx="161.8" cy="87.6" r="0.5"/>
			</g>
		</g>
		<g>
			<g>
				<path class="st3" d="M154.3,102.2L154.3,102.2c0-0.7,0.5-1.2,1.2-1.2h17.3c0.7,0,1.2,0.5,1.2,1.2l0,0c0,0.7-0.5,1.2-1.2,1.2
					h-17.3C154.9,103.4,154.3,102.9,154.3,102.2z"/>
				<path class="st4" d="M154.2,102.2c0-0.7,0.6-1.3,1.3-1.3h17.3c0.7,0,1.3,0.6,1.3,1.3s-0.6,1.3-1.3,1.3h-17.3
					C154.8,103.5,154.2,102.9,154.2,102.2z M155.5,101.1c-0.6,0-1.1,0.5-1.1,1.1s0.5,1.1,1.1,1.1h17.3c0.6,0,1.1-0.5,1.1-1.1
					s-0.5-1.1-1.1-1.1H155.5z"/>
			</g>
			<g>
				<path class="st2" d="M171.6,101.7c0.3,0,0.5,0.2,0.5,0.5s-0.2,0.5-0.5,0.5s-0.5-0.2-0.5-0.5
					C171.1,101.9,171.3,101.7,171.6,101.7z"/>
				<path class="st2" d="M166.7,101.7c0.3,0,0.5,0.2,0.5,0.5s-0.2,0.5-0.5,0.5s-0.5-0.2-0.5-0.5
					C166.2,101.9,166.4,101.7,166.7,101.7z"/>
				<path class="st2" d="M156.9,101.7c0.3,0,0.5,0.2,0.5,0.5s-0.2,0.5-0.5,0.5s-0.5-0.2-0.5-0.5
					C156.4,101.9,156.6,101.7,156.9,101.7z"/>
				<path class="st2" d="M161.8,101.7c0.3,0,0.5,0.2,0.5,0.5s-0.2,0.5-0.5,0.5s-0.5-0.2-0.5-0.5
					C161.3,101.9,161.5,101.7,161.8,101.7z"/>
			</g>
		</g>
	</g>
	<rect x="26.8" y="178.4" class="st0" width="233.9" height="10.5"/>
	<g>
		<rect x="26.8" y="178.4" class="st0" width="233.9" height="6.7"/>
		<path class="st1" d="M26.7,185v-6.7c0-0.1,0.1-0.1,0.1-0.1h233.9c0.1,0,0.1,0.1,0.1,0.1v6.7c0,0.1-0.1,0.1-0.1,0.1H26.8
			C26.8,185.2,26.7,185.1,26.7,185z M260.7,178.5H27v6.4h233.7V178.5z"/>
	</g>
	<g>
		<polygon class="st0" points="24.8,181.4 283.9,181.4 276.3,164 24.8,164 		"/>
		<path class="st1" d="M24.7,181.4V164c0-0.1,0.1-0.1,0.1-0.1h251.4c0.1,0,0.1,0,0.1,0.1l7.6,17.4c0,0,0,0.1,0,0.1
			c0,0-0.1,0.1-0.1,0.1h-259C24.8,181.5,24.7,181.5,24.7,181.4z M276.2,164.1H25v17.1h258.7L276.2,164.1z"/>
	</g>
	<g>
		<polygon class="st5" points="24.8,181.4 283.9,181.4 282.3,177.8 24.8,177.8 		"/>
		<path class="st6" d="M24.7,181.5v-3.9h257.7l1.7,3.9H24.7L24.7,181.5z M282.2,177.9H25v3.4h258.7L282.2,177.9z"/>
	</g>
	<polygon class="st0" points="24.8,174.2 280.7,174.2 276.3,164 24.8,164 	"/>
	<g>
		<path class="st7" d="M59.7,139.6c0,17.5,5,31.6,11.1,31.6h106.6V108H70.8C64.7,108,59.7,122.2,59.7,139.6z"/>
		<path class="st8" d="M59.6,139.6c0-17.5,5-31.7,11.2-31.7h106.7v63.5H70.8C64.6,171.3,59.6,157.1,59.6,139.6z M177.3,108.1H70.8
			c-6,0-10.9,14.1-10.9,31.5s4.9,31.5,10.9,31.5h106.4V108.1z"/>
	</g>
	<g>
		<path class="st7" d="M59.7,139.6c0,17.5,5,31.6,11.1,31.6h63.5V108H70.8C64.7,108,59.7,122.2,59.7,139.6z"/>
		<path class="st7" d="M59.6,139.6c0-17.5,5-31.7,11.2-31.7h63.6v63.5H70.8C64.6,171.3,59.6,157.1,59.6,139.6z M134.2,108.1H70.8
			c-6,0-10.9,14.1-10.9,31.5s4.9,31.5,10.9,31.5h63.4V108.1z"/>
	</g>
	<path class="st9" d="M177.4,133.6v-6.2H60.6c-0.3,2-0.5,4.1-0.7,6.2H177.4z"/>
	<path class="st10" d="M177.4,118.6V108H70.8c-3.3,0-6.2,4.1-8.3,10.6H177.4z"/>
	<path class="st10" d="M61.1,154.6c1.9,9.9,5.5,16.7,9.8,16.7h106.6v-16.7H61.1z"/>
	<g>
		<polygon class="st5" points="186.7,166.7 177.4,171.2 177.4,108 186.7,112.3 		"/>
		<path class="st6" d="M177.3,107.8l9.5,4.4v54.6l-9.5,4.6V107.8z M186.5,112.3l-9-4.2V171l9-4.4V112.3z"/>
	</g>
	<polygon class="st0" points="183.6,168.2 186.7,166.7 186.7,112.3 183.6,110.9 	"/>
	<path class="st10" d="M186.7,122.8v-10.5l-9.3-4.3v9.8c1.5,0.8,3,1.6,4.5,2.4c0.8,0.5,1.7,0.9,2.5,1.4c0.4,0.3,0.9,0.5,1.3,0.7
		C186,122.5,186.3,122.6,186.7,122.8z"/>
	<path class="st10" d="M177.4,155.3v16l9.3-4.5v-17.1c-1.5,0.9-3.1,1.9-4.6,2.8C180.5,153.4,179,154.3,177.4,155.3z"/>
	<g>
		<g>
			<g>
				<ellipse class="st11" cx="242.2" cy="194.5" rx="14.4" ry="14.4"/>
				<path class="st12" d="M227.6,194.5c0-8,6.5-14.5,14.5-14.5c8,0,14.5,6.5,14.5,14.5s-6.5,14.5-14.5,14.5
					C234.2,209.1,227.6,202.5,227.6,194.5z M227.9,194.5c0,7.9,6.4,14.3,14.3,14.3s14.3-6.4,14.3-14.3c0-7.9-6.4-14.3-14.3-14.3
					C234.3,180.3,227.9,186.7,227.9,194.5z"/>
			</g>
			<g>
				<ellipse class="st13" cx="242.2" cy="194.5" rx="14.4" ry="14.4"/>
				<path class="st7" d="M227.6,194.5c0-8,6.5-14.5,14.5-14.5c8,0,14.5,6.5,14.5,14.5s-6.5,14.5-14.5,14.5
					C234.2,209.1,227.6,202.5,227.6,194.5z M227.9,194.5c0,7.9,6.4,14.3,14.3,14.3s14.3-6.4,14.3-14.3c0-7.9-6.4-14.3-14.3-14.3
					C234.3,180.3,227.9,186.7,227.9,194.5z"/>
			</g>
			<circle class="st11" cx="242.2" cy="194.5" r="12.3"/>
			<circle class="st14" cx="242.2" cy="194.5" r="11.5"/>
			<g>
				<ellipse class="st5" cx="242.2" cy="194.5" rx="10.3" ry="10.3"/>
				<path class="st6" d="M231.8,194.5c0-5.7,4.7-10.4,10.4-10.4s10.4,4.7,10.4,10.4c0,5.7-4.7,10.4-10.4,10.4
					C236.4,204.9,231.8,200.3,231.8,194.5z M232,194.5c0,5.6,4.6,10.2,10.2,10.2s10.2-4.6,10.2-10.2c0-5.6-4.6-10.2-10.2-10.2
					C236.6,184.4,232,188.9,232,194.5z"/>
			</g>
			<circle class="st11" cx="242.2" cy="194.5" r="7.1"/>
			<circle class="st14" cx="242.2" cy="194.5" r="3.2"/>
		</g>
		<g>
			<g>
				<ellipse class="st11" cx="209.6" cy="194.5" rx="14.4" ry="14.4"/>
				<path class="st12" d="M195.1,194.5c0-8,6.5-14.5,14.5-14.5c8,0,14.5,6.5,14.5,14.5s-6.5,14.5-14.5,14.5
					C201.6,209.1,195.1,202.5,195.1,194.5z M195.3,194.5c0,7.9,6.4,14.3,14.3,14.3c7.9,0,14.3-6.4,14.3-14.3
					c0-7.9-6.4-14.3-14.3-14.3C201.7,180.3,195.3,186.7,195.3,194.5z"/>
			</g>
			<g>
				<ellipse class="st13" cx="209.6" cy="194.5" rx="14.4" ry="14.4"/>
				<path class="st7" d="M195.1,194.5c0-8,6.5-14.5,14.5-14.5c8,0,14.5,6.5,14.5,14.5s-6.5,14.5-14.5,14.5
					C201.6,209.1,195.1,202.5,195.1,194.5z M195.3,194.5c0,7.9,6.4,14.3,14.3,14.3c7.9,0,14.3-6.4,14.3-14.3
					c0-7.9-6.4-14.3-14.3-14.3C201.7,180.3,195.3,186.7,195.3,194.5z"/>
			</g>
			<circle class="st11" cx="209.6" cy="194.5" r="12.3"/>
			<circle class="st14" cx="209.6" cy="194.5" r="11.5"/>
			<g>
				<ellipse class="st5" cx="209.6" cy="194.5" rx="10.3" ry="10.3"/>
				<path class="st6" d="M199.2,194.5c0-5.7,4.7-10.4,10.4-10.4c5.7,0,10.4,4.7,10.4,10.4c0,5.7-4.7,10.4-10.4,10.4
					C203.8,204.9,199.2,200.3,199.2,194.5z M199.4,194.5c0,5.6,4.6,10.2,10.2,10.2c5.6,0,10.2-4.6,10.2-10.2
					c0-5.6-4.6-10.2-10.2-10.2S199.4,188.9,199.4,194.5z"/>
			</g>
			<path class="st11" d="M209.6,187.5c3.9,0,7.1,3.2,7.1,7.1c0,3.9-3.2,7.1-7.1,7.1c-3.9,0-7.1-3.2-7.1-7.1
				C202.5,190.6,205.7,187.5,209.6,187.5z"/>
			<path class="st14" d="M209.6,191.3c1.8,0,3.2,1.4,3.2,3.2s-1.4,3.2-3.2,3.2s-3.2-1.4-3.2-3.2
				C206.4,192.8,207.8,191.3,209.6,191.3z"/>
		</g>
		<g>
			<g>
				<ellipse class="st11" cx="177" cy="194.5" rx="14.4" ry="14.4"/>
				<path class="st12" d="M162.5,194.5c0-8,6.5-14.5,14.5-14.5s14.5,6.5,14.5,14.5s-6.5,14.5-14.5,14.5
					C169,209.1,162.5,202.5,162.5,194.5z M162.7,194.5c0,7.9,6.4,14.3,14.3,14.3c7.9,0,14.3-6.4,14.3-14.3c0-7.9-6.4-14.3-14.3-14.3
					C169.1,180.3,162.7,186.7,162.7,194.5z"/>
			</g>
			<g>
				<ellipse class="st13" cx="177" cy="194.5" rx="14.4" ry="14.4"/>
				<path class="st7" d="M162.5,194.5c0-8,6.5-14.5,14.5-14.5s14.5,6.5,14.5,14.5s-6.5,14.5-14.5,14.5
					C169,209.1,162.5,202.5,162.5,194.5z M162.7,194.5c0,7.9,6.4,14.3,14.3,14.3c7.9,0,14.3-6.4,14.3-14.3c0-7.9-6.4-14.3-14.3-14.3
					C169.1,180.3,162.7,186.7,162.7,194.5z"/>
			</g>
			<circle class="st11" cx="177" cy="194.5" r="12.3"/>
			<circle class="st14" cx="177" cy="194.5" r="11.5"/>
			<g>
				<ellipse class="st5" cx="177" cy="194.5" rx="10.3" ry="10.3"/>
				<path class="st6" d="M166.6,194.5c0-5.7,4.7-10.4,10.4-10.4c5.7,0,10.4,4.7,10.4,10.4c0,5.7-4.7,10.4-10.4,10.4
					C171.3,204.9,166.6,200.3,166.6,194.5z M166.8,194.5c0,5.6,4.6,10.2,10.2,10.2c5.6,0,10.2-4.6,10.2-10.2
					c0-5.6-4.6-10.2-10.2-10.2S166.8,188.9,166.8,194.5z"/>
			</g>
			<circle class="st11" cx="177" cy="194.5" r="7.1"/>
			<path class="st14" d="M177,191.3c1.8,0,3.2,1.4,3.2,3.2s-1.4,3.2-3.2,3.2s-3.2-1.4-3.2-3.2C173.8,192.8,175.2,191.3,177,191.3z"
				/>
		</g>
	</g>
	<g>
		<polygon class="st15" points="257.9,142.6 257.9,139.6 258.9,139.6 258.9,142.3 274.2,163.1 277.5,163.1 277.5,164.1 273.7,164.1 
					"/>
		<path class="st16" d="M257.8,142.7L257.8,142.7l0-3.2h1.3v2.7l15.3,20.7h3.3v1.3h-3.9L257.8,142.7z M277.3,163.2h-3.2l-15.4-20.9
			l0,0v-2.6H258v2.8l15.8,21.4h3.6V163.2z"/>
	</g>
	<g>
		<g>
			<rect x="144.1" y="107.2" class="st0" width="5.6" height="64.4"/>
			<path class="st1" d="M144,171.7v-64.4c0-0.1,0.1-0.1,0.1-0.1h5.6c0.1,0,0.1,0.1,0.1,0.1v64.4c0,0.1-0.1,0.1-0.1,0.1h-5.6
				C144,171.8,144,171.7,144,171.7z M149.5,107.4h-5.3v64.2h5.3V107.4z"/>
		</g>
		<rect x="149" y="107.2" class="st0" width="0.7" height="64.4"/>
		<rect x="144.1" y="107.2" class="st0" width="1.4" height="64.4"/>
		<g>
			<path class="st0" d="M146.9,164.6c0.6,0,1.1,0.5,1.1,1.1c0,0.6-0.5,1.1-1.1,1.1c-0.6,0-1.1-0.5-1.1-1.1S146.3,164.6,146.9,164.6z
				"/>
			<path class="st0" d="M146.9,146.8c0.6,0,1.1,0.5,1.1,1.1c0,0.6-0.5,1.1-1.1,1.1c-0.6,0-1.1-0.5-1.1-1.1S146.3,146.8,146.9,146.8z
				"/>
			<path class="st0" d="M146.9,129c0.6,0,1.1,0.5,1.1,1.1c0,0.6-0.5,1.1-1.1,1.1c-0.6,0-1.1-0.5-1.1-1.1
				C145.8,129.5,146.3,129,146.9,129z"/>
			<path class="st0" d="M146.9,111.1c0.6,0,1.1,0.5,1.1,1.1s-0.5,1.1-1.1,1.1c-0.6,0-1.1-0.5-1.1-1.1
				C145.8,111.6,146.3,111.1,146.9,111.1z"/>
		</g>
	</g>
	<g>
		<g>
			<rect x="97.1" y="107.2" class="st0" width="5.6" height="64.4"/>
			<path class="st1" d="M97,171.7v-64.4c0-0.1,0.1-0.1,0.1-0.1h5.6c0.1,0,0.1,0.1,0.1,0.1v64.4c0,0.1-0.1,0.1-0.1,0.1h-5.6
				C97,171.8,97,171.7,97,171.7z M102.5,107.4h-5.3v64.2h5.3V107.4z"/>
		</g>
		<rect x="102" y="107.2" class="st0" width="0.7" height="64.4"/>
		<rect x="97.1" y="107.2" class="st0" width="1.4" height="64.4"/>
		<g>
			<circle class="st0" cx="99.9" cy="165.7" r="1.1"/>
			<circle class="st0" cx="99.9" cy="147.9" r="1.1"/>
			<circle class="st0" cx="99.9" cy="130.1" r="1.1"/>
			<circle class="st0" cx="99.9" cy="112.3" r="1.1"/>
		</g>
	</g>
	<g>
		<g>
			<path class="st7" d="M281.3,163h-23l3.8,41.8h58.3L281.3,163L281.3,163z M314.4,203.5l-34.1-38.3c-0.2-0.3-0.2-0.7,0-1
				c0.2-0.3,0.6-0.3,0.9,0l34.1,38.3c0.2,0.3,0.2,0.7,0,1c-0.1,0.1-0.3,0.2-0.4,0.2C314.7,203.7,314.5,203.6,314.4,203.5z
				 M308.9,203.5l-30.8-38.3c-0.2-0.3-0.2-0.7,0-1s0.6-0.3,0.9,0l30.8,38.3c0.2,0.3,0.2,0.7,0,1c-0.1,0.1-0.3,0.2-0.4,0.2
				C309.1,203.7,309,203.6,308.9,203.5z M303.3,203.4l-27.5-38.3c-0.2-0.3-0.2-0.7,0.1-1c0.3-0.3,0.6-0.2,0.8,0.1l27.5,38.3
				c0.2,0.3,0.2,0.7-0.1,1c-0.1,0.1-0.3,0.2-0.4,0.2C303.6,203.7,303.4,203.6,303.3,203.4z M297.8,203.4l-24.2-38.3
				c-0.2-0.3-0.1-0.8,0.1-1c0.3-0.2,0.6-0.2,0.8,0.1l24.2,38.3c0.2,0.3,0.1,0.8-0.1,1c-0.1,0.1-0.2,0.1-0.4,0.1
				C298.1,203.7,297.9,203.6,297.8,203.4z M292.2,203.4l-20.9-38.3c-0.2-0.3-0.1-0.8,0.2-1c0.3-0.2,0.7-0.1,0.8,0.2l20.9,38.3
				c0.2,0.3,0.1,0.8-0.2,1c-0.1,0.1-0.2,0.1-0.3,0.1C292.5,203.7,292.3,203.6,292.2,203.4z M286.6,203.3L269,165
				c-0.2-0.3,0-0.8,0.2-1c0.3-0.2,0.7-0.1,0.8,0.3l17.6,38.3c0.2,0.3,0,0.8-0.2,1c-0.1,0.1-0.2,0.1-0.3,0.1
				C287,203.7,286.7,203.5,286.6,203.3z M281.1,203.3L266.7,165c-0.1-0.4,0-0.8,0.3-0.9c0.3-0.2,0.7,0,0.8,0.4l14.4,38.3
				c0.1,0.4,0,0.8-0.3,0.9c-0.1,0-0.2,0.1-0.2,0.1C281.4,203.7,281.2,203.5,281.1,203.3z M275.5,203.2l-11.1-38.3
				c-0.1-0.4,0.1-0.8,0.4-0.9c0.3-0.1,0.7,0.1,0.8,0.4l11.1,38.3c0.1,0.4-0.1,0.8-0.4,0.9c-0.1,0-0.1,0-0.2,0
				C275.8,203.7,275.6,203.5,275.5,203.2z M270,203.1l-7.8-38.3c-0.1-0.4,0.1-0.8,0.4-0.9c0.3-0.1,0.6,0.1,0.7,0.5l7.8,38.3
				c0.1,0.4-0.1,0.8-0.4,0.9c0,0-0.1,0-0.1,0C270.3,203.7,270,203.5,270,203.1z M259.9,164.8c0-0.4,0.2-0.7,0.5-0.8
				c0.3-0.1,0.6,0.2,0.7,0.6l4.5,38.3c0,0.4-0.2,0.7-0.5,0.8c0,0-0.1,0-0.1,0c-0.3,0-0.6-0.3-0.6-0.6L259.9,164.8z"/>
			<path class="st8" d="M258.2,163.1l0-0.1h23.2l39.2,41.8l0.2,0.2H262L258.2,163.1z M281.2,163.2h-22.8l3.8,41.5h57.9L281.2,163.2z
				 M275.4,203.2l-11.1-38.3c-0.1-0.4,0.1-0.9,0.5-1c0.2-0.1,0.4-0.1,0.5,0c0.2,0.1,0.3,0.3,0.4,0.5l11.1,38.3
				c0.1,0.4-0.1,0.9-0.5,1c-0.1,0-0.2,0-0.2,0C275.8,203.8,275.5,203.6,275.4,203.2z M264.9,164.1c-0.3,0.1-0.4,0.4-0.3,0.7
				l11.1,38.3c0.1,0.3,0.4,0.5,0.6,0.4c0.3-0.1,0.4-0.4,0.3-0.7l-11.1-38.3c0-0.2-0.1-0.3-0.3-0.3c-0.1,0-0.1,0-0.2,0
				C265,164.1,264.9,164.1,264.9,164.1z M281,203.3L266.6,165c-0.2-0.4,0-0.9,0.4-1.1c0.2-0.1,0.4-0.1,0.5,0
				c0.2,0.1,0.4,0.2,0.4,0.5l14.4,38.3c0.2,0.4,0,0.9-0.4,1.1c-0.1,0-0.2,0.1-0.3,0.1C281.3,203.8,281.1,203.6,281,203.3z
				 M267.1,164.2c-0.2,0.1-0.4,0.5-0.2,0.8l14.4,38.3c0.1,0.3,0.4,0.4,0.6,0.3c0.2-0.1,0.4-0.5,0.2-0.8l-14.4-38.3
				c-0.1-0.1-0.2-0.3-0.3-0.3c0,0-0.1,0-0.1,0C267.2,164.1,267.1,164.1,267.1,164.2z M264.3,203.1l-4.5-38.3
				c-0.1-0.5,0.2-0.9,0.6-0.9c0.2,0,0.4,0,0.5,0.1c0.2,0.1,0.3,0.3,0.3,0.6l4.5,38.3c0.1,0.5-0.2,0.9-0.6,0.9c0,0-0.1,0-0.1,0
				C264.7,203.8,264.4,203.5,264.3,203.1z M260.5,164.1c-0.3,0-0.4,0.3-0.4,0.7l4.5,38.3c0,0.3,0.3,0.5,0.5,0.5
				c0.3,0,0.4-0.3,0.4-0.7l-4.5-38.3c0-0.2-0.1-0.3-0.2-0.4C260.7,164.1,260.6,164.1,260.5,164.1
				C260.5,164.1,260.5,164.1,260.5,164.1z M269.9,203.2l-7.8-38.3c-0.1-0.4,0.1-0.9,0.5-1c0.2,0,0.4,0,0.5,0.1
				c0.2,0.1,0.3,0.3,0.4,0.5l7.8,38.3c0.1,0.4-0.2,0.9-0.5,1c-0.1,0-0.1,0-0.2,0C270.2,203.8,269.9,203.5,269.9,203.2z M262.7,164.1
				c-0.3,0.1-0.4,0.4-0.4,0.7l7.8,38.3c0.1,0.3,0.3,0.5,0.6,0.4c0.3-0.1,0.4-0.4,0.4-0.7l-7.8-38.3c0-0.2-0.1-0.3-0.2-0.4
				c-0.1,0-0.1-0.1-0.2-0.1C262.7,164.1,262.7,164.1,262.7,164.1z M286.5,203.4l-17.6-38.3c-0.2-0.4-0.1-0.9,0.3-1.1
				c0.2-0.1,0.4-0.1,0.5-0.1c0.2,0.1,0.4,0.2,0.5,0.4l17.6,38.3c0.2,0.4,0.1,0.9-0.3,1.1c-0.1,0.1-0.2,0.1-0.4,0.1
				C286.9,203.8,286.6,203.6,286.5,203.4z M269.3,164.2c-0.2,0.2-0.3,0.5-0.2,0.8l17.6,38.3c0.1,0.3,0.4,0.4,0.6,0.2
				c0.2-0.2,0.3-0.5,0.2-0.8l-17.6-38.3c-0.1-0.1-0.2-0.2-0.3-0.3c0,0-0.1,0-0.1,0C269.4,164.1,269.4,164.1,269.3,164.2z
				 M292.1,203.4l-20.9-38.3c-0.2-0.4-0.1-0.9,0.2-1.1c0.2-0.1,0.3-0.2,0.5-0.1c0.2,0,0.4,0.2,0.5,0.4l20.9,38.3
				c0.2,0.4,0.1,0.9-0.2,1.1c-0.1,0.1-0.3,0.1-0.4,0.1C292.5,203.8,292.2,203.7,292.1,203.4z M271.5,164.2c-0.2,0.2-0.3,0.5-0.1,0.8
				l20.9,38.3c0.1,0.3,0.4,0.3,0.6,0.2c0.2-0.2,0.3-0.5,0.1-0.8l-20.9-38.3c-0.1-0.1-0.2-0.2-0.3-0.3c0,0-0.1,0-0.1,0
				C271.7,164.1,271.6,164.1,271.5,164.2z M297.6,203.5l-24.2-38.3c-0.2-0.4-0.2-0.9,0.1-1.1c0.2-0.1,0.3-0.2,0.5-0.2
				c0.2,0,0.4,0.2,0.5,0.3l24.2,38.3c0.2,0.4,0.2,0.9-0.1,1.1c-0.1,0.1-0.3,0.2-0.4,0.2C298,203.8,297.8,203.7,297.6,203.5z
				 M273.7,164.2c-0.2,0.2-0.3,0.6-0.1,0.8l24.2,38.3c0.2,0.2,0.4,0.3,0.7,0.1c0.2-0.2,0.3-0.6,0.1-0.8l-24.2-38.3
				c-0.1-0.1-0.2-0.2-0.3-0.2c0,0,0,0-0.1,0C273.9,164.1,273.8,164.1,273.7,164.2z M303.2,203.5l-27.5-38.3
				c-0.2-0.3-0.2-0.9,0.1-1.2c0.1-0.1,0.3-0.2,0.5-0.2c0.2,0,0.4,0.1,0.5,0.3l27.5,38.3c0.2,0.3,0.2,0.9-0.1,1.2
				c-0.1,0.1-0.3,0.2-0.5,0.2C303.6,203.8,303.4,203.7,303.2,203.5z M276,164.2c-0.2,0.2-0.2,0.6-0.1,0.8l27.5,38.3
				c0.2,0.2,0.5,0.3,0.7,0.1c0.2-0.2,0.2-0.6,0.1-0.8l-27.5-38.3c-0.1-0.1-0.2-0.2-0.3-0.2c0,0,0,0,0,0
				C276.2,164.1,276,164.2,276,164.2z M308.8,203.5L278,165.2c-0.3-0.3-0.3-0.8,0-1.2c0.1-0.2,0.3-0.2,0.5-0.2
				c0.2,0,0.4,0.1,0.5,0.3l30.8,38.3c0.3,0.3,0.3,0.8,0,1.2c-0.1,0.2-0.3,0.2-0.5,0.2C309.1,203.8,308.9,203.7,308.8,203.5z
				 M278.2,164.3c-0.2,0.2-0.2,0.6,0,0.8l30.8,38.3c0.2,0.2,0.5,0.2,0.7,0c0.2-0.2,0.2-0.6,0-0.8l-30.8-38.3
				c-0.1-0.1-0.2-0.2-0.3-0.2c0,0,0,0,0,0C278.4,164.1,278.3,164.2,278.2,164.3z M314.3,203.6l-34.1-38.3c-0.3-0.3-0.3-0.8,0-1.2
				c0.1-0.2,0.3-0.3,0.5-0.3c0.2,0,0.4,0.1,0.5,0.2l34.1,38.3c0.3,0.3,0.3,0.8,0,1.2c-0.1,0.2-0.3,0.3-0.5,0.3
				C314.7,203.8,314.5,203.7,314.3,203.6z M280.7,164.1c-0.1,0-0.2,0.1-0.3,0.2c-0.2,0.2-0.2,0.6,0,0.8l34.1,38.3
				c0.2,0.2,0.5,0.2,0.7,0c0.2-0.2,0.2-0.6,0-0.8l-34.1-38.3C281,164.2,280.9,164.1,280.7,164.1
				C280.8,164.1,280.8,164.1,280.7,164.1z"/>
		</g>
		<path class="st10" d="M258.9,169.3l3.2,35.5h58.3l-5.7-6.1c-1,0-1.9,0-2.9-0.1l3.4,3.8c0.2,0.3,0.2,0.7,0,1
			c-0.1,0.1-0.3,0.2-0.4,0.2c-0.1,0-0.3-0.1-0.4-0.2l-4.5-5c-0.9-0.1-1.8-0.2-2.7-0.3c-0.4-0.1-0.8-0.1-1.2-0.2l3.7,4.6
			c0.2,0.3,0.2,0.7,0,1c-0.1,0.1-0.3,0.2-0.4,0.2c-0.2,0-0.3-0.1-0.4-0.2l-4.7-5.9c-1.4-0.3-2.8-0.6-4.2-1l4.3,5.9
			c0.2,0.3,0.2,0.7-0.1,1c-0.1,0.1-0.3,0.2-0.4,0.2c-0.2,0-0.3-0.1-0.5-0.3L298,196c-1.4-0.4-2.9-0.9-4.3-1.4l5,7.9
			c0.2,0.3,0.1,0.8-0.1,1c-0.1,0.1-0.2,0.1-0.4,0.1c-0.2,0-0.4-0.1-0.5-0.3l-6-9.5c-0.7-0.3-1.3-0.5-2-0.8c-0.8-0.3-1.5-0.7-2.3-1
			l5.7,10.5c0.2,0.3,0.1,0.8-0.2,1c-0.1,0.1-0.2,0.1-0.3,0.1c-0.2,0-0.4-0.1-0.5-0.3l-6.6-12.1c-1.4-0.7-2.7-1.3-4.1-2.1l6.2,13.5
			c0.2,0.3,0,0.8-0.2,1c-0.1,0.1-0.2,0.1-0.3,0.1c-0.2,0-0.4-0.1-0.5-0.4l-7-15.2c-1.3-0.7-2.5-1.5-3.8-2.3l6.3,16.9
			c0.1,0.4,0,0.8-0.3,0.9c-0.1,0-0.2,0.1-0.2,0.1c-0.2,0-0.5-0.2-0.6-0.4l-7-18.6c-1.2-0.8-2.3-1.6-3.4-2.5l5.9,20.6
			c0.1,0.4-0.1,0.8-0.4,0.9c-0.1,0-0.1,0-0.2,0c-0.3,0-0.5-0.2-0.6-0.5l-6.5-22.4c-1-0.8-2-1.7-2.9-2.6l5,24.6
			c0.1,0.4-0.1,0.8-0.4,0.9c0,0-0.1,0-0.1,0c-0.3,0-0.5-0.2-0.6-0.5l-5.4-26.4c-0.6-0.7-1.3-1.4-1.9-2.1c-0.2-0.2-0.3-0.4-0.5-0.6
			l3.4,28.8c0,0.4-0.2,0.7-0.5,0.8c0,0-0.1,0-0.1,0c-0.3,0-0.6-0.3-0.6-0.6l-3.6-30.9C260.1,171.3,259.5,170.3,258.9,169.3z"/>
	</g>
	<g>
		<g>
			<g>
				<path class="st5" d="M208.8,80.2v34.2c0,0.5,3.7,0.9,8.2,0.9s8.2-0.4,8.2-0.9V80.2H208.8z"/>
				<path class="st6" d="M208.6,114.4V80.1h16.7v34.3c0,1-8.3,1-8.4,1C216.9,115.4,208.6,115.4,208.6,114.4z M208.9,80.3l0,34.1
					c0.1,0.3,3.1,0.8,8.1,0.8c5,0,8-0.5,8.1-0.8V80.3C225.1,80.3,208.9,80.3,208.9,80.3z"/>
			</g>
			<path class="st10" d="M224.4,114.8c0.5-0.1,0.9-0.3,0.9-0.4V80.2h-0.9V114.8z"/>
			<path class="st17" d="M219.3,80.2v35.1c1,0,1.9-0.1,2.7-0.2V80.2H219.3z"/>
			<path class="st10" d="M208.8,80.2v34.2c0,0.4,2.1,0.7,5.1,0.8v-35H208.8z"/>
			<g>
				<path class="st0" d="M208.8,74.7v11.7c0,0.5,3.7,0.9,8.2,0.9s8.2-0.4,8.2-0.9V74.7H208.8z"/>
				<path class="st1" d="M208.6,86.4V74.7c0-0.1,0.1-0.1,0.1-0.1h16.5c0.1,0,0.1,0.1,0.1,0.1v11.7c0,1-8.3,1-8.4,1
					C216.9,87.5,208.6,87.4,208.6,86.4z M208.9,74.8l0,11.6c0.1,0.3,3.1,0.8,8.1,0.8c5,0,8-0.5,8.1-0.8V74.8H208.9z"/>
			</g>
			<path class="st10" d="M224.4,86.8c0.5-0.1,0.9-0.3,0.9-0.4V74.7h-0.9V86.8z"/>
			<path class="st17" d="M219.3,74.7v12.6c1,0,1.9-0.1,2.7-0.2V74.7H219.3z"/>
			<path class="st10" d="M208.8,74.7v11.7c0,0.4,2.1,0.7,5.1,0.8V74.7H208.8z"/>
			<g>
				<path class="st0" d="M204.9,66.1l3.9,11.1c0,0.5,3.7,0.9,8.2,0.9s8.2-0.4,8.2-0.9l3.9-10.9L204.9,66.1z"/>
				<path class="st1" d="M211.2,78c-2.4-0.3-2.5-0.6-2.5-0.7l-3.9-11.1c0,0,0-0.1,0-0.1c0,0,0.1,0,0.1-0.1l24.3,0.3
					c0,0,0.1,0,0.1,0.1c0,0,0,0.1,0,0.1l-3.9,10.8c0,0.2-0.1,0.5-2.5,0.7c-1.6,0.2-3.6,0.3-5.8,0.3C214.8,78.2,212.7,78.1,211.2,78z
					 M205,66.2l3.9,11c0,0,0,0,0,0c0.1,0.3,3.1,0.8,8.1,0.8s8-0.5,8.1-0.8c0,0,0,0,0,0l3.8-10.7L205,66.2z"/>
			</g>
			<g>
				<path class="st5" d="M204.9,66.1l3.9,11.1c0,0.5,3.7,0.9,8.2,0.9s8.2-0.4,8.2-0.9l3.9-10.9L204.9,66.1z"/>
				<path class="st6" d="M211.2,78c-2.4-0.3-2.5-0.6-2.5-0.7l-4-11.3l24.6,0.3l-3.9,11c0,0.2-0.1,0.5-2.5,0.7
					c-1.6,0.2-3.6,0.3-5.8,0.3C214.8,78.2,212.7,78.1,211.2,78z M205,66.2l3.9,11l0,0c0.1,0.3,3.1,0.8,8.1,0.8s8-0.5,8.1-0.8v0
					l3.8-10.7L205,66.2z"/>
			</g>
			<path class="st17" d="M219.3,78.1c1,0,2-0.1,2.8-0.2c0.2-1,0.5-2.1,0.8-3.1c0.6-2.2,1.3-4.5,1.9-6.7c0.2-0.6,0.3-1.2,0.4-1.8
				l-5.3-0.1c0,2,0,3.9-0.2,5.9C219.6,74.1,219.4,76.1,219.3,78.1z"/>
			<path class="st10" d="M223.3,77.8c1.2-0.2,2-0.4,2-0.6l3.9-10.9l-1.9,0c-0.6,1.7-1.2,3.4-1.7,5.1c-0.4,1.3-0.8,2.6-1.3,3.8
				C223.9,76.1,223.6,77,223.3,77.8z"/>
			<path class="st10" d="M204.9,66.1l3.9,11.1c0,0.4,2.1,0.7,5.2,0.8c-0.2-0.8-0.3-1.6-0.5-2.4c-0.5-2.3-1.3-9.6-1.5-10.4
				L204.9,66.1z"/>
			<g>
				<path class="st13" d="M207.9,54.9l-3.2,11.2c0,0.7,5.5,1.3,12.3,1.3c6.8,0,12.3-0.6,12.3-1.3l-3-11.2H207.9z"/>
				<path class="st7" d="M204.6,66.1l3.2-11.3h18.4l3.1,11.3l0,0c0,1.1-7.4,1.4-12.4,1.4C212,67.5,204.6,67.2,204.6,66.1z M226.1,55
					H208l-3.2,11.1c0.1,0.4,4.1,1.2,12.1,1.2c8,0,12.1-0.7,12.1-1.2L226.1,55z"/>
			</g>
			<path class="st17" d="M220.4,67.4c1.5,0,3.5,0.2,4.7,0.1c-0.3-1.5-2.8-8.8-3.4-10.9c-0.2-0.6-0.3-1.1-0.5-1.7h-1.9
				c0.2,1.7,0.3,10.2,0.5,12.6C219.9,67.5,220.4,67.4,220.4,67.4z"/>
			<path class="st10" d="M229.2,66.1l-3-11.2h-2.1c0.6,1.8,1.1,3.7,1.7,5.5c0.4,1.4,0.8,2.8,1.1,4.3c0.2,0.7,0.3,1.4,0.5,2.1
				C228.5,66.6,229.2,66.4,229.2,66.1z"/>
			<path class="st10" d="M204.7,66.1c0,0.5,3,1,7.4,1.2c0.2-1,0.4-2,0.6-3.1c0.3-1.6,0.6-3.1,0.9-4.7c0.3-1.5,0.5-3.1,0.8-4.6H208
				L204.7,66.1z"/>
			<g>
				<ellipse class="st0" cx="217" cy="54.9" rx="9.1" ry="0.5"/>
				<path class="st1" d="M210.5,55.4c-2.8-0.2-2.8-0.3-2.8-0.5c0-0.2,0-0.3,2.8-0.5c1.7-0.1,4-0.1,6.5-0.1s4.7,0.1,6.5,0.1
					c2.8,0.2,2.8,0.3,2.8,0.5c0,0.2,0,0.3-2.8,0.5c-1.7,0.1-4,0.1-6.5,0.1C214.6,55.5,212.3,55.5,210.5,55.4z M217,54.5
					c-4.5,0-8,0.2-8.8,0.4c0.9,0.2,4.3,0.4,8.8,0.4c4.5,0,8-0.2,8.8-0.4C225,54.7,221.5,54.5,217,54.5z M208,54.9L208,54.9L208,54.9
					z"/>
			</g>
		</g>
		<g>
			<rect x="206.1" y="109.6" class="st0" width="21.8" height="5.3"/>
			<path class="st1" d="M206,114.8v-5.3c0-0.1,0.1-0.1,0.1-0.1h21.8c0.1,0,0.1,0.1,0.1,0.1v5.3c0,0.1-0.1,0.1-0.1,0.1h-21.8
				C206,115,206,114.9,206,114.8z M227.8,109.7h-21.5v5h21.5V109.7z"/>
		</g>
		<g>
			<path class="st0" d="M255.8,141L255.8,141c0-0.5,0.4-0.9,0.9-0.9h2.4c0.5,0,0.9,0.4,0.9,0.9l0,0c0,0.5-0.4,0.9-0.9,0.9h-2.4
				C256.2,141.9,255.8,141.5,255.8,141z"/>
			<path class="st1" d="M255.6,141.2v-0.4c0-0.5,0.4-0.8,0.8-0.8h2.8c0.5,0,0.8,0.4,0.8,0.8v0.4c0,0.5-0.4,0.8-0.8,0.8h-2.8
				C256,142,255.6,141.6,255.6,141.2z M256.5,140.2c-0.3,0-0.6,0.3-0.6,0.6v0.4c0,0.3,0.3,0.6,0.6,0.6h2.8c0.3,0,0.6-0.3,0.6-0.6
				v-0.4c0-0.3-0.3-0.6-0.6-0.6H256.5z"/>
		</g>
		<g>
			<g>
				<path class="st0" d="M242.6,86.9h1.9h2.5h1.9c0.1-1.3-1.7-1.5-1.9-2.2s0.7-1.5,1.3-1.9c0.6-0.4-2-1.2-2-1.2h-1.2
					c0,0-2.6,0.7-2,1.2c0.6,0.4,1.5,1.2,1.3,1.9C244.3,85.4,242.5,85.6,242.6,86.9z"/>
				<path class="st1" d="M242.5,86.9c-0.1-0.9,0.6-1.3,1.2-1.6c0.3-0.2,0.6-0.4,0.7-0.6c0.1-0.6-0.7-1.4-1.3-1.8
					c-0.2-0.1-0.2-0.2-0.1-0.3c0.1-0.5,1.7-1,2.2-1.1c0,0,0,0,0,0h1.2c0,0,0,0,0,0c0.5,0.1,2.1,0.6,2.2,1.1c0,0.1,0,0.2-0.1,0.3
					c-0.6,0.4-1.4,1.2-1.3,1.8c0.1,0.2,0.4,0.4,0.7,0.6c0.6,0.4,1.3,0.8,1.2,1.6c0,0.1-0.1,0.1-0.1,0.1h-6.3
					C242.5,87.1,242.5,87,242.5,86.9z M247.7,85.5c-0.4-0.2-0.7-0.4-0.8-0.8c-0.2-0.8,0.8-1.6,1.4-2c0,0,0,0,0,0
					c0-0.2-0.8-0.6-2-0.9h-1.1c-1.2,0.3-2,0.7-2,0.9c0,0,0,0,0,0c0.6,0.4,1.6,1.3,1.4,2l0,0c-0.1,0.3-0.4,0.5-0.8,0.8
					c-0.5,0.3-1.1,0.7-1.1,1.3h6.1C248.8,86.2,248.2,85.8,247.7,85.5z"/>
			</g>
			<g>
				<path class="st0" d="M245.7,76.3c1.7,0,3.1,1.4,3.1,3.1c0,1.7-1.4,3.1-3.1,3.1c-1.7,0-3.1-1.4-3.1-3.1
					C242.7,77.6,244.1,76.3,245.7,76.3z"/>
				<path class="st1" d="M242.6,79.3c0-1.8,1.4-3.2,3.2-3.2s3.2,1.4,3.2,3.2s-1.4,3.2-3.2,3.2C244,82.5,242.6,81.1,242.6,79.3z
					 M242.8,79.3c0,1.6,1.3,2.9,2.9,2.9s2.9-1.3,2.9-2.9s-1.3-2.9-2.9-2.9C244.1,76.4,242.8,77.7,242.8,79.3z"/>
			</g>
		</g>
		<g>
			<path class="st18" d="M186.6,112.3v54.4h61.2c0.2,0,0.4,0.1,0.6,0.1c5.3,0,9.5-12.2,9.5-27.2s-4.3-27.2-9.5-27.2v-0.1H186.6
				L186.6,112.3z"/>
			<path class="st7" d="M247.7,166.8h-61.3v-54.7h62v0.1c5.3,0.2,9.5,12.4,9.5,27.3c0,15.1-4.3,27.3-9.7,27.3
				C248.2,166.9,247.9,166.9,247.7,166.8z M248.3,112.5L248.3,112.5l-61.5-0.1v54.2l61.1,0c0.2,0,0.4,0.1,0.6,0.1
				c5.2,0,9.4-12.2,9.4-27.1s-4.2-27.1-9.4-27.1H248.3z"/>
		</g>
		<g>
			<g>
				<path class="st5" d="M236.4,166.7h11.3c0.2,0,0.4,0.1,0.6,0.1c5.3,0,9.5-12.2,9.5-27.2s-4.3-27.2-9.5-27.2v-0.1h-12.6v0.1
					c5.3,0,9.5,12.2,9.5,27.2C245.3,154,241.4,165.8,236.4,166.7z"/>
				<path class="st6" d="M247.7,166.8h-11.3l0-0.2c4.9-0.9,8.8-12.8,8.8-27c0-14.9-4.2-27.1-9.4-27.1h-0.1v-0.3h12.9v0.1
					c5.3,0.2,9.5,12.4,9.5,27.3c0,15.1-4.3,27.3-9.7,27.3C248.2,166.9,247.9,166.9,247.7,166.8z M248.3,112.5L248.3,112.5l-11.3-0.1
					c4.8,1.6,8.5,13.2,8.5,27.2c0,13.6-3.5,25-8.2,27l10.5,0c0.2,0,0.4,0.1,0.6,0.1c5.2,0,9.4-12.2,9.4-27.1s-4.2-27.1-9.4-27.1
					C248.4,112.5,248.3,112.5,248.3,112.5z"/>
			</g>
			<g>
				<path class="st3" d="M236.4,166.7h-1.3c0.2,0,0.4,0.1,0.6,0.1C236,166.8,236.2,166.7,236.4,166.7z"/>
				<path class="st4" d="M235.1,166.8l0-0.2h1.3l0,0.2c-0.2,0-0.5,0.1-0.7,0.1C235.6,166.9,235.3,166.9,235.1,166.8z"/>
			</g>
		</g>
		<g>
			<g>
				<rect x="241.9" y="86" class="st0" width="8.2" height="1.8"/>
				<path class="st1" d="M241.8,87.8V86c0-0.1,0.1-0.1,0.1-0.1h8.2c0.1,0,0.1,0.1,0.1,0.1v1.8c0,0.1-0.1,0.1-0.1,0.1h-8.2
					C241.8,88,241.8,87.9,241.8,87.8z M250,86.1h-8v1.6h8V86.1z"/>
			</g>
			<g>
				<g>
					<g>
						<rect x="239.1" y="87.4" class="st3" width="13.3" height="1.8"/>
						<path class="st19" d="M239,87.3h13.5v2.1H239V87.3z M252.2,87.5h-13v1.6h13V87.5z"/>
					</g>
					<g>
						<rect x="237.5" y="88.6" class="st3" width="16.5" height="2.4"/>
						<path class="st19" d="M237.4,91.1v-2.6h16.7v2.6H237.4L237.4,91.1z M253.9,88.7h-16.2v2.1h16.2V88.7z"/>
					</g>
					<rect x="237.5" y="89.4" class="st3" width="16.5" height="1.6"/>
				</g>
				<g>
					<rect x="236.9" y="90.2" class="st5" width="17.8" height="22.5"/>
					<path class="st6" d="M236.7,90h18v22.8h-18V90z M254.5,90.3H237v22.3h17.5V90.3z"/>
				</g>
				<g>
					<rect x="238.4" y="92.1" class="st0" width="14.7" height="19"/>
					<path class="st1" d="M238.3,111.1v-19c0-0.1,0.1-0.1,0.1-0.1h14.7c0.1,0,0.1,0.1,0.1,0.1v19c0,0.1-0.1,0.1-0.1,0.1h-14.7
						C238.4,111.3,238.3,111.2,238.3,111.1z M252.9,92.3h-14.4V111h14.4V92.3z"/>
				</g>
				<g>
					<rect x="239.6" y="93.4" class="st3" width="12.3" height="16"/>
					<path class="st1" d="M239.5,93.3H252v16.2h-12.6V93.3z M251.8,93.6h-12.1v15.7h12.1V93.6z"/>
				</g>
			</g>
		</g>
		<path class="st10" d="M256.1,123.6c-1.7-6.8-4.5-11.3-7.7-11.3v-0.1h-61.8v11.3H256.1z"/>
		<path class="st10" d="M186.6,150.6v16.1h61.2c0.2,0,0.4,0.1,0.6,0.1c3.9,0,7.2-6.7,8.7-16.2H186.6z"/>
		<path class="st9" d="M257.8,134.6c-0.1-2.2-0.4-4.3-0.7-6.2h-70.5v6.2H257.8z"/>
	</g>
	<g>
		<g>
			<g>
				<g>
					<path class="st18" d="M19.5,25l0,148.4h107.5V25H19.5z M77.5,103.8V67.3c0-12.8,9.4-23.1,21-23.1c11.6,0,21,10.3,21,23.1v36.5
						H77.5L77.5,103.8z M26.6,103.8V67.3c0-12.8,9.4-23.1,21-23.1c11.6,0,21,10.3,21,23.1v36.5H26.6L26.6,103.8z"/>
					<path class="st7" d="M19.4,24.8h107.8v148.7H19.4L19.4,24.8z M126.9,173.2V25.1H19.7l0,148.2H126.9L126.9,173.2z M26.5,67.3
						C26.5,54.5,36,44,47.6,44s21.1,10.4,21.1,23.2v36.6H26.5V67.3z M68.4,103.7V67.3c0-12.7-9.3-23-20.8-23s-20.8,10.3-20.8,23
						v36.4H68.4L68.4,103.7z M77.4,103.9V67.3c0-12.8,9.5-23.2,21.1-23.2s21.1,10.4,21.1,23.2v36.6H77.4L77.4,103.9z M119.3,103.7
						V67.3c0-12.7-9.3-23-20.8-23s-20.8,10.3-20.8,23v36.4H119.3L119.3,103.7z"/>
				</g>
				<g class="st20">
					<path class="st18" d="M19.5,81.9l0,91.4h107.5V73.5c-2.4,1.9-5,3.7-7.6,5.3v25H77.5V91.5c-3,0.2-6,0.4-9,0.4v11.9H26.6V84.8
						c-0.2-0.1-0.4-0.1-0.6-0.2C23.8,83.8,21.7,82.9,19.5,81.9z"/>
					<path class="st7" d="M19.4,81.7l0.2,0.1c2.3,1,4.4,1.9,6.5,2.7l0,0c0.1,0,0.2,0.1,0.3,0.1c0.1,0,0.2,0.1,0.3,0.1l0.1,0v18.9
						h41.7V91.8l0.1,0c3,0,6-0.2,9-0.4l0.1,0v12.3h41.7V78.7l0.1,0c2.7-1.6,5.2-3.4,7.6-5.3l0.2-0.2v100.3H19.4L19.4,81.7z
						 M126.9,173.2V73.8c-2.3,1.8-4.8,3.5-7.4,5.1v25H77.4V91.7c-2.9,0.2-5.8,0.4-8.7,0.4v11.9H26.5v-19c-0.1,0-0.1,0-0.2-0.1
						c-0.1,0-0.2-0.1-0.3-0.1c-2-0.8-4.1-1.6-6.3-2.6l0,91.1H126.9L126.9,173.2z"/>
				</g>
				<g class="st20">
					<rect x="19.5" y="25" class="st18" width="107.5" height="19.2"/>
					<path class="st7" d="M19.4,24.8h107.8v19.5H19.4V24.8z M126.9,44v-19H19.7v19H126.9L126.9,44z"/>
				</g>
				<g>
					<path class="st3" d="M77.5,67.3v36.5h41.9V67.3c0-12.8-9.4-23.1-21-23.1S77.5,54.5,77.5,67.3z M79.2,101.4V67.8
						c0-11.7,8.6-21.3,19.3-21.3s19.3,9.5,19.3,21.3v33.6H79.2L79.2,101.4z"/>
					<path class="st4" d="M77.4,103.9V67.3c0-12.8,9.5-23.2,21.1-23.2s21.1,10.4,21.1,23.2v36.6H77.4L77.4,103.9z M119.3,103.7V67.3
						c0-12.7-9.3-23-20.8-23s-20.8,10.3-20.8,23v36.4H119.3L119.3,103.7z M79.1,101.5V67.8c0-11.8,8.7-21.4,19.4-21.4
						c10.7,0,19.4,9.6,19.4,21.4v33.7H79.1L79.1,101.5z M117.6,67.8c0-11.7-8.6-21.1-19.2-21.1s-19.2,9.5-19.2,21.1v33.5h38.3V67.8z
						"/>
				</g>
				<g>
					<path class="st3" d="M26.6,67.3v36.5h41.9V67.3c0-12.8-9.4-23.1-21-23.1S26.6,54.5,26.6,67.3z M28.3,101.4V67.8
						c0-11.7,8.6-21.3,19.3-21.3s19.3,9.5,19.3,21.3v33.6H28.3L28.3,101.4z"/>
					<path class="st4" d="M26.5,67.3C26.5,54.5,36,44,47.6,44s21.1,10.4,21.1,23.2v36.6H26.5V67.3z M68.4,103.7V67.3
						c0-12.7-9.3-23-20.8-23s-20.8,10.3-20.8,23v36.4H68.4L68.4,103.7z M28.2,101.5V67.8c0-11.8,8.7-21.4,19.4-21.4
						C58.3,46.4,67,56,67,67.8v33.7H28.2L28.2,101.5z M66.7,67.8c0-11.7-8.6-21.1-19.2-21.1c-10.6,0-19.2,9.5-19.2,21.1v33.5h38.3
						V67.8z"/>
				</g>
			</g>
			<g>
				<rect x="19.5" y="111.5" class="st0" width="107.5" height="61.9"/>
				<path class="st1" d="M19.4,173.4v-61.9c0-0.1,0.1-0.1,0.1-0.1h107.5c0.1,0,0.1,0.1,0.1,0.1v61.9c0,0.1-0.1,0.1-0.1,0.1H19.5
					C19.5,173.5,19.4,173.4,19.4,173.4z M126.9,173.2v-61.7H19.7v61.7H126.9L126.9,173.2z"/>
			</g>
			<rect x="19.5" y="111.5" class="st21" width="107.5" height="5.9"/>
			<g>
				<rect x="17.5" y="109.1" class="st5" width="111.5" height="4.6"/>
				<path class="st6" d="M17.4,109h111.8v4.9H17.4V109z M128.9,109.2H17.7v4.4h111.3V109.2z"/>
			</g>
			<g>
				<rect x="17.5" y="164.8" class="st5" width="111.5" height="4.6"/>
				<path class="st6" d="M17.4,164.7h111.8v4.9H17.4V164.7z M128.9,164.9H17.7v4.4h111.3V164.9z"/>
			</g>
			<g>
				<path class="st0" d="M14.5,31.7v9.4h54h9.5h54v-9.4c0,0,0.1-13.4-8.9-15.2H78.1h-9.5H23.4C14.4,18.3,14.5,31.7,14.5,31.7z"/>
				<path class="st1" d="M14.4,41.1v-9.4c0,0,0-3.4,1.1-7c1.5-4.7,4.2-7.6,7.9-8.4c0,0,0,0,0,0h99.8c0,0,0,0,0,0
					c3.7,0.8,6.5,3.7,7.9,8.4c1.1,3.5,1.1,6.9,1.1,6.9v9.4c0,0.1-0.1,0.1-0.1,0.1H14.5C14.4,41.2,14.4,41.2,14.4,41.1z M132,41v-9.3
					c0,0,0-3.4-1.1-6.9c-1.8-5.8-5.2-7.7-7.7-8.2H23.4c-2.5,0.5-5.9,2.4-7.7,8.2c-1.1,3.5-1.1,6.8-1.1,6.9V41H132L132,41z"/>
			</g>
			<path class="st22" d="M131.9,29.1c-0.1-0.5-0.2-1.1-0.3-1.7H14.9c-0.1,0.6-0.2,1.2-0.3,1.7H131.9z"/>
			<rect x="14.5" y="38" class="st21" width="117.6" height="3.1"/>
			<g>
				<path class="st7" d="M34.6,129.5v6.2v9.3v6.2c11.7,1.2,14.3,9.8,14.3,9.8h15.4h18h15.4c0,0,2.6-8.6,14.3-9.8v-6.2v-9.3v-6.2
					c-11.7-1.2-14.3-9.8-14.3-9.8H82.3h-18H48.9C48.9,119.8,46.3,128.3,34.6,129.5z"/>
				<path class="st8" d="M48.9,161L48.9,161l-0.1-0.1c0,0-0.7-2.2-2.7-4.4c-1.9-2.1-5.4-4.7-11.5-5.3l-0.1,0v-21.8l0.1,0
					c11.5-1.2,14.2-9.6,14.2-9.7l0-0.1h49l0,0.1c0,0,0.7,2.2,2.7,4.4c1.9,2.1,5.4,4.7,11.5,5.3l0.1,0v21.8l-0.1,0
					c-11.5,1.2-14.2,9.6-14.2,9.7l0,0.1L48.9,161L48.9,161z M100.4,156.3c1.9-2.1,5.5-4.7,11.5-5.4v-21.3
					c-10.9-1.1-13.9-8.8-14.3-9.8H49c-0.1,0.4-0.9,2.4-2.7,4.4c-1.9,2.1-5.5,4.7-11.5,5.4V151c10.9,1.1,13.9,8.8,14.3,9.8h48.7
					C97.8,160.3,98.5,158.3,100.4,156.3z"/>
			</g>
		</g>
		<path class="st21" d="M127.7,20.1c-1.3-1.7-3.1-3.1-5.5-3.6H22.4c-2.5,0.5-4.3,1.9-5.5,3.6H127.7z"/>
	</g>
	<g>
		<g>
			<g>
				<g>
					<g>
						<polygon class="st0" points="113,144 116.8,169.5 117.8,169.5 120.2,169.5 121.1,169.5 125,144 120.2,144 117.8,144 						"/>
						<path class="st1" d="M116.7,169.5l-3.8-25.6c0,0,0-0.1,0-0.1s0.1,0,0.1,0h12c0,0,0.1,0,0.1,0c0,0,0,0.1,0,0.1l-3.8,25.6
							c0,0.1-0.1,0.1-0.1,0.1h-4.4C116.7,169.6,116.7,169.6,116.7,169.5z M124.8,144.1h-11.7l3.8,25.3h4.2L124.8,144.1z"/>
					</g>
					<g>
						<polygon class="st0" points="113,204.6 116.8,179.1 117.8,179.1 120.2,179.1 121.1,179.1 125,204.6 120.2,204.6 117.8,204.6 
													"/>
						<path class="st1" d="M112.9,204.7c0,0,0-0.1,0-0.1l3.8-25.6c0-0.1,0.1-0.1,0.1-0.1h4.4c0.1,0,0.1,0,0.1,0.1l3.8,25.6
							c0,0,0,0.1,0,0.1s-0.1,0-0.1,0L112.9,204.7C112.9,204.8,112.9,204.7,112.9,204.7z M121,179.2h-4.2l-3.8,25.3h11.7L121,179.2z"
							/>
					</g>
				</g>
				<g>
					<g>
						<polygon class="st0" points="88.6,180.3 114.2,176.5 114.2,175.5 114.2,173.1 114.2,172.1 88.6,168.3 88.6,173.1 88.6,175.5 
													"/>
						<path class="st1" d="M88.5,180.4C88.5,180.4,88.5,180.3,88.5,180.4l0-12.1c0,0,0-0.1,0-0.1s0.1,0,0.1,0l25.6,3.8
							c0.1,0,0.1,0.1,0.1,0.1v4.4c0,0.1,0,0.1-0.1,0.1l-25.6,3.8C88.6,180.4,88.6,180.4,88.5,180.4
							C88.6,180.4,88.6,180.4,88.5,180.4z M114.1,172.2l-25.3-3.8v11.7l25.3-3.8V172.2z"/>
					</g>
					<g>
						<polygon class="st0" points="149.3,180.3 123.7,176.5 123.7,175.5 123.7,173.1 123.7,172.1 149.3,168.3 149.3,173.1 
							149.3,175.5 						"/>
						<path class="st1" d="M149.3,180.4l-25.6-3.8c-0.1,0-0.1-0.1-0.1-0.1v-4.4c0-0.1,0-0.1,0.1-0.1l25.6-3.8c0,0,0.1,0,0.1,0
							c0,0,0,0.1,0,0.1v12c0,0,0,0.1,0,0.1C149.4,180.4,149.3,180.4,149.3,180.4C149.3,180.4,149.3,180.4,149.3,180.4z M123.9,172.2
							v4.2l25.3,3.8v-11.7L123.9,172.2z"/>
					</g>
				</g>
			</g>
			<g>
				<g>
					<g>
						<polygon class="st0" points="93.3,157.1 114,172.5 114.7,171.8 116.4,170.1 117.1,169.4 101.8,148.6 98.4,152 96.7,153.7 
													"/>
						<path class="st1" d="M114,172.6l-20.8-15.4c0,0,0-0.1-0.1-0.1c0,0,0-0.1,0-0.1l8.5-8.5c0,0,0.1,0,0.1,0c0,0,0.1,0,0.1,0.1
							l15.4,20.8c0,0.1,0,0.1,0,0.2l-3.1,3.1C114.1,172.6,114.1,172.6,114,172.6C114,172.6,114,172.6,114,172.6z M101.7,148.8l-5,5
							l0,0l-3.3,3.3l20.6,15.2l2.9-2.9L101.7,148.8z"/>
					</g>
					<g>
						<polygon class="st0" points="136.2,200 120.8,179.2 121.5,178.5 123.2,176.8 123.9,176.1 144.7,191.5 141.3,194.9 
							139.6,196.6 						"/>
						<path class="st1" d="M136.2,200.1C136.1,200.1,136.1,200.1,136.2,200.1l-15.5-20.8c0,0,0-0.1,0-0.2l3.1-3.1c0,0,0.1,0,0.2,0
							l20.8,15.4c0,0,0,0.1,0.1,0.1c0,0,0,0.1,0,0.1L136.2,200.1C136.2,200.1,136.2,200.1,136.2,200.1
							C136.2,200.1,136.2,200.1,136.2,200.1z M123.9,176.3l-2.9,2.9l15.2,20.6l8.3-8.3L123.9,176.3z"/>
					</g>
				</g>
				<g>
					<g>
						<polygon class="st0" points="101.8,200 117.1,179.2 116.4,178.5 114.7,176.8 114,176.1 93.3,191.5 96.7,194.9 98.4,196.6 
													"/>
						<path class="st1" d="M101.7,200.1l-8.5-8.5c0,0,0-0.1,0-0.1c0,0,0-0.1,0.1-0.1L114,176c0,0,0.1,0,0.2,0l3.1,3.1
							c0,0,0,0.1,0,0.2l-15.4,20.8C101.8,200.1,101.8,200.1,101.7,200.1C101.8,200.1,101.8,200.1,101.7,200.1
							C101.7,200.1,101.7,200.1,101.7,200.1z M114,176.3l-20.6,15.2l5,5l0,0l3.3,3.3l15.2-20.6L114,176.3z"/>
					</g>
					<g>
						<polygon class="st0" points="144.7,157.1 123.9,172.5 123.2,171.8 121.5,170.1 120.8,169.4 136.2,148.6 139.6,152 
							141.3,153.7 						"/>
						<path class="st1" d="M123.8,172.6l-3.1-3.1c0,0,0-0.1,0-0.2l15.4-20.8c0,0,0.1,0,0.1-0.1c0,0,0.1,0,0.1,0l8.5,8.5
							c0,0,0,0.1,0,0.1c0,0,0,0.1-0.1,0.1L124,172.6C123.9,172.6,123.9,172.6,123.8,172.6C123.9,172.6,123.8,172.6,123.8,172.6z
							 M136.2,148.8L121,169.4l2.9,2.9l20.6-15.2L136.2,148.8z"/>
					</g>
				</g>
			</g>
		</g>
		<g class="st23">
			<g>
				<g>
					<g>
						<path class="st0" d="M124.2,149.3l0.8-5.3h-12l0.8,5.1c1.4-0.4,2.8-0.6,4.2-0.7C120,148.3,122.2,148.6,124.2,149.3z"/>
						<path class="st1" d="M124.1,149.4c-2-0.7-4.1-1-6.2-0.9c-1.4,0.1-2.8,0.3-4.2,0.7c0,0-0.1,0-0.1,0c0,0-0.1-0.1-0.1-0.1
							l-0.8-5.1c0,0,0-0.1,0-0.1s0.1,0,0.1,0h12c0,0,0.1,0,0.1,0c0,0,0,0.1,0,0.1l-0.8,5.3c0,0,0,0.1-0.1,0.1
							C124.2,149.4,124.2,149.4,124.1,149.4C124.2,149.4,124.1,149.4,124.1,149.4z M124.8,144.1h-11.7l0.7,4.8
							c1.4-0.4,2.7-0.6,4.1-0.6l0,0c2.1-0.1,4.1,0.2,6.2,0.9L124.8,144.1L124.8,144.1z"/>
					</g>
					<g>
						<path class="st0" d="M113.9,198.4l-0.9,6.3h12l-0.8-5.5c-3.2,0.5-6.6,0.3-9.7-0.6C114.2,198.5,114.1,198.4,113.9,198.4z"/>
						<path class="st1" d="M112.9,204.7c0,0,0-0.1,0-0.1l0.9-6.3c0,0,0-0.1,0.1-0.1c0,0,0.1,0,0.1,0l0.2,0c0.1,0,0.2,0.1,0.4,0.1
							c3.1,0.9,6.4,1.1,9.7,0.6c0.1,0,0.1,0,0.1,0.1l0.8,5.5c0,0,0,0.1,0,0.1s-0.1,0-0.1,0L112.9,204.7
							C112.9,204.8,112.9,204.7,112.9,204.7z M124,199.3c-3.3,0.5-6.5,0.2-9.7-0.6l0,0c-0.1,0-0.2-0.1-0.4-0.1l0,0l-0.9,6h11.7
							L124,199.3z M114.4,198.5L114.4,198.5L114.4,198.5z"/>
					</g>
				</g>
				<g>
					<g>
						<path class="st0" d="M88.6,168.3v12l8-1.2c-0.2-1.1-0.3-2.2-0.3-3.3c0-2.1,0.1-4.2,0.5-6.3L88.6,168.3z"/>
						<path class="st1" d="M88.5,180.4C88.5,180.4,88.5,180.3,88.5,180.4l0-12.1c0,0,0-0.1,0-0.1s0.1,0,0.1,0l8.2,1.2
							c0,0,0.1,0,0.1,0.1s0,0.1,0,0.1c-0.4,2.1-0.6,4.2-0.5,6.3c0,1.1,0.1,2.2,0.3,3.3c0,0,0,0.1,0,0.1c0,0,0,0-0.1,0l-8,1.2
							C88.6,180.4,88.6,180.4,88.5,180.4C88.6,180.4,88.6,180.4,88.5,180.4z M96.2,175.8c0-2,0.1-4.1,0.5-6.2l-7.9-1.2v11.7l7.7-1.2
							C96.3,178,96.2,176.9,96.2,175.8z"/>
					</g>
					<g>
						<path class="st0" d="M145,179.7l4.3,0.6v-12l-3.6,0.5c0.3,1.9,0.4,3.8,0.3,5.7C145.9,176.3,145.6,178,145,179.7z"/>
						<path class="st1" d="M149.3,180.4l-4.3-0.6c0,0-0.1,0-0.1-0.1c0,0,0-0.1,0-0.1c0.5-1.8,0.9-3.5,1-5.1l0,0
							c0.1-1.9,0-3.8-0.3-5.6c0,0,0-0.1,0-0.1c0,0,0,0,0.1-0.1l3.6-0.5c0,0,0.1,0,0.1,0c0,0,0,0.1,0,0.1v12
							C149.4,180.3,149.4,180.4,149.3,180.4C149.4,180.4,149.3,180.4,149.3,180.4C149.3,180.4,149.3,180.4,149.3,180.4z
							 M145.9,168.9c0.3,1.8,0.4,3.7,0.3,5.6l0,0c-0.1,1.7-0.4,3.3-1,5l4,0.6v-11.7L145.9,168.9z"/>
					</g>
				</g>
			</g>
			<g>
				<g>
					<g>
						<path class="st0" d="M105.5,153.6l-3.7-5l-5.1,5.1l-3.4,3.4l6.1,4.5c0.2-0.4,0.4-0.8,0.6-1.2
							C101.4,157.9,103.3,155.6,105.5,153.6z"/>
						<path class="st1" d="M99.3,161.7l-6.1-4.5c0,0,0-0.1-0.1-0.1c0,0,0-0.1,0-0.1l8.5-8.5c0,0,0.1,0,0.1,0c0,0,0.1,0,0.1,0.1
							l3.7,5c0,0.1,0,0.1,0,0.2c-2.2,1.9-4,4.2-5.4,6.8l0,0c-0.2,0.3-0.4,0.7-0.6,1.2c0,0,0,0.1-0.1,0.1
							C99.4,161.8,99.4,161.8,99.3,161.7C99.4,161.8,99.3,161.8,99.3,161.7z M99.9,160.4c1.4-2.5,3.3-4.9,5.4-6.8l-3.6-4.8l-8.3,8.3
							l5.9,4.4C99.6,161,99.7,160.7,99.9,160.4L99.9,160.4z"/>
					</g>
					<g>
						<path class="st0" d="M133.2,195.9l3,4.1l8.5-8.5l-3.9-2.9c-0.1,0.2-0.2,0.4-0.4,0.6C138.4,191.9,136,194.2,133.2,195.9z"/>
						<path class="st1" d="M136.2,200.1C136.1,200.1,136.1,200.1,136.2,200.1l-3.1-4.1c0,0,0-0.1,0-0.1c0,0,0-0.1,0.1-0.1
							c2.8-1.7,5.2-4,7.2-6.7l0,0c0.1-0.1,0.1-0.2,0.2-0.3c0-0.1,0.1-0.1,0.1-0.2c0,0,0,0,0.1-0.1c0,0,0.1,0,0.1,0l3.9,2.9
							c0,0,0,0.1,0.1,0.1s0,0.1,0,0.1L136.2,200.1C136.2,200.1,136.2,200.1,136.2,200.1C136.2,200.1,136.2,200.1,136.2,200.1z
							 M140.8,188.8c0,0,0,0.1-0.1,0.1c-0.1,0.1-0.1,0.2-0.2,0.3l0,0c-2,2.8-4.4,5-7.1,6.7l2.8,3.8l8.3-8.3L140.8,188.8z"/>
					</g>
				</g>
				<g>
					<g>
						<path class="st0" d="M93.3,191.5l8.5,8.5l4.2-5.7c-1.6-1.2-3.1-2.7-4.4-4.3c-0.8-1-1.5-2-2.2-3.1L93.3,191.5z"/>
						<path class="st1" d="M101.7,200.1l-8.5-8.5c0,0,0-0.1,0-0.1s0-0.1,0.1-0.1l6.2-4.6c0,0,0.1,0,0.1,0c0,0,0.1,0,0.1,0.1
							c0.6,1,1.4,2.1,2.2,3.1c1.3,1.6,2.7,3,4.4,4.2c0.1,0,0.1,0.1,0,0.2l-4.2,5.7C101.8,200.1,101.8,200.1,101.7,200.1
							C101.8,200.1,101.8,200.1,101.7,200.1C101.7,200.1,101.7,200.1,101.7,200.1z M101.5,190.1c-0.8-1-1.5-2-2.1-3l-5.9,4.4
							l8.3,8.3l4.1-5.5C104.2,193.1,102.8,191.6,101.5,190.1z"/>
					</g>
					<g>
						<path class="st0" d="M141.5,159.4l3.1-2.3l-3.4-3.4l-1.7-1.7l-3.4-3.4l-2.2,3c0.8,0.5,1.5,1.1,2.1,1.7c2,1.7,3.7,3.7,5.2,5.9
							C141.4,159.2,141.5,159.3,141.5,159.4z"/>
						<path class="st1" d="M141.5,159.5C141.5,159.5,141.5,159.5,141.5,159.5l-0.2-0.2c0-0.1-0.1-0.1-0.1-0.2l0,0
							c-1.6-2.3-3.4-4.2-5.2-5.9c-0.7-0.7-1.4-1.2-2.1-1.7c0,0,0,0-0.1-0.1c0,0,0-0.1,0-0.1l2.2-3c0,0,0.1,0,0.1-0.1
							c0,0,0.1,0,0.1,0l8.5,8.5c0,0,0,0.1,0,0.1c0,0,0,0.1-0.1,0.1L141.5,159.5C141.6,159.5,141.6,159.5,141.5,159.5
							C141.5,159.5,141.5,159.5,141.5,159.5z M136.2,148.8l-2,2.7c0.7,0.5,1.3,1,2,1.6c1.8,1.6,3.6,3.6,5.2,5.9l0,0
							c0,0.1,0.1,0.1,0.1,0.2l0,0l2.9-2.2L136.2,148.8z"/>
					</g>
				</g>
			</g>
		</g>
		<g>
			<g>
				<path class="st5" d="M84.3,174.3c0,19.1,15.5,34.6,34.6,34.6s34.6-15.5,34.6-34.6s-15.5-34.6-34.6-34.6
					C99.8,139.7,84.3,155.2,84.3,174.3z M89.7,174.3c0-16.1,13.1-29.2,29.2-29.2s29.2,13.1,29.2,29.2s-13.1,29.2-29.2,29.2
					S89.7,190.4,89.7,174.3z"/>
				<path class="st6" d="M84.2,174.3c0-19.2,15.6-34.8,34.8-34.8s34.8,15.6,34.8,34.8s-15.6,34.8-34.8,34.8S84.2,193.5,84.2,174.3z
					 M84.5,174.3c0,19,15.5,34.5,34.5,34.5c19,0,34.5-15.5,34.5-34.5S138,139.8,119,139.8S84.5,155.3,84.5,174.3z M89.6,174.3
					c0-16.2,13.2-29.3,29.3-29.3s29.3,13.2,29.3,29.3s-13.2,29.3-29.3,29.3C102.8,203.6,89.6,190.5,89.6,174.3z M89.9,174.3
					c0,16,13.1,29.1,29.1,29.1c16,0,29.1-13.1,29.1-29.1S135,145.2,119,145.2S89.9,158.3,89.9,174.3z"/>
			</g>
			<path class="st0" d="M87.1,174.3c0,17.6,14.3,31.8,31.8,31.8s31.8-14.3,31.8-31.8s-14.3-31.8-31.8-31.8
				C101.4,142.4,87.1,156.7,87.1,174.3z M89.7,174.3c0-16.1,13.1-29.2,29.2-29.2s29.2,13.1,29.2,29.2s-13.1,29.2-29.2,29.2
				S89.7,190.4,89.7,174.3z"/>
			<g>
				<ellipse class="st0" cx="119" cy="174.3" rx="13.7" ry="13.7"/>
				<path class="st1" d="M105.1,174.3c0-7.6,6.2-13.8,13.8-13.8c7.6,0,13.8,6.2,13.8,13.8s-6.2,13.8-13.8,13.8
					S105.1,181.9,105.1,174.3z M105.4,174.3c0,7.5,6.1,13.6,13.6,13.6c7.5,0,13.6-6.1,13.6-13.6s-6.1-13.6-13.6-13.6
					C111.5,160.7,105.4,166.8,105.4,174.3z"/>
			</g>
			<g>
				<ellipse class="st0" cx="119" cy="174" rx="7.7" ry="7.7"/>
				<path class="st1" d="M111.1,174c0-4.3,3.5-7.8,7.8-7.8s7.8,3.5,7.8,7.8c0,4.3-3.5,7.8-7.8,7.8
					C114.6,181.8,111.1,178.3,111.1,174z M111.4,174c0,4.2,3.4,7.6,7.6,7.6c4.2,0,7.6-3.4,7.6-7.6s-3.4-7.6-7.6-7.6
					C114.8,166.4,111.4,169.8,111.4,174z"/>
			</g>
		</g>
		<g>
			<circle class="st24" cx="119" cy="174.3" r="5.5"/>
			<path class="st7" d="M113.3,174.3c0-3.1,2.5-5.6,5.6-5.6c3.1,0,5.6,2.5,5.6,5.6c0,3.1-2.5,5.6-5.6,5.6
				C115.9,179.9,113.3,177.4,113.3,174.3z M113.6,174.3c0,3,2.4,5.4,5.4,5.4s5.4-2.4,5.4-5.4s-2.4-5.4-5.4-5.4
				C116,168.9,113.6,171.3,113.6,174.3z"/>
		</g>
	</g>
	<g>
		<g>
			<g>
				<g>
					<g>
						<polygon class="st0" points="33.6,144 37.5,169.5 38.4,169.5 40.9,169.5 41.8,169.5 45.6,144 40.9,144 38.4,144 						"/>
						<path class="st1" d="M37.3,169.5L33.5,144c0,0,0-0.1,0-0.1s0.1,0,0.1,0h12c0,0,0.1,0,0.1,0c0,0,0,0.1,0,0.1L42,169.5
							c0,0.1-0.1,0.1-0.1,0.1h-4.4C37.4,169.6,37.3,169.6,37.3,169.5z M45.5,144.1H33.8l3.8,25.3h4.2L45.5,144.1z"/>
					</g>
					<g>
						<polygon class="st0" points="33.6,204.6 37.5,179.1 38.4,179.1 40.9,179.1 41.8,179.1 45.6,204.6 40.9,204.6 38.4,204.6 
													"/>
						<path class="st1" d="M33.5,204.7c0,0,0-0.1,0-0.1l3.8-25.6c0-0.1,0.1-0.1,0.1-0.1h4.4c0.1,0,0.1,0,0.1,0.1l3.8,25.6
							c0,0,0,0.1,0,0.1s-0.1,0-0.1,0L33.5,204.7C33.6,204.8,33.6,204.7,33.5,204.7z M41.7,179.2h-4.2l-3.8,25.3h11.7L41.7,179.2z"/>
					</g>
				</g>
				<g>
					<g>
						<polygon class="st0" points="9.3,180.3 34.9,176.5 34.9,175.5 34.9,173.1 34.9,172.1 9.3,168.3 9.3,173.1 9.3,175.5 						"/>
						<path class="st1" d="M9.2,180.4C9.2,180.4,9.2,180.3,9.2,180.4l0-12.1c0,0,0-0.1,0-0.1c0,0,0.1,0,0.1,0l25.6,3.8
							c0.1,0,0.1,0.1,0.1,0.1v4.4c0,0.1,0,0.1-0.1,0.1l-25.6,3.8C9.3,180.4,9.3,180.4,9.2,180.4C9.3,180.4,9.2,180.4,9.2,180.4z
							 M34.7,172.2l-25.3-3.8v11.7l25.3-3.8V172.2z"/>
					</g>
					<g>
						<polygon class="st0" points="70,180.3 44.4,176.5 44.4,175.5 44.4,173.1 44.4,172.1 70,168.3 70,173.1 70,175.5 						"/>
						<path class="st1" d="M70,180.4l-25.6-3.8c-0.1,0-0.1-0.1-0.1-0.1v-4.4c0-0.1,0-0.1,0.1-0.1l25.6-3.8c0,0,0.1,0,0.1,0
							c0,0,0,0.1,0,0.1v12c0,0,0,0.1,0,0.1C70,180.4,70,180.4,70,180.4C70,180.4,70,180.4,70,180.4z M44.5,172.2v4.2l25.3,3.8v-11.7
							L44.5,172.2z"/>
					</g>
				</g>
			</g>
			<g>
				<g>
					<g>
						<polygon class="st0" points="13.9,157.1 34.7,172.5 35.4,171.8 37.1,170.1 37.8,169.4 22.4,148.6 19,152 17.3,153.7 						"/>
						<path class="st1" d="M34.6,172.6l-20.8-15.4c0,0,0-0.1,0-0.1c0,0,0-0.1,0-0.1l8.5-8.5c0,0,0.1,0,0.1,0c0,0,0.1,0,0.1,0.1
							l15.4,20.8c0,0.1,0,0.1,0,0.2l-3.1,3.1C34.8,172.6,34.8,172.6,34.6,172.6C34.7,172.6,34.7,172.6,34.6,172.6z M22.4,148.8
							l-8.3,8.3l20.6,15.2l2.9-2.9L22.4,148.8z"/>
					</g>
					<g>
						<polygon class="st0" points="56.9,200 41.5,179.2 42.2,178.5 43.9,176.8 44.6,176.1 65.3,191.5 62,194.9 60.2,196.6 						"/>
						<path class="st1" d="M56.8,200.1C56.8,200.1,56.8,200.1,56.8,200.1l-15.5-20.8c0,0,0-0.1,0-0.2l3.1-3.1c0,0,0.1,0,0.2,0
							l20.8,15.4c0,0,0,0.1,0,0.1c0,0,0,0.1,0,0.1L56.8,200.1C56.9,200.1,56.9,200.1,56.8,200.1C56.8,200.1,56.8,200.1,56.8,200.1z
							 M44.6,176.3l-2.9,2.9l15.2,20.6l8.3-8.3L44.6,176.3z"/>
					</g>
				</g>
				<g>
					<g>
						<polygon class="st0" points="22.4,200 37.8,179.2 37.1,178.5 35.4,176.8 34.7,176.1 13.9,191.5 17.3,194.9 19,196.6 						"/>
						<path class="st1" d="M22.4,200.1l-8.5-8.5c0,0,0-0.1,0-0.1c0,0,0-0.1,0-0.1L34.7,176c0,0,0.1,0,0.2,0l3.1,3.1c0,0,0,0.1,0,0.2
							l-15.4,20.8C22.5,200.1,22.5,200.1,22.4,200.1C22.4,200.1,22.4,200.1,22.4,200.1C22.4,200.1,22.4,200.1,22.4,200.1z
							 M34.7,176.3l-20.6,15.2l8.3,8.3l15.2-20.6L34.7,176.3z"/>
					</g>
					<g>
						<polygon class="st0" points="65.3,157.1 44.6,172.5 43.9,171.8 42.2,170.1 41.5,169.4 56.9,148.6 60.2,152 62,153.7 						"/>
						<path class="st1" d="M44.5,172.6l-3.1-3.1c0,0,0-0.1,0-0.2l15.4-20.8c0,0,0.1,0,0.1-0.1c0,0,0.1,0,0.1,0l5.1,5.1l0,0l3.4,3.4
							c0,0,0,0.1,0,0.1c0,0,0,0.1,0,0.1l-20.8,15.4C44.6,172.6,44.6,172.6,44.5,172.6C44.5,172.6,44.5,172.6,44.5,172.6z
							 M56.9,148.8l-15.2,20.6l2.9,2.9l20.6-15.2L56.9,148.8z"/>
					</g>
				</g>
			</g>
		</g>
		<g class="st23">
			<g>
				<g>
					<g>
						<path class="st0" d="M44.9,149.3l0.8-5.3h-12l0.8,5.1c1.4-0.4,2.8-0.6,4.2-0.7C40.7,148.3,42.8,148.6,44.9,149.3z"/>
						<path class="st1" d="M44.8,149.4c-2-0.7-4.1-1-6.2-0.9c-1.4,0.1-2.8,0.3-4.2,0.7c0,0-0.1,0-0.1,0s-0.1-0.1-0.1-0.1l-0.8-5.1
							c0,0,0-0.1,0-0.1s0.1,0,0.1,0h12c0,0,0.1,0,0.1,0c0,0,0,0.1,0,0.1l-0.8,5.3c0,0,0,0.1-0.1,0.1
							C44.9,149.4,44.9,149.4,44.8,149.4C44.8,149.4,44.8,149.4,44.8,149.4z M45.5,144.1H33.8l0.7,4.8c1.4-0.4,2.7-0.6,4.1-0.6l0,0
							c2.1-0.1,4.1,0.2,6.2,0.9L45.5,144.1L45.5,144.1z"/>
					</g>
					<g>
						<path class="st0" d="M34.6,198.4l-0.9,6.3h12l-0.8-5.5c-3.2,0.5-6.6,0.3-9.7-0.6C34.9,198.5,34.7,198.4,34.6,198.4z"/>
						<path class="st1" d="M33.5,204.7c0,0,0-0.1,0-0.1l0.9-6.3c0,0,0-0.1,0.1-0.1c0,0,0.1,0,0.1,0l0.1,0c0.1,0,0.2,0.1,0.4,0.1
							c3.1,0.9,6.4,1.1,9.7,0.6c0.1,0,0.1,0,0.1,0.1l0.8,5.5c0,0,0,0.1,0,0.1s-0.1,0-0.1,0L33.5,204.7
							C33.6,204.8,33.6,204.7,33.5,204.7z M44.7,199.3c-3.3,0.5-6.5,0.2-9.7-0.6l0,0c-0.1,0-0.2-0.1-0.4-0.1l0,0l-0.9,6h11.7
							L44.7,199.3z M35.1,198.5L35.1,198.5L35.1,198.5z"/>
					</g>
				</g>
				<g>
					<g>
						<path class="st0" d="M9.3,168.3v12l8-1.2c-0.2-1.1-0.3-2.2-0.3-3.3c0-2.1,0.1-4.2,0.5-6.3L9.3,168.3z"/>
						<path class="st1" d="M9.2,180.4C9.2,180.4,9.2,180.3,9.2,180.4l0-12.1c0,0,0-0.1,0-0.1c0,0,0.1,0,0.1,0l8.2,1.2
							c0,0,0.1,0,0.1,0.1s0,0.1,0,0.1c-0.4,2.1-0.6,4.2-0.5,6.3c0,1.1,0.1,2.2,0.3,3.3c0,0,0,0.1,0,0.1c0,0,0,0-0.1,0l-8,1.2
							C9.3,180.4,9.3,180.4,9.2,180.4C9.3,180.4,9.2,180.4,9.2,180.4z M16.9,175.8c0-2,0.1-4.1,0.5-6.2l-7.9-1.2v11.7l7.7-1.2
							C17,178,16.9,176.9,16.9,175.8z"/>
					</g>
					<g>
						<path class="st0" d="M65.7,179.7l4.3,0.6v-12l-3.6,0.5c0.3,1.9,0.4,3.8,0.3,5.7C66.6,176.3,66.2,178,65.7,179.7z"/>
						<path class="st1" d="M70,180.4l-4.3-0.6c0,0-0.1,0-0.1-0.1c0,0,0-0.1,0-0.1c0.5-1.8,0.9-3.5,1-5.1l0,0c0.1-1.9,0-3.8-0.3-5.7
							c0,0,0-0.1,0-0.1c0,0,0.1,0,0.1-0.1l3.6-0.5c0,0,0.1,0,0.1,0c0,0,0,0.1,0,0.1v12c0,0,0,0.1,0,0.1C70,180.4,70,180.4,70,180.4
							C70,180.4,70,180.4,70,180.4z M66.6,168.9c0.3,1.8,0.4,3.7,0.3,5.6l0,0c-0.1,1.7-0.4,3.3-1,5l4,0.6v-11.7L66.6,168.9z"/>
					</g>
				</g>
			</g>
			<g>
				<g>
					<g>
						<path class="st0" d="M26.2,153.6l-3.7-5l-5.1,5.1l-3.4,3.4l6.1,4.5c0.2-0.4,0.4-0.8,0.6-1.2C22.1,157.9,24,155.6,26.2,153.6z"
							/>
						<path class="st1" d="M20,161.7l-6.1-4.5c0,0,0-0.1,0-0.1c0,0,0-0.1,0-0.1l8.5-8.5c0,0,0.1,0,0.1,0c0,0,0.1,0,0.1,0.1l3.7,5
							c0,0.1,0,0.1,0,0.2c-2.2,1.9-4,4.2-5.4,6.8l0,0c-0.2,0.3-0.4,0.7-0.6,1.2c0,0,0,0.1-0.1,0.1C20.1,161.8,20.1,161.8,20,161.7
							C20.1,161.8,20,161.8,20,161.7z M20.6,160.4c1.4-2.5,3.3-4.9,5.4-6.8l-3.6-4.8l-8.3,8.3l5.9,4.4
							C20.2,161,20.4,160.7,20.6,160.4L20.6,160.4z"/>
					</g>
					<g>
						<path class="st0" d="M53.8,195.9l3,4.1l8.5-8.5l-3.9-2.9c-0.1,0.2-0.2,0.4-0.4,0.6C59.1,191.9,56.7,194.2,53.8,195.9z"/>
						<path class="st1" d="M56.8,200.1C56.8,200.1,56.8,200.1,56.8,200.1l-3.1-4.1c0,0,0-0.1,0-0.1c0,0,0-0.1,0.1-0.1
							c2.8-1.7,5.2-4,7.2-6.7l0,0c0.1-0.1,0.1-0.2,0.2-0.3c0-0.1,0.1-0.2,0.1-0.2c0,0,0,0,0.1-0.1c0,0,0.1,0,0.1,0l3.9,2.9
							c0,0,0,0.1,0,0.1c0,0,0,0.1,0,0.1L56.8,200.1C56.9,200.1,56.9,200.1,56.8,200.1C56.8,200.1,56.8,200.1,56.8,200.1z
							 M61.4,188.8c0,0-0.1,0.1-0.1,0.1c-0.1,0.1-0.1,0.2-0.2,0.3c-2,2.8-4.4,5-7.1,6.7l2.8,3.8l8.3-8.3L61.4,188.8z"/>
					</g>
				</g>
				<g>
					<g>
						<path class="st0" d="M13.9,191.5l8.5,8.5l4.2-5.7c-1.6-1.2-3.1-2.7-4.4-4.3c-0.8-1-1.5-2-2.2-3.1L13.9,191.5z"/>
						<path class="st1" d="M22.3,200.1l-8.5-8.5c0,0,0-0.1,0-0.1c0,0,0-0.1,0-0.1l6.2-4.6c0,0,0.1,0,0.1,0c0,0,0.1,0,0.1,0.1
							c0.6,1.1,1.4,2.1,2.2,3.1c1.3,1.6,2.8,3,4.4,4.2c0.1,0,0.1,0.1,0,0.2l-4.2,5.7C22.5,200.1,22.5,200.1,22.3,200.1
							C22.4,200.1,22.4,200.1,22.3,200.1C22.4,200.1,22.4,200.1,22.3,200.1z M22.2,190.1c-0.8-1-1.5-1.9-2.1-3l-5.9,4.4l8.3,8.3
							l4.1-5.5C24.9,193.1,23.4,191.6,22.2,190.1z"/>
					</g>
					<g>
						<path class="st0" d="M62.2,159.4l3.1-2.3l-3.4-3.4l-1.7-1.7l-3.4-3.4l-2.2,3c0.8,0.5,1.5,1.1,2.1,1.7c2,1.7,3.7,3.7,5.2,5.9
							C62.1,159.2,62.1,159.3,62.2,159.4z"/>
						<path class="st1" d="M62.2,159.5C62.2,159.5,62.1,159.5,62.2,159.5l-0.2-0.2c0-0.1-0.1-0.1-0.1-0.2l0,0
							c-1.6-2.3-3.4-4.2-5.2-5.9c-0.7-0.7-1.4-1.2-2.1-1.7c0,0,0,0-0.1-0.1c0,0,0-0.1,0-0.1l2.2-3c0,0,0.1,0,0.1-0.1
							c0,0,0.1,0,0.1,0l8.5,8.5c0,0,0,0.1,0,0.1c0,0,0,0.1,0,0.1L62.2,159.5C62.3,159.5,62.2,159.5,62.2,159.5
							C62.2,159.5,62.2,159.5,62.2,159.5z M56.9,148.8l-2,2.7c0.7,0.5,1.3,1,2,1.6c1.8,1.6,3.6,3.6,5.2,5.9l0,0
							c0,0.1,0.1,0.1,0.1,0.2l0,0l2.9-2.2L56.9,148.8z"/>
					</g>
				</g>
			</g>
		</g>
		<g>
			<g>
				<path class="st5" d="M5,174.3c0,19.1,15.5,34.6,34.6,34.6s34.6-15.5,34.6-34.6s-15.5-34.6-34.6-34.6S5,155.2,5,174.3z
					 M10.4,174.3c0-16.1,13.1-29.2,29.2-29.2c16.1,0,29.2,13.1,29.2,29.2s-13.1,29.2-29.2,29.2C23.5,203.5,10.4,190.4,10.4,174.3z"
					/>
				<path class="st6" d="M4.9,174.3c0-19.2,15.6-34.8,34.8-34.8s34.8,15.6,34.8,34.8s-15.6,34.8-34.8,34.8S4.9,193.5,4.9,174.3z
					 M5.1,174.3c0,19,15.5,34.5,34.5,34.5s34.5-15.5,34.5-34.5s-15.5-34.5-34.5-34.5C20.6,139.8,5.1,155.3,5.1,174.3z M10.3,174.3
					c0-16.2,13.2-29.3,29.3-29.3c16.2,0,29.3,13.2,29.3,29.3s-13.2,29.3-29.3,29.3S10.3,190.5,10.3,174.3z M10.5,174.3
					c0,16,13.1,29.1,29.1,29.1c16,0,29.1-13.1,29.1-29.1s-13.1-29.1-29.1-29.1S10.5,158.3,10.5,174.3z"/>
			</g>
			<path class="st0" d="M7.8,174.3c0,17.6,14.3,31.8,31.8,31.8s31.8-14.3,31.8-31.8s-14.3-31.8-31.8-31.8S7.8,156.7,7.8,174.3z
				 M10.4,174.3c0-16.1,13.1-29.2,29.2-29.2c16.1,0,29.2,13.1,29.2,29.2s-13.1,29.2-29.2,29.2C23.5,203.5,10.4,190.4,10.4,174.3z"/>
			<g>
				
					<ellipse transform="matrix(0.1602 -0.9871 0.9871 0.1602 -138.7565 185.499)" class="st0" cx="39.6" cy="174.3" rx="13.7" ry="13.7"/>
				<path class="st1" d="M25.8,174.3c0-7.6,6.2-13.8,13.8-13.8c7.6,0,13.8,6.2,13.8,13.8s-6.2,13.8-13.8,13.8S25.8,181.9,25.8,174.3
					z M26.1,174.3c0,7.5,6.1,13.6,13.6,13.6c7.5,0,13.6-6.1,13.6-13.6s-6.1-13.6-13.6-13.6S26.1,166.8,26.1,174.3z"/>
			</g>
			<g>
				
					<ellipse transform="matrix(0.9239 -0.3827 0.3827 0.9239 -63.5555 28.4108)" class="st0" cx="39.6" cy="174" rx="7.7" ry="7.7"/>
				<path class="st1" d="M31.8,174c0-4.3,3.5-7.8,7.8-7.8s7.8,3.5,7.8,7.8c0,4.3-3.5,7.8-7.8,7.8S31.8,178.3,31.8,174z M32.1,174
					c0,4.2,3.4,7.6,7.6,7.6c4.2,0,7.6-3.4,7.6-7.6s-3.4-7.6-7.6-7.6S32.1,169.8,32.1,174z"/>
			</g>
		</g>
		<g>
			<circle class="st24" cx="39.6" cy="174.3" r="5.5"/>
			<path class="st7" d="M34,174.3c0-3.1,2.5-5.6,5.6-5.6c3.1,0,5.6,2.5,5.6,5.6c0,3.1-2.5,5.6-5.6,5.6S34,177.4,34,174.3z
				 M34.3,174.3c0,3,2.4,5.4,5.4,5.4s5.4-2.4,5.4-5.4s-2.4-5.4-5.4-5.4S34.3,171.3,34.3,174.3z"/>
		</g>
	</g>
	<g>
		<path class="st7" d="M37.1,174c0-1.4,1.1-2.5,2.5-2.5H120c1.4,0,2.5,1.1,2.5,2.5s-1.1,2.5-2.5,2.5H39.6
			C38.3,176.5,37.1,175.3,37.1,174z"/>
		<path class="st8" d="M37,174c0-1.5,1.2-2.6,2.6-2.6H120c1.5,0,2.6,1.2,2.6,2.6c0,1.5-1.2,2.6-2.6,2.6H39.6
			C38.2,176.6,37,175.4,37,174z M39.6,171.6c-1.3,0-2.4,1.1-2.4,2.4s1.1,2.4,2.4,2.4H120c1.3,0,2.4-1.1,2.4-2.4s-1.1-2.4-2.4-2.4
			H39.6z"/>
	</g>
	<g>
		<path class="st0" d="M116.7,174.8c-0.4-1.3,0.4-2.7,1.7-3.1l79.4-22.5c1.3-0.4,2.7,0.4,3.1,1.7s-0.4,2.7-1.7,3.1l-79.4,22.5
			c-0.2,0.1-0.5,0.1-0.7,0.1C118,176.6,117,175.9,116.7,174.8z"/>
		<path class="st1" d="M116.5,174.8c-0.2-0.7-0.1-1.4,0.2-2c0.3-0.6,0.9-1.1,1.6-1.2l79.4-22.5c0.7-0.2,1.4-0.1,2,0.2
			c0.6,0.3,1.1,0.9,1.2,1.6s0.1,1.4-0.2,2c-0.3,0.6-0.9,1.1-1.6,1.2l-79.4,22.5c-0.2,0.1-0.5,0.1-0.7,0.1
			C117.9,176.8,116.9,176,116.5,174.8z M197.8,149.4l-79.4,22.5c-0.6,0.2-1.1,0.6-1.4,1.1s-0.4,1.2-0.2,1.8c0.3,1,1.2,1.7,2.3,1.7
			c0.2,0,0.4,0,0.6-0.1l79.4-22.5c0.6-0.2,1.1-0.6,1.4-1.1c0.3-0.6,0.4-1.2,0.2-1.8c-0.2-0.6-0.6-1.1-1.1-1.4
			c-0.4-0.2-0.8-0.3-1.2-0.3C198.3,149.3,198.1,149.3,197.8,149.4z"/>
	</g>
	<g>
		<g>
			<circle class="st5" cx="119.2" cy="174.3" r="1.1"/>
			<path class="st6" d="M118,174.3c0-0.7,0.6-1.2,1.2-1.2s1.2,0.6,1.2,1.2s-0.6,1.2-1.2,1.2C118.5,175.5,118,174.9,118,174.3z
				 M118.2,174.3c0,0.5,0.4,1,1,1c0.5,0,1-0.4,1-1c0-0.5-0.4-1-1-1C118.7,173.3,118.2,173.7,118.2,174.3z"/>
		</g>
		<g>
			<circle class="st5" cx="39.3" cy="174.3" r="1.1"/>
			<path class="st6" d="M38.1,174.3c0-0.7,0.6-1.2,1.2-1.2c0.7,0,1.2,0.6,1.2,1.2s-0.6,1.2-1.2,1.2
				C38.6,175.5,38.1,174.9,38.1,174.3z M38.3,174.3c0,0.5,0.4,1,1,1s1-0.4,1-1c0-0.5-0.4-1-1-1S38.3,173.7,38.3,174.3z"/>
		</g>
	</g>
	<g>
		<g>
			<g>
				<g>
					<g>
						<path class="st7" d="M190.8,158.9c0,7.5,2.1,13.6,4.7,13.6c0.1,0,0.2,0,0.3,0h6h24.4h6c0.1,0,0.2,0,0.3,0
							c2.6,0,4.8-6.1,4.8-13.6c0-7.5-2.1-13.6-4.8-13.6v0h-6.3h-24.4h-6.3v0C193,145.4,190.8,151.4,190.8,158.9z"/>
						<path class="st7" d="M190.7,158.9c0-7.4,2.1-13.5,4.7-13.7v0h37.4v0c2.6,0.2,4.7,6.3,4.7,13.7c0,7.5-2.2,13.7-4.9,13.7
							c-0.1,0-0.2,0-0.3,0l-36.5,0c-0.1,0-0.2,0-0.3,0C192.9,172.6,190.7,166.5,190.7,158.9z M232.4,172.3c0.1,0,0.2,0,0.3,0
							c2.6,0,4.6-6,4.6-13.4s-2.1-13.4-4.6-13.4h-0.1v0h-36.9v0h-0.1c-2.5,0-4.6,6-4.6,13.4s2.1,13.4,4.6,13.4c0.1,0,0.2,0,0.3,0
							h30.5L232.4,172.3z"/>
					</g>
					<path class="st0" d="M237.1,153.8c0-0.3-0.1-0.7-0.2-1h-45.6c-0.1,0.3-0.1,0.7-0.2,1H237.1z"/>
					<g>
						<g>
							<path class="st5" d="M233,172.5h3c0.1,0,0.2,0,0.3,0c2.6,0,4.8-6.1,4.8-13.6c0-7.5-2.1-13.6-4.8-13.6v0h-3.6v0
								c2.6,0,4.8,6.1,4.8,13.6C237.5,166.1,235.5,172,233,172.5z"/>
							<path class="st6" d="M236,172.6h-3l0-0.2c2.4-0.4,4.3-6.3,4.3-13.4c0-7.4-2.1-13.4-4.6-13.4h-0.1v-0.3h3.8v0
								c2.6,0.2,4.7,6.3,4.7,13.7c0,7.5-2.2,13.7-4.9,13.7C236.2,172.6,236.1,172.6,236,172.6z M236.3,145.5h-0.1v0h-2.6
								c2.3,1.2,4,6.8,4,13.5c0,6.6-1.7,12.1-3.9,13.4l2.3,0c0.1,0,0.2,0,0.3,0c2.6,0,4.6-6,4.6-13.4S238.9,145.5,236.3,145.5
								L236.3,145.5z"/>
						</g>
						<g>
							<g>
								<path class="st5" d="M190.8,158.9c0,7.5,2.1,13.6,4.7,13.6c0.1,0,0.2,0,0.3,0h3c-2.5-0.5-4.4-6.3-4.4-13.5
									c0-7.5,2.1-13.6,4.7-13.6v0h-3.6v0C193,145.4,190.8,151.4,190.8,158.9z"/>
								<path class="st6" d="M190.7,158.9c0-7.4,2.1-13.5,4.7-13.7v0h3.8v0.3h-0.1c-2.5,0-4.6,6-4.6,13.4c0,7.1,1.9,13,4.3,13.4
									l0,0.2l-2.9,0c-0.1,0-0.2,0-0.3,0C192.9,172.6,190.7,166.5,190.7,158.9z M194.3,158.9c0-6.7,1.7-12.3,4-13.5h-2.6v0h-0.1
									c-2.5,0-4.6,6-4.6,13.4s2.1,13.4,4.6,13.4c0.1,0,0.2,0,0.3,0h2.3C196,171,194.3,165.5,194.3,158.9z"/>
							</g>
						</g>
					</g>
					<path class="st25" d="M195,165.3c0.8,4.3,2.4,7.2,4.2,7.2c0.1,0,0.2,0,0.3,0H236c0.1,0,0.2,0,0.3,0c1.8,0,3.4-2.9,4.2-7.2H195z
						"/>
				</g>
			</g>
			<g>
				<g>
					<g>
						<rect x="216.2" y="144.6" class="st26" width="2.6" height="28.1"/>
						<path class="st4" d="M216.1,144.5h2.8v28.3h-2.8V144.5z M218.6,144.8h-2.3v27.8h2.3V144.8z"/>
					</g>
				</g>
				<g>
					<circle class="st24" cx="217.5" cy="146.6" r="0.6"/>
					<circle class="st24" cx="217.5" cy="152.6" r="0.6"/>
					<circle class="st24" cx="217.5" cy="158.5" r="0.6"/>
					<circle class="st24" cx="217.5" cy="164.5" r="0.6"/>
					<path class="st24" d="M217.5,169.9c0.4,0,0.6,0.3,0.6,0.6s-0.3,0.6-0.6,0.6c-0.4,0-0.6-0.3-0.6-0.6S217.1,169.9,217.5,169.9z"
						/>
				</g>
				<g>
					<g>
						<rect x="213.1" y="144.6" class="st26" width="2.6" height="28.1"/>
						<path class="st4" d="M213,144.5h2.8v28.3H213V144.5z M215.6,144.8h-2.3v27.8h2.3V144.8z"/>
					</g>
				</g>
				<g>
					<circle class="st24" cx="214.4" cy="146.6" r="0.6"/>
					<circle class="st24" cx="214.4" cy="152.6" r="0.6"/>
					<circle class="st24" cx="214.4" cy="158.5" r="0.6"/>
					<circle class="st24" cx="214.4" cy="164.5" r="0.6"/>
					<path class="st24" d="M214.4,169.9c0.4,0,0.6,0.3,0.6,0.6s-0.3,0.6-0.6,0.6c-0.4,0-0.6-0.3-0.6-0.6S214.1,169.9,214.4,169.9z"
						/>
				</g>
			</g>
		</g>
	</g>
</g>
</svg>
